<?xml version="1.0" encoding="UTF-8" standalone="no"?>
<!-- Created with Inkscape (http://www.inkscape.org/) -->

<svg
   xmlns:dc="http://purl.org/dc/elements/1.1/"
   xmlns:cc="http://creativecommons.org/ns#"
   xmlns:rdf="http://www.w3.org/1999/02/22-rdf-syntax-ns#"
   xmlns:svg="http://www.w3.org/2000/svg"
   xmlns="http://www.w3.org/2000/svg"
   xmlns:sodipodi="http://sodipodi.sourceforge.net/DTD/sodipodi-0.dtd"
   xmlns:inkscape="http://www.inkscape.org/namespaces/inkscape"
   id="svg3076"
   version="1.1"
   inkscape:version="0.48.2 r9819"
   width="128.36653"
   height="128.51732"
   sodipodi:docname="BlackCanon.svg">
  <metadata
     id="metadata3082">
    <rdf:RDF>
      <cc:Work
         rdf:about="">
        <dc:format>image/svg+xml</dc:format>
        <dc:type
           rdf:resource="http://purl.org/dc/dcmitype/StillImage" />
        <dc:title />
      </cc:Work>
    </rdf:RDF>
  </metadata>
  <defs
     id="defs3080" />
  <sodipodi:namedview
     pagecolor="#ffffff"
     bordercolor="#666666"
     borderopacity="1"
     objecttolerance="10"
     gridtolerance="10"
     guidetolerance="10"
     inkscape:pageopacity="0"
     inkscape:pageshadow="2"
     inkscape:window-width="1234"
     inkscape:window-height="802"
     id="namedview3078"
     showgrid="false"
     inkscape:zoom="2.39"
     inkscape:cx="81.443285"
     inkscape:cy="74.713354"
     inkscape:window-x="133"
     inkscape:window-y="0"
     inkscape:window-maximized="0"
     inkscape:current-layer="g3154"
     fit-margin-top="3"
     fit-margin-left="3"
     fit-margin-right="3"
     fit-margin-bottom="3" />
  <path
     style="fill:#ffeeaa;fill-opacity:1"
     d="M 56.62332,124.67739 C 45.6593,123.83655 35.86634,119.71479 26.052108,111.81027 14.512428,102.51605 5.7589784,87.834512 3.9339484,74.713012 c -0.5805,-4.17366 -0.57802,-16.819614 0.004,-21.005049 2.32675,-16.7287 15.1186096,-34.24796 31.3463416,-42.930773 8.1644,-4.3684477 15.14182,-6.4602997 23.22175,-6.9619557 12.44537,-0.772692 23.2033,1.151541 32.40385,5.795964 11.20832,5.6579457 22.40834,16.8562897 28.06373,28.0595527 7.49181,14.841204 7.79449,36.246391 0.73046,51.659141 -5.24564,11.445278 -14.95031,21.768868 -26.91051,28.626738 -10.52981,6.03768 -20.62307,7.9131 -36.17037,6.72076 z"
     id="path3163"
     inkscape:connector-curvature="0" />
  <g
     inkscape:groupmode="layer"
     id="layer2"
     inkscape:label="LAYER1"
     style="display:inline"
     transform="translate(2.9999998,3.5173203)" />
  <g
     id="g3154"
     transform="translate(46.861925,-40.585774)">
    <path
       style="fill:#8c8c8c;fill-opacity:1"
       d="m 7.4622287,164.98904 c -4.97844,-0.83337 -12.63437,-3.62507 -19.0215397,-6.93609 -18.725442,-9.70704 -30.680194,-28.68956 -31.723775,-50.37306 -1.205655,-25.051052 11.477895,-46.539212 33.8576647,-57.360827 19.26725,-9.316568 37.6465403,-8.81389 57.1138503,1.562079 17.894598,9.537723 30.773798,31.634623 30.773798,52.798748 0,22.75496 -13.19921,43.98005 -33.845888,54.42614 -10.40724,5.2655 -26.04819,7.74209 -37.1541103,5.88301 z m 24.4145603,-5.2873 c 10.83552,-2.77126 16.91023,-6.31872 25.68868,-15.00149 11.553248,-11.42731 16.896758,-24.08354 16.896758,-40.02036 0,-15.936816 -5.34351,-28.59304 -16.896758,-40.020361 -8.77845,-8.682764 -14.85316,-12.230227 -25.68868,-15.001487 -10.41634,-2.664051 -20.20717,-2.55187 -30.2128003,0.346171 -10.42953,3.020821 -17.9421297,7.634865 -25.5493557,15.691758 -10.719666,11.353305 -15.652408,23.638804 -15.652408,38.983919 0,15.34512 4.932742,27.63062 15.652408,38.98393 14.6236857,15.48808 34.998906,21.34827 55.762156,16.03792 z M 5.9622287,158.50961 c -19.1541097,-3.62623 -37.3654957,-21.43648 -41.9944347,-41.06945 -4.461291,-18.921913 0.889847,-37.387527 14.883677,-51.36034 21.88817767,-21.855301 55.355528,-21.855301 77.210828,0 21.965298,21.965294 21.965298,55.23485 0,77.20015 -13.47851,13.4785 -31.08287,18.82995 -50.1000703,15.22964 z m 21.0663403,-3.90542 c 19.01619,-3.44742 35.432808,-19.09184 39.893878,-38.01736 6.91536,-29.337596 -12.475668,-57.777854 -42.364048,-62.134129 -20.8298503,-3.035982 -42.14182,7.584687 -51.814982,25.821639 -20.255263,38.18753 11.769542,82.03743 54.285152,74.32985 z m -8.91136,-20.75304 c -1.40384,-1.55123 -1.65979,-4.4724 -1.68666,-19.25 l -0.0317,-17.421256 -2.05548,2.75515 c -1.13052,1.515336 -2.46626,2.501276 -2.96832,2.190986 -0.53145,-0.32846 -0.91549,4.57867 -0.91917,11.74485 l -0.006,12.30901 -2.9936803,1.70349 -2.99367,1.70349 0,-2.95349 c 0,-2.77907 -0.23622,-2.95349 -4.00000003,-2.95349 -3.99408997,0 -3.99999997,0.006 -3.99999997,3.96482 0,3.77314 -1.79189,6.03518 -4.78079,6.03518 -0.52477,0 -0.72722,-5.4157 -0.47662,-12.75 l 0.43566,-12.75 -4.0037897,4.5 c -3.28631,3.69361 -4.12325,4.19839 -4.67046,2.81686 -0.39877,-1.00679 0.34703,-3.41784 1.85595,-6 2.70362,-4.62659 8.0003597,-19.854853 9.0947697,-26.147692 l 0.66623,-3.830835 -4.06969,0.293841 C -12.608051,80.037468 -14.071331,79.590482 -15.768911,77.8929 l -2.213008,-2.213006 11.3934777,0 c 9.29938,0 11.73716,-0.311025 13.26335,-1.692207 1.7764,-1.60762 2.05443,-1.507648 5.5620803,2 l 3.6922,3.692207 -7.5742003,0 -7.57420003,0 -1.28663,5.75 c -0.70764997,3.1625 -1.50239997,6.3125 -1.76611997,7 -0.63372,1.652065 6.87668,1.707806 8.52124,0.06324 0.91568,-0.915675 1.73738,-0.669474 3.5973,1.077831 l 2.4105403,2.264588 3.12802,-8.111221 c 1.72041,-4.461168 3.64391,-10.346192 4.27445,-13.077828 0.63054,-2.731635 1.49342,-4.96661 1.91752,-4.96661 0.4241,0 2.34059,0.926027 4.25887,2.057837 l 3.48777,2.057837 -2.50934,3.692163 -2.50934,3.692163 8.20308,0.292452 c 6.28137,0.223939 8.60037,-0.0671 9.89899,-1.242326 1.54214,-1.395624 1.9471,-1.272585 4.46645,1.357043 2.34919,2.452028 2.53621,3.022959 1.22972,3.754106 -1.26867,0.709983 -1.5938,3.730638 -1.8408,17.101891 -0.16499,8.93178 -0.0217,16.23898 0.31835,16.23822 0.34008,-7.6e-4 0.86444,1.83354 1.16525,4.07623 0.30081,2.24269 1.29593,4.90526 2.21137,5.91681 1.2778,1.41195 1.42009,2.2958 0.61253,3.80474 -1.56665,2.92731 -3.065,3.20083 -17.53428,3.20083 -11.57921,0 -13.47336,-0.23219 -14.91822,-1.82874 z m 24.67065,-3.92126 c 0.24401,-0.4125 0.7574,-2.64638 1.14086,-4.96418 l 0.6972,-4.21419 -3.14418,1.56852 c -1.7293,0.86269 -3.22863,1.40908 -3.33184,1.21419 -1.85124,-3.4953 -2.89831,-4.48329 -5.5605,-5.2468 -2.07573,-0.59531 -3.36728,-1.71599 -3.75418,-3.25753 -0.47406,-1.88881 -1.25542,-2.35001 -3.9814,-2.35001 l -3.39159,0 0,8.33334 c 0,4.58333 0.3,8.63333 0.66666,9 0.92135,0.92134 20.11043,0.84394 20.65897,-0.0833 z m -38.3256303,-21.25 0,-10.999996 -4.00000003,0 -3.99999997,0 0,10.999996 0,11 3.99999997,0 4.00000003,0 0,-11 z m 36.0000003,-8.999996 0,-15 -8.5147,0 -8.5147,0 -1.98134,3.25 c -1.08973,1.7875 -1.83564,3.7 -1.65758,4.25 0.56278,1.738301 8.69327,1.787391 10.59761,0.06399 1.57877,-1.428762 1.93014,-1.337723 4.1478,1.074685 1.65988,1.805652 2.02925,2.776187 1.17291,3.081839 -0.85347,0.304619 -1.25,2.894103 -1.25,8.162822 0,4.66852 -0.47401,8.19067 -1.2,8.91666 -0.93334,0.93334 -0.26667,1.2 3,1.2 l 4.2,0 0,-14.999996 z m -12,3.499996 c 0,-5.44444 -0.0303,-5.499996 -3,-5.499996 -2.9697,0 -3,0.05556 -3,5.499996 0,5.44445 0.0303,5.5 3,5.5 2.96969,0 3,-0.0556 3,-5.5 z"
       id="path3158"
       inkscape:connector-curvature="0" />
    <path
       style="fill:#000000;fill-opacity:1"
       d="M 7.7486399,164.94532 C -5.5150501,162.56969 -17.31337,156.17555 -26.7722,146.23664 -44.35645,127.7599 -48.27741,101.72031 -37.02179,78.167647 -29.91089,63.287897 -13.07295,49.82403 3.3857199,45.857221 16.9206,42.59509 34.90979,45.188118 47.19401,52.171911 54.4725,56.30986 63.956,65.283959 68.56806,72.39787 c 12.34835,19.046825 12.34835,46.11 0,65.15683 -4.61637,7.12056 -14.10365,16.09516 -21.37405,20.21903 -10.95804,6.21555 -27.74396,9.26741 -39.4453801,7.17159 z M 35.27586,159.31979 C 48.50497,154.98154 57.01112,148.61386 64.76009,137.24798 75.43147,121.59563 77.73985,103.36358 71.35812,85.135361 68.85428,77.983621 61.48322,67.11231 55.66626,61.992021 36.4151,45.046475 7.0930599,42.953388 -14.3103,56.996905 c -11.09065,7.276977 -20.07729,19.480416 -23.91789,32.479376 -2.37683,8.044645 -2.37683,22.955359 0,30.999999 9.3634,31.69153 42.2758699,49.08425 73.50405,38.84351 z M 9.3363199,158.94916 C -17.64922,154.81171 -37.06653,132.22673 -37.06653,104.97628 c 0,-15.022471 5.48781,-28.347403 15.85603,-38.499999 21.69166987,-21.240547 55.85543,-21.240479 77.09606,1.53e-4 21.27441,21.274409 21.27441,55.725286 0,76.999696 -12.03445,12.03444 -30.00854,18.00906 -46.5492401,15.47303 z M 29.35791,154.89687 c 12.00317,-2.76585 24.20462,-11.49936 31.2227,-22.34846 10.588,-16.36778 10.588,-38.776481 0,-55.144259 -9.73544,-15.049808 -25.1824,-23.42787 -43.19489,-23.42787 -13.4954701,0 -24.5182201,4.171739 -34.34917,13 -18.39204,16.516175 -22.22053,44.896289 -8.84572,65.572129 6.824654,10.5501 17.8414899,18.76412 29.2995199,21.84535 6.34974,1.70754 19.5282601,1.96386 25.8675601,0.50311 z M 18.46178,134.05235 c -1.94445,-1.94445 -2.07606,-3.19402 -2.07606,-19.71093 l 0,-17.634856 -2.1204,2.695647 c -1.17278,1.490949 -2.73695,2.459049 -3.5,2.166239 -1.1278501,-0.43279 -1.3796001,1.7714 -1.3796001,12.07897 0,10.83524 -0.24611,12.7952 -1.75,13.93682 -2.54988,1.93563 -3.25,1.69695 -3.25,-1.10796 0,-2.25 -0.4,-2.5 -4.00000003,-2.5 -3.97212997,0 -3.99999997,0.0268 -3.99999997,3.83949 0,3.12503 -0.46521,4.05144 -2.5,4.97856 l -2.5,1.13908 0,-13.10718 0,-13.10717 -3.9003099,4.37861 c -2.14516,2.40824 -4.18336,4.10292 -4.52931,3.76596 -0.34596,-0.33696 0.92741,-3.71196 2.82972,-7.5 4.14337,-8.25067 7.3127599,-17.742128 8.2278099,-24.640059 l 0.66997,-5.050541 -4.2607,0.681315 c -4.1081399,0.656918 -7.0371799,-0.383853 -7.0371799,-2.500509 0,-0.482655 5.02706,-0.877555 11.1712499,-0.877555 8.50116,0 11.5654,-0.35669 12.82027,-1.492326 1.4808,-1.340108 1.94142,-1.187107 4.5158301,1.5 l 2.86683,2.992326 -6.6280801,0 c -3.64544,0 -6.90285,0.444597 -7.23868003,0.987993 -0.81538,1.319314 -3.50741997,11.727591 -3.50741997,13.560797 0,2.022686 7.33619,1.955967 9.02764,-0.0821 1.12867,-1.359967 1.53504,-1.286701 3.5945101,0.648072 l 2.32198,2.181383 2.00425,-4.67572 c 1.10233,-2.571646 3.19734,-8.502398 4.65557,-13.179449 2.56103,-8.214111 2.72361,-8.457627 4.77369,-7.150104 1.16729,0.744493 2.66831,1.674945 3.33559,2.067669 0.9041,0.532106 0.71395,1.532897 -0.74627,3.927752 -1.07772,1.76754 -1.96117,3.551208 -1.96323,3.963708 -0.002,0.4125 3.67333,0.75 8.16752,0.75 5.8564,0 8.64035,-0.424517 9.82709,-1.498506 1.48599,-1.344799 1.89377,-1.245233 3.97552,0.970685 1.70362,1.813424 2.03892,2.808951 1.26253,3.748506 -1.20969,1.463906 -2.15338,33.781663 -0.98639,33.780233 0.4125,-5.1e-4 0.75,1.79908 0.75,3.99908 0,2.73685 0.66666,4.66667 2.11111,6.11111 l 2.11111,2.11112 -2.13603,2.13888 c -1.93137,1.93396 -3.41983,2.17013 -15.53505,2.46496 -12.46544,0.30335 -13.54366,0.18142 -15.47508,-1.75 z m 24.88875,-5.01032 c 0.56935,-1.06385 1.03519,-3.27476 1.03519,-4.91314 0,-2.84954 -0.12192,-2.93286 -2.80784,-1.91904 -2.45618,0.92711 -3.13933,0.72836 -5.45455,-1.58686 -1.45569,-1.45569 -3.35181,-2.64671 -4.2136,-2.64671 -0.86179,0 -2.07948,-1.125 -2.70597,-2.5 -0.88401,-1.94019 -1.88686,-2.5 -4.47856,-2.5 l -3.33948,0 0,8.33333 c 0,4.58334 0.3,8.63334 0.66666,9.00001 0.36667,0.36666 5.07584,0.66666 10.46482,0.66666 8.66369,0 9.918,-0.22395 10.83333,-1.93425 z m -38.9648101,-19.56575 0,-11.499999 -4.00000003,0 -3.99999997,0 0,11.499999 0,11.5 3.99999997,0 4.00000003,0 0,-11.5 z m 36.0000001,-9 0,-15.499999 -8.81479,0 -8.81479,0 -1.68521,3.533927 c -0.92687,1.94366 -1.68521,3.96866 -1.68521,4.5 0,1.400694 9.37793,1.18814 10.81111,-0.245038 0.94814,-0.948148 1.68878,-0.733435 3.41111,0.988889 1.72232,1.722324 1.93703,2.462963 0.98889,3.411111 -0.74112,0.74112 -1.21111,4.23802 -1.21111,9.01111 0,5.50313 -0.36809,7.83877 -1.25,7.93164 -1.15467,0.1216 4.1421,1.43575 7,1.73672 0.95189,0.10025 1.25,-3.56482 1.25,-15.36836 z m -12,2.93664 0,-6.563356 -3.25,0.313359 c -3.1294,0.30173 -3.2615,0.494184 -3.55982,5.186297 -0.41031,6.4537 0.17097,7.62706 3.77843,7.62706 l 3.03139,0 0,-6.56336 z"
       id="path3156"
       inkscape:connector-curvature="0" />
  </g>
</svg>
