<?xml version="1.0" encoding="UTF-8" standalone="no"?>
<!-- Created with Inkscape (http://www.inkscape.org/) -->

<svg
   xmlns:dc="http://purl.org/dc/elements/1.1/"
   xmlns:cc="http://creativecommons.org/ns#"
   xmlns:rdf="http://www.w3.org/1999/02/22-rdf-syntax-ns#"
   xmlns:svg="http://www.w3.org/2000/svg"
   xmlns="http://www.w3.org/2000/svg"
   xmlns:sodipodi="http://sodipodi.sourceforge.net/DTD/sodipodi-0.dtd"
   xmlns:inkscape="http://www.inkscape.org/namespaces/inkscape"
   id="svg3076"
   version="1.1"
   inkscape:version="0.48.2 r9819"
   width="128.20163"
   height="128.2204"
   sodipodi:docname="BlackElephant.svg">
  <metadata
     id="metadata3082">
    <rdf:RDF>
      <cc:Work
         rdf:about="">
        <dc:format>image/svg+xml</dc:format>
        <dc:type
           rdf:resource="http://purl.org/dc/dcmitype/StillImage" />
        <dc:title />
      </cc:Work>
    </rdf:RDF>
  </metadata>
  <defs
     id="defs3080" />
  <sodipodi:namedview
     pagecolor="#ffffff"
     bordercolor="#666666"
     borderopacity="1"
     objecttolerance="10"
     gridtolerance="10"
     guidetolerance="10"
     inkscape:pageopacity="0"
     inkscape:pageshadow="2"
     inkscape:window-width="1027"
     inkscape:window-height="709"
     id="namedview3078"
     showgrid="false"
     inkscape:zoom="3.8688525"
     inkscape:cx="104.53855"
     inkscape:cy="57.054009"
     inkscape:window-x="242"
     inkscape:window-y="148"
     inkscape:window-maximized="0"
     inkscape:current-layer="g3110"
     fit-margin-top="3"
     fit-margin-right="3"
     fit-margin-left="3"
     fit-margin-bottom="3" />
  <path
     style="fill:#ffeeaa;fill-opacity:1"
     d="m 58.920386,124.59076 c -4.66974,-0.29078 -8.23609,-0.82797 -11.26391,-1.69664 -19.5042,-5.59571 -36.51986,-22.58403 -42.1731695,-42.105411 -2.63876,-9.111882 -2.64527,-24.362851 -0.0143,-33.586087 1.50139,-5.263388 4.37644,-11.374869 7.7286595,-16.428748 6.47868,-9.767411 15.02206,-17.147239 25.49045,-22.0188109 8.72502,-4.060274 15.79336,-5.635051 25.30092,-5.636869 16.11114,-0.0031 28.7599,4.771809 40.625354,15.3360129 10.12089,9.010956 16.84129,20.148257 19.20938,31.834498 1.02296,5.048181 1.26796,7.695222 1.26796,13.699152 0,10.415052 -1.57359,17.963342 -5.40083,25.907052 -5.89006,12.225231 -16.93968,23.159861 -29.725164,29.415841 -5.96241,2.91743 -10.89476,4.44529 -16.15467,5.00414 -3.74494,0.39788 -10.82472,0.52905 -14.89064,0.27587 z"
     id="path3118"
     inkscape:connector-curvature="0" />
  <g
     inkscape:groupmode="layer"
     id="layer2"
     inkscape:label="LAYER1"
     style="display:inline"
     transform="translate(2.9999999,3.2204022)" />
  <g
     id="g3110">
    <path
       style="fill:#8c8c8c;fill-opacity:1"
       d="m 54.324153,124.10635 c -4.97844,-0.83337 -12.63437,-3.62507 -19.021537,-6.93609 C 16.577172,107.46322 4.6224201,88.480685 3.5788391,66.797196 2.3731841,41.74614 15.056734,20.25798 37.436507,9.4363651 56.703753,0.11979715 75.083043,0.62247515 94.550353,10.998444 c 17.894597,9.537723 30.773797,31.634623 30.773797,52.798752 0,22.754949 -13.19921,43.980054 -33.845887,54.426144 -10.40723,5.2655 -26.04819,7.74209 -37.15411,5.88301 z m 24.41456,-5.2873 c 10.83552,-2.77126 16.91023,-6.31872 25.688677,-15.00149 11.55325,-11.427315 16.89676,-24.083545 16.89676,-40.020364 0,-15.93682 -5.34351,-28.593044 -16.89676,-40.020365 C 95.648943,15.094067 89.574233,11.546604 78.738713,8.7753441 68.322373,6.1112931 58.531543,6.2234741 48.525923,9.1215151 38.096387,12.142336 30.583788,16.75638 22.976558,24.813273 12.256892,36.166578 7.3241501,48.452077 7.3241501,63.797196 c 0,15.345119 4.9327419,27.630619 15.6524079,38.983924 14.623686,15.48809 34.998905,21.34828 55.762155,16.03793 z m -25.91456,-1.19213 C 33.670042,114.00069 15.458658,96.190435 10.829719,76.557465 6.3684281,57.635549 11.719566,39.169935 25.713396,25.197122 c 21.888177,-21.8553009 55.355527,-21.8553009 77.210824,0 21.9653,21.965294 21.9653,55.234853 0,77.200148 -13.478507,13.47851 -31.082857,18.82996 -50.100067,15.22965 z m 21.06634,-3.90542 C 92.906683,110.27408 109.3233,94.629655 113.78437,75.704125 120.69973,46.366536 101.3087,17.926278 71.420323,13.570003 50.590473,10.534021 29.278507,21.15469 19.605342,39.391642 -0.64992093,77.579175 31.37488,121.42908 73.890493,113.7215 z m -11.9453,-18.469455 c -0.32611,-0.84984 -2.17425,-2.20588 -4.10698,-3.01342 -1.93274,-0.80755 -3.51406,-2.16961 -3.51406,-3.02681 0,-1.30707 0.89361,-1.44688 5.53861,-0.86653 6.54301,0.8175 9.02943,-0.72864 10.06713,-6.26007 0.88369,-4.71046 -0.84586,-6.3301 -3.8425,-3.59833 -5.8614,5.34332 -20.394618,11.98903 -30.013243,13.72438 -3.2185,0.58067 -3.75,0.41606 -3.75,-1.16135 0,-1.34844 1.265012,-2.17469 4.75,-3.1025 7.804261,-2.07772 18.627023,-7.78459 24.107313,-12.71184 2.82848,-2.543043 5.14269,-5.029023 5.14269,-5.524397 0,-0.495373 -2.88359,1.0735 -6.40797,3.486386 -9.22637,6.316621 -21.388363,10.616691 -22.318589,7.891101 -0.240368,-0.70428 2.408033,-2.4874 6.347474,-4.27363 7.206825,-3.267727 18.467895,-11.1549 16.746085,-11.728837 -0.56808,-0.189361 -3.69555,1.259491 -6.94994,3.219671 -7.441594,4.482219 -18.447567,8.060006 -19.509333,6.342036 -0.495198,-0.801252 2.11115,-2.610909 7.927254,-5.504111 8.194509,-4.076334 11.887339,-6.686543 15.037459,-10.628964 1.25746,-1.573728 0.98517,-1.717634 -3.25,-1.717634 -3.0905,0 -4.62244,0.424462 -4.62244,1.280762 0,0.70442 -1.35,1.790331 -3.000003,2.413136 l -3,1.132374 0,-6.413136 c 0,-3.527225 -0.170044,-6.413136 -0.377876,-6.413136 -0.207832,0 -1.895332,0.621095 -3.75,1.380211 -6.465574,2.646359 -7.872124,2.865136 -7.872124,1.224438 0,-0.84157 2.5875,-3.292805 5.75,-5.447189 6.005113,-4.090852 17.250003,-15.227021 17.250003,-17.083223 0,-1.652245 1.69491,-1.290023 5.50164,1.175763 3.9107,2.533126 4.28318,3.398255 1.74836,4.060674 -0.9625,0.251528 1.21775,0.509524 4.84501,0.573325 5.44313,0.09574 6.91501,-0.237594 8.42714,-1.908476 1.82874,-2.020733 1.8382,-2.01859 5.11607,1.158452 3.67966,3.566462 3.62515,4.340128 -0.36741,5.214531 -1.52395,0.333756 -3.89581,1.506873 -5.27081,2.606926 l -2.5,2.000096 5.42126,0.02224 c 3.29527,0.01352 6.04037,-0.533196 7,-1.394115 1.37654,-1.234954 1.96033,-1.110655 4.5582,0.970534 2.35704,1.888247 2.72262,2.64373 1.75,3.616351 -0.6762,0.676202 -1.22946,3.389462 -1.22946,6.029462 0,2.872842 -0.44915,4.8 -1.11869,4.8 -0.61528,0 0.0463,1.52743 1.47026,3.394288 l 2.58895,3.394288 -3.44545,0.646369 c -1.89499,0.355503 -5.04915,1.316443 -7.00924,2.135422 l -3.56381,1.489052 1.78899,3.118294 c 2.07574,3.618116 9.10566,8.430056 13.64683,9.341176 5.62846,1.12926 6.642157,1.59451 6.642157,3.0485 0,0.78793 -0.752067,1.43261 -1.671257,1.43261 -0.9192,0 -2.50404,0.75365 -3.52188,1.67478 -1.71983,1.55643 -2.09329,1.55906 -5.28471,0.0372 -5.1305,-2.44656 -10.95358,-8.12467 -13.01089,-12.68696 -2.41755,-5.361189 -2.9151,-4.566469 -0.88014,1.40582 1.36414,4.00352 1.42873,5.43675 0.40202,8.91958 -1.36486,4.62991 -4.18402,8.13769 -8.23348,10.24462 -3.50329,1.82276 -5.44225,1.77878 -6.17862,-0.14016 z m 16.46402,-31.704849 c 7.11444,-4.657019 6.3082,-6.178321 -3.46825,-6.544267 -6.31996,-0.236564 -8.23446,0.04325 -9.76349,1.427007 -1.04609,0.946701 -1.77854,2.064585 -1.62765,2.484187 0.42535,1.182916 7.11604,5.70145 8.58437,5.797435 0.72053,0.0471 3.54428,-1.376862 6.27502,-3.164362 z M 61.288963,51.862937 c 1.90579,-3.560999 1.22736,-4.065741 -5.46481,-4.065741 l -6.5,0 0,3 c 0,2.967356 0.0595,3 5.46481,3 4.37945,0 5.67042,-0.384164 6.5,-1.934259 z m 21.85161,-1.315741 0.31642,-2.75 -6.9686,0 c -6.86489,0 -6.98437,0.04526 -8.02883,3.041388 l -1.06023,3.041387 7.71241,-0.291387 c 7.5878,-0.28668 7.71752,-0.335818 8.02883,-3.041388 z m -15.063,-9.5 1.49052,-2.25 -7.37197,0.03596 c -6.3505,0.03098 -7.78766,0.380358 -10.37197,2.521455 l -3,2.485492 8.88145,-0.271455 c 7.94272,-0.242763 9.039,-0.509272 10.37197,-2.521455 z"
       id="path3114"
       inkscape:connector-curvature="0" />
    <path
       style="fill:#000000;fill-opacity:1"
       d="M 54.610564,124.06262 C 41.34688,121.68699 29.54856,115.29285 20.089728,105.35394 2.5054712,86.877204 -1.4154807,60.837616 9.8401303,37.284949 16.951031,22.405199 33.78898,8.9413328 50.247644,4.9745238 c 13.53488,-3.262131 31.52407,-0.669103 43.80829,6.3146902 7.278486,4.137948 16.761986,13.112047 21.374046,20.225958 12.34835,19.046825 12.34835,46.11 0,65.156822 -4.61637,7.120566 -14.10365,16.095166 -21.374046,20.219036 -10.95804,6.21555 -27.74396,9.26741 -39.44537,7.17159 z m 27.52723,-5.62553 c 13.2291,-4.33825 21.735246,-10.70593 29.484216,-22.071806 10.67138,-15.652352 12.97976,-33.884398 6.59803,-52.112621 -2.50384,-7.15174 -9.8749,-18.023051 -15.69186,-23.14334 C 83.277024,4.1637778 53.954984,2.0706908 32.551625,16.114207 21.460975,23.391184 12.474331,35.594623 8.6337303,48.593583 c -2.376826,8.044645 -2.376826,22.955355 0,30.999999 9.3634037,31.691528 42.2758737,49.084248 73.5040637,38.843508 z m -25.93955,-0.37063 C 29.212702,113.92901 9.7953973,91.344034 9.7953973,64.093583 c 0,-15.022472 5.4878057,-28.347404 15.8560297,-38.5 21.691667,-21.2405462 55.855427,-21.2404782 77.096053,1.53e-4 21.27441,21.274409 21.27441,55.725286 0,76.999694 -12.034446,12.03444 -30.008536,18.00906 -46.549236,15.47303 z m 20.02159,-4.05229 c 12.00317,-2.76585 24.204616,-11.49936 31.222696,-22.348456 10.588,-16.367782 10.588,-38.776483 0,-55.144261 -9.735436,-15.049808 -25.182396,-23.42787 -43.194886,-23.42787 -13.49547,0 -24.518218,4.171739 -34.349169,13 -18.392037,16.516175 -22.2205327,44.896287 -8.845724,65.572131 6.824658,10.550096 17.841499,18.764116 29.299523,21.845346 6.34974,1.70754 19.52826,1.96386 25.86756,0.50311 z M 62.495384,95.118684 c -0.63089,-1.01022 -2.74473,-2.36405 -4.69741,-3.00849 -5.86673,-1.93619 -4.4209,-3.5614 2.8346,-3.18628 5.73213,0.29636 6.555,0.0935 8.0021,-1.97251 1.51676,-2.16547 2.32282,-10.857822 1.00687,-10.857822 -0.33335,0 -2.24585,1.269 -4.25,2.82 -7.91842,6.128032 -16.58372,10.139402 -27.306755,12.640912 -8.909427,2.07843 -7.617611,-0.57497 1.912852,-3.92901 12.372893,-4.35437 26.250003,-13.399512 26.250003,-17.109824 0,-1.995703 -0.38774,-1.858618 -5.85729,2.07086 -7.70059,5.532322 -19.899151,10.393664 -22.32255,8.895922 -0.598323,-0.36979 2.480715,-2.37858 6.842306,-4.46398 7.699744,-3.681463 17.451904,-11.094366 16.237094,-12.342287 -0.33024,-0.339242 -3.22813,0.965511 -6.43976,2.89945 -9.043748,5.445862 -20.522417,9.247967 -20.432658,6.767958 0.01493,-0.4125 3.502429,-2.400844 7.75,-4.418541 7.421798,-3.525534 16.222858,-9.986487 16.222858,-11.909382 0,-1.48565 -8.16125,-1.071103 -9.38976,0.476948 -0.61063,0.769463 -2.12274,1.699788 -3.360243,2.067388 -2.170648,0.644791 -2.25,0.439779 -2.25,-5.812996 l 0,-6.481358 -5.001077,2.112893 c -7.209859,3.046078 -8.561534,1.064414 -2.120693,-3.109108 6.742437,-4.36895 14.575313,-11.555596 17.169353,-15.752836 l 2.1569,-3.48994 3.13067,1.982199 c 3.77613,2.390879 4.39017,3.757442 1.97019,4.38475 -0.99294,0.257389 1.30922,0.520181 5.11592,0.583982 5.21637,0.08743 7.38152,-0.300534 8.78978,-1.574988 1.77124,-1.602952 2.02863,-1.530877 4.94394,1.384429 l 3.07541,3.075418 -3.46815,1.144592 c -1.90748,0.629526 -4.51276,2.256533 -5.78951,3.615571 l -2.32136,2.470979 5.60288,0 c 3.64701,0 6.12651,-0.523626 7.10289,-1.5 1.97896,-1.978962 2.58571,-1.902317 5.32691,0.67291 1.99502,1.87422 2.12384,2.3897 0.93716,3.75 -0.75669,0.8674 -1.58908,3.930423 -1.84976,6.806719 -0.38212,4.216333 -0.11525,5.554248 1.3773,6.904988 2.32551,2.104561 2.36354,3.366831 0.10125,3.360437 -3.38935,-0.0096 -11.25,3.395939 -11.25,4.873907 0,2.843545 8.69756,9.963738 14.14835,11.582458 2.86806,0.85172 5.84547,1.548582 6.61648,1.548582 2.058816,0 0.8973,2.44282 -1.3477,2.83436 -1.05442,0.1839 -2.46389,1.03587 -3.13214,1.89327 -1.07504,1.37933 -1.86495,1.16801 -6.85692,-1.83436 -5.45205,-3.27907 -10.39551,-8.970412 -11.86307,-13.657792 -0.38995,-1.245486 -1.09953,-2.023158 -1.57685,-1.728159 -0.47731,0.294999 -0.21992,2.08708 0.572,3.982402 1.88457,4.510427 1.82629,9.893659 -0.15227,14.063159 -1.89012,3.98312 -2.93519,4.93384 -7.53716,6.85667 -3.19316,1.33418 -3.5692,1.30291 -4.62298,-0.38445 z m 18.46287,-32.664006 c 5.29995,-3.966438 3.55813,-5.361095 -6.69563,-5.361095 -7.98085,0 -8.90533,0.202259 -10.2617,2.245053 -1.42544,2.146836 -1.2886,2.382274 3.12803,5.381633 4.41373,2.99739 4.75182,3.070029 7.61869,1.636892 1.65,-0.824828 4.44477,-2.580945 6.21061,-3.902483 z m -18.86046,-11.361095 1.04581,-3 -6.94798,0 -6.94798,0 0,3 c 0,2.994475 0.0109,3 5.90217,3 5.65891,0 5.94528,-0.123651 6.94798,-3 z m 21.14985,0 0,-3 -7.5,0 c -5.80777,0 -7.5,0.319992 -7.5,1.418213 0,0.780016 -0.27315,2.130016 -0.60699,3 -0.52273,1.362222 0.51833,1.581787 7.5,1.581787 l 8.10699,0 0,-3 z m -15.54047,-8.739782 c 1.39726,-1.50688 2.54047,-3.08188 2.54047,-3.5 0,-0.41812 -3.34048,-0.760218 -7.42328,-0.760218 -6.52717,0 -7.79468,0.312518 -10.5,2.588894 -1.6922,1.423891 -3.07672,2.998891 -3.07672,3.5 0,0.501108 3.58179,0.911106 7.95953,0.911106 7.39109,0 8.14096,-0.195664 10.5,-2.739782 z"
       id="path3112"
       inkscape:connector-curvature="0" />
  </g>
</svg>
