<?xml version="1.0" encoding="UTF-8" standalone="no"?>
<!-- Created with Inkscape (http://www.inkscape.org/) -->

<svg
   xmlns:dc="http://purl.org/dc/elements/1.1/"
   xmlns:cc="http://creativecommons.org/ns#"
   xmlns:rdf="http://www.w3.org/1999/02/22-rdf-syntax-ns#"
   xmlns:svg="http://www.w3.org/2000/svg"
   xmlns="http://www.w3.org/2000/svg"
   xmlns:sodipodi="http://sodipodi.sourceforge.net/DTD/sodipodi-0.dtd"
   xmlns:inkscape="http://www.inkscape.org/namespaces/inkscape"
   id="svg3076"
   version="1.1"
   inkscape:version="0.48.2 r9819"
   width="128.20163"
   height="128.2204"
   sodipodi:docname="BlackKnight.svg">
  <metadata
     id="metadata3082">
    <rdf:RDF>
      <cc:Work
         rdf:about="">
        <dc:format>image/svg+xml</dc:format>
        <dc:type
           rdf:resource="http://purl.org/dc/dcmitype/StillImage" />
        <dc:title />
      </cc:Work>
    </rdf:RDF>
  </metadata>
  <defs
     id="defs3080" />
  <sodipodi:namedview
     pagecolor="#ffffff"
     bordercolor="#666666"
     borderopacity="1"
     objecttolerance="10"
     gridtolerance="10"
     guidetolerance="10"
     inkscape:pageopacity="0"
     inkscape:pageshadow="2"
     inkscape:window-width="1027"
     inkscape:window-height="709"
     id="namedview3078"
     showgrid="false"
     inkscape:zoom="3.8688525"
     inkscape:cx="70.16197"
     inkscape:cy="57.054009"
     inkscape:window-x="211"
     inkscape:window-y="124"
     inkscape:window-maximized="0"
     inkscape:current-layer="g3131"
     fit-margin-top="3"
     fit-margin-right="3"
     fit-margin-bottom="3"
     fit-margin-left="3" />
  <g
     inkscape:groupmode="layer"
     id="layer2"
     inkscape:label="LAYER1"
     style="display:inline"
     transform="translate(2.9999999,3.2203999)" />
  <g
     id="g3131"
     transform="translate(-30.414993,-8.2711864)">
    <path
       style="fill:#ffeeaa;fill-opacity:1"
       d="m 80.077156,131.66323 c -20.81377,-5.03971 -39.20538,-23.28072 -44.64726,-44.28165 -2.01987,-7.794913 -2.01987,-22.743221 0,-30.538139 4.36682,-16.852124 16.87225,-32.083395 32.43027,-39.499189 10.05264,-4.79163 16.29214,-6.231739 27,-6.231739 17.062394,0 30.679184,5.6522 42.970514,17.836647 12.41389,12.305935 18.00575,25.710733 18.00575,43.163353 0,17.452617 -5.59186,30.857427 -18.00575,43.163357 -8.46005,8.38649 -19.60408,14.65541 -29.76973,16.74656 -6.96257,1.43225 -21.347784,1.24761 -27.983794,-0.3592 z"
       id="path3137"
       inkscape:connector-curvature="0" />
    <path
       style="fill:#8c8c8c;fill-opacity:1"
       d="M 84.73914,132.37753 C 79.76071,131.54416 72.104776,128.75246 65.717609,125.44144 46.992165,115.7344 35.037413,96.751872 33.993832,75.068378 32.788177,50.017322 45.471727,28.529162 67.8515,17.707547 c 19.26724,-9.3165685 37.64653,-8.8138905 57.11384,1.562079 17.8946,9.537723 30.7738,31.634623 30.7738,52.798752 0,22.754954 -13.19921,43.980052 -33.84588,54.426142 -10.40724,5.2655 -26.04819,7.74209 -37.15412,5.88301 z m 24.41456,-5.2873 c 10.83553,-2.77126 16.91023,-6.31872 25.68868,-15.00149 11.55325,-11.42732 16.89676,-24.083541 16.89676,-40.020362 0,-15.93682 -5.34351,-28.593044 -16.89676,-40.020365 C 126.06393,23.365249 119.98923,19.817786 109.1537,17.046526 98.73736,14.382475 88.94654,14.494656 78.940912,17.392697 68.51138,20.413518 60.998781,25.027562 53.391551,33.084455 42.671885,44.43776 37.739143,56.723259 37.739143,72.068378 c 0,15.345121 4.932742,27.630624 15.652408,38.983922 14.623686,15.48809 34.998909,21.34828 55.762149,16.03793 z M 83.239143,125.8981 C 64.085035,122.27187 45.873651,104.46162 41.244712,84.828649 36.783421,65.906731 42.134559,47.441117 56.128389,33.468304 c 21.888176,-21.855301 55.355531,-21.855301 77.210831,0 21.96529,21.965294 21.96529,55.234855 0,77.200146 -13.47851,13.47851 -31.08287,18.82996 -50.100077,15.22965 z m 21.066337,-3.90542 c 19.0162,-3.44742 35.43281,-19.09184 39.89388,-38.017371 C 151.11472,54.637718 131.7237,26.19746 101.83532,21.841185 81.005462,18.805203 59.6935,29.425872 50.020335,47.662824 29.765072,85.850359 61.789873,129.70026 104.30548,121.99268 z m 7.7623,-17.76968 c -0.63385,-1.01495 -3.16359,-2.40845 -5.62165,-3.09667 -3.6603,-1.02482 -4.37778,-1.600858 -3.96412,-3.182658 0.31301,-1.19697 1.12337,-1.75836 2.1311,-1.47638 4.11828,1.15236 9.74864,1.54217 10.94835,0.75799 1.72229,-1.12576 3.12383,-7.305903 3.15383,-13.906904 l 0.0239,-5.25 -21,0 c -17.560973,0 -20.999997,0.234609 -20.999997,1.432612 0,0.787937 -0.848466,1.701905 -1.885481,2.031041 -1.530028,0.485612 -1.963451,1.822929 -2.29907,7.093728 -0.34058,5.348713 -0.873604,6.955323 -3.019503,9.101223 -2.005086,2.00508 -3.204226,2.455738 -5.200929,1.9546 -3.201468,-0.80351 -3.381593,-3.42115 -0.461742,-6.71019 1.173301,-1.32166 3.020972,-4.375683 4.105936,-6.786713 1.749008,-3.886693 1.988117,-6.812184 2.108975,-25.803284 0.133669,-21.00424 0.175244,-21.404927 2.144063,-20.663879 1.104263,0.415636 11.177365,0.907669 22.384668,1.093408 18.21799,0.301925 20.57974,0.154164 22.29113,-1.394627 1.83512,-1.66076 2.06675,-1.579786 5.60641,1.959874 l 3.69221,3.692207 -13.23333,0 -13.23334,0 0,4 0,4 6.18555,0 c 4.80385,0 6.65985,-0.445584 8.3089,-1.994779 l 2.12334,-1.994779 3.38727,3.494779 3.38728,3.494779 -11.69617,0 -11.69617,0 0,3.5 0,3.5 6.17126,0 c 4.39378,0 6.70983,-0.4874 8.04113,-1.692207 1.7764,-1.60762 2.05443,-1.507648 5.56207,2 l 3.69221,3.692207 -11.73333,0 -11.73334,0 0,3.5 0,3.5 9.58971,0 c 8.44153,0 9.7885,-0.244143 11.25,-2.039107 1.65417,-2.031588 1.6732,-2.027936 5.16029,0.990278 3.15026,2.726668 3.33569,3.158562 1.85566,4.322093 -1.14714,0.901827 -1.85942,3.701715 -2.35562,9.259717 -0.88436,9.905663 -3.30937,15.799941 -7.36274,17.896021 -3.86409,1.9982 -4.40538,1.97263 -5.80866,-0.27438 z m -18.32864,-33.654622 0,-3.5 -8.5,0 -8.499997,0 0,3.5 0,3.5 8.499997,0 8.5,0 0,-3.5 z m 0,-11 0,-3.5 -8.5,0 -8.499997,0 0,3.5 0,3.5 8.499997,0 8.5,0 0,-3.5 z m 0,-10.5 0,-4 -8.5,0 -8.499997,0 0,4 0,4 8.499997,0 8.5,0 0,-4 z M 80.866751,95.818382 c -2.426858,-6.582693 -3.956566,-12.217738 -3.511955,-12.937134 1.065912,-1.724682 3.360795,-0.664795 6.311543,2.914971 3.653521,4.43235 4.178151,9.610233 1.138541,11.236983 -2.684037,1.43645 -2.996175,1.34016 -3.938129,-1.21482 z m 14.101579,-1.92081 c -0.67605,-0.67606 -1.22919,-1.93335 -1.22919,-2.794003 0,-0.86064 -0.93197,-3.30367 -2.07105,-5.42895 -1.45537,-2.715392 -1.75678,-4.178411 -1.01389,-4.921301 1.4243,-1.424295 8.25702,4.102301 9.54654,7.721641 1.57184,4.411733 -2.26597,8.389043 -5.23241,5.422613 z m 14.34026,-1.4026 c -0.8632,-0.8632 -1.56945,-2.149513 -1.56945,-2.858473 0,-0.70897 -1.08053,-2.88129 -2.40119,-4.82738 -1.68337,-2.480583 -2.08599,-3.85356 -1.3468,-4.592745 2.34626,-2.346262 10.74799,4.692115 10.74799,9.003915 0,3.624503 -3.16949,5.535743 -5.43055,3.274683 z"
       id="path3135"
       inkscape:connector-curvature="0" />
    <path
       style="fill:#000000;fill-opacity:1"
       d="m 85.025553,132.33381 c -13.26368,-2.37563 -25.062,-8.76977 -34.52083,-18.70868 -17.58426,-18.47674 -21.50521,-44.516323 -10.2496,-68.06899 7.1109,-14.87975 23.94885,-28.343616 40.40751,-32.310425 13.53489,-3.2621308 31.524077,-0.669103 43.808297,6.31469 7.27849,4.137948 16.76198,13.112047 21.37404,20.225958 12.34835,19.046825 12.34835,46.109997 0,65.156817 -4.61637,7.12057 -14.10364,16.09517 -21.37404,20.21904 -10.95804,6.21555 -27.743967,9.26741 -39.445377,7.17159 z m 27.527227,-5.62553 c 13.2291,-4.33825 21.73525,-10.70593 29.48422,-22.07181 10.67138,-15.65236 12.97976,-33.884393 6.59803,-52.112616 -2.50384,-7.15174 -9.8749,-18.023051 -15.69186,-23.14334 -19.25115,-16.945545 -48.573197,-19.038631 -69.976557,-4.995116 -11.09065,7.276977 -20.07729,19.480416 -23.91789,32.479376 -2.37683,8.044645 -2.37683,22.955356 0,30.999996 9.3634,31.69153 42.27587,49.08425 73.504057,38.84351 z m -25.939537,-0.37063 c -26.98555,-4.13745 -46.40286,-26.72243 -46.40286,-53.972876 0,-15.022472 5.48781,-28.347404 15.85603,-38.5 21.69167,-21.240546 55.855437,-21.240478 77.096067,1.53e-4 21.2744,21.274409 21.2744,55.725283 0,76.999693 -12.03445,12.03444 -30.00855,18.00906 -46.549237,15.47303 z m 20.021587,-4.05229 c 12.00316,-2.76585 24.20462,-11.49937 31.22269,-22.34846 10.588,-16.36777 10.588,-38.776478 0,-55.144256 -9.73543,-15.049808 -25.1824,-23.42787 -43.194887,-23.42787 -13.49547,0 -24.51822,4.171739 -34.34917,13 -18.39203,16.516175 -22.22053,44.896286 -8.84572,65.572126 6.82466,10.5501 17.8415,18.76412 29.29952,21.84535 6.34975,1.70754 19.528267,1.96386 25.867567,0.50311 z m 4.76324,-18.40944 c -1.01076,-1.38962 -3.25352,-2.70532 -5.25,-3.07986 -2.10118,-0.39418 -3.48544,-1.23702 -3.48544,-2.12218 0,-1.20705 1.1207,-1.34828 6.29876,-0.79376 5.09091,0.54519 6.54933,0.37262 7.60544,-0.89991 1.81165,-2.18291 3.69757,-17.41367 2.32604,-18.7852 -1.60764,-1.60764 -43.230237,0.0197 -43.230237,1.69017 0,0.69609 -0.675,1.52464 -1.5,1.84122 -0.99627,0.3823 -1.51896,2.01338 -1.55644,4.85698 -0.11791,8.9436 -4.56724,15.12352 -9.13023,12.68149 -2.4037,-1.28642 -2.29045,-3.16627 0.33105,-5.49511 1.17941,-1.04775 3.20441,-4.28032 4.5,-7.1835 2.23177,-5.00099 2.35562,-6.38245 2.35562,-26.27568 l 0,-20.997166 2.95034,1.52568 c 2.33659,1.2083 6.84773,1.52568 21.68555,1.52568 17.934117,0 18.835467,-0.09419 21.080087,-2.202902 l 2.34489,-2.202903 3.7029,3.702903 3.7029,3.702902 -13.23333,0 -13.233337,0 0,4 0,4 6.277497,0 c 3.75341,0 7.0788,-0.56126 8.27039,-1.395878 1.76911,-1.239139 2.29939,-1.132238 4.7225,0.952034 1.50129,1.291352 2.72961,2.594497 2.72961,2.895878 0,0.301381 -4.95,0.547966 -11,0.547966 l -10.999997,0 0,4 0,4 5.865137,0 c 4.30847,0 6.52563,-0.519534 8.35366,-1.957467 l 2.48852,-1.957468 2.64634,2.762187 c 1.45549,1.519202 2.64634,3.075062 2.64634,3.457467 0,0.382404 -4.95,0.695281 -11,0.695281 l -10.999997,0 0,4.118919 0,4.118917 9.749997,-0.702561 c 7.75546,-0.558841 10.05685,-1.083972 11.25,-2.567018 1.44451,-1.795486 1.61733,-1.75851 4.67166,0.999552 3.01537,2.722877 3.08383,2.943497 1.38915,4.477167 -1.33643,1.20945 -1.91186,3.6863 -2.29934,9.8972 -0.59419,9.52408 -2.43518,13.87838 -7.06002,16.6983 -3.95076,2.40893 -3.82044,2.42049 -5.96601,-0.52933 z m -17.735437,-32.511146 0,-4 -9,0 -9,0 0,3.333333 c 0,1.833334 0.3,3.633334 0.66667,4 0.36666,0.366663 4.41666,0.666663 9,0.666663 l 8.33333,0 0,-3.999996 z m 0,-11.038933 0,-4.038933 -8.75,0.288933 c -8.29543,0.273923 -8.7671,0.409601 -9.07908,2.611659 -0.66521,4.695164 0.2006,5.177274 9.2977,5.177274 l 8.53138,0 0,-4.038933 z m 0,-10.961067 0,-4 -9,0 -9,0 0,3.333333 c 0,1.833334 0.3,3.633334 0.66667,4 0.36666,0.366667 4.41666,0.666667 9,0.666667 l 8.33333,0 0,-4 z M 81.213543,96.11477 c -2.9199,-9.44772 -3.71955,-12.91469 -3.11758,-13.51666 1.18197,-1.18197 8.56667,7.46238 8.56667,10.02794 0,3.80774 -4.46667,6.66748 -5.44909,3.48872 z m 13.72865,-2.78899 c -0.31829,-1.21712 -1.59113,-4.21275 -2.82855,-6.65696 -2.7345,-5.40132 -1.17333,-6.82743 3.44968,-3.15124 3.78035,3.0061 5.815507,7.48718 4.41243,9.71543 -1.61887,2.57094 -4.37224,2.62168 -5.03356,0.0928 z m 12.818347,-4.15175 c -1.12645,-2.37009 -2.60589,-5.07517 -3.28764,-6.01129 -2.04156,-2.80333 0.0812,-3.4161 4.01035,-1.15765 4.69691,2.69974 7.1154,6.64986 5.5722,9.10105 -2.04369,3.24616 -4.13951,2.60289 -6.29491,-1.93211 z"
       id="path3133"
       inkscape:connector-curvature="0" />
  </g>
</svg>
