<?xml version="1.0" encoding="UTF-8" standalone="no"?>
<!-- Created with Inkscape (http://www.inkscape.org/) -->

<svg
   xmlns:dc="http://purl.org/dc/elements/1.1/"
   xmlns:cc="http://creativecommons.org/ns#"
   xmlns:rdf="http://www.w3.org/1999/02/22-rdf-syntax-ns#"
   xmlns:svg="http://www.w3.org/2000/svg"
   xmlns="http://www.w3.org/2000/svg"
   xmlns:sodipodi="http://sodipodi.sourceforge.net/DTD/sodipodi-0.dtd"
   xmlns:inkscape="http://www.inkscape.org/namespaces/inkscape"
   id="svg3076"
   version="1.1"
   inkscape:version="0.48.2 r9819"
   width="128.20163"
   height="128.2204"
   sodipodi:docname="BlackPawn.svg">
  <metadata
     id="metadata3082">
    <rdf:RDF>
      <cc:Work
         rdf:about="">
        <dc:format>image/svg+xml</dc:format>
        <dc:type
           rdf:resource="http://purl.org/dc/dcmitype/StillImage" />
        <dc:title />
      </cc:Work>
    </rdf:RDF>
  </metadata>
  <defs
     id="defs3080" />
  <sodipodi:namedview
     pagecolor="#ffffff"
     bordercolor="#666666"
     borderopacity="1"
     objecttolerance="10"
     gridtolerance="10"
     guidetolerance="10"
     inkscape:pageopacity="0"
     inkscape:pageshadow="2"
     inkscape:window-width="1027"
     inkscape:window-height="709"
     id="namedview3078"
     showgrid="false"
     inkscape:zoom="3.8688525"
     inkscape:cx="80.500953"
     inkscape:cy="57.054009"
     inkscape:window-x="242"
     inkscape:window-y="148"
     inkscape:window-maximized="0"
     inkscape:current-layer="g3112"
     fit-margin-top="3"
     fit-margin-right="3"
     fit-margin-bottom="3"
     fit-margin-left="3"
     showguides="true"
     inkscape:guide-bbox="true" />
  <g
     inkscape:groupmode="layer"
     id="layer2"
     inkscape:label="LAYER1"
     style="display:inline"
     transform="translate(2.9999999,3.2204009)" />
  <g
     id="g3112"
     transform="translate(77.688321,-24.876597)">
    <path
       style="fill:#ffeeaa;fill-opacity:1"
       d="m -28.026162,148.26864 c -20.813762,-5.03971 -39.205374,-23.28072 -44.647259,-44.28164 -2.019867,-7.794918 -2.019867,-22.743226 0,-30.538144 4.366824,-16.852124 16.872253,-32.083395 32.430276,-39.499189 10.052638,-4.79163 16.292136,-6.231739 26.999996,-6.231739 17.0623903,0 30.67918,5.6522 42.97051,17.836647 12.41389,12.305935 18.00575,25.710733 18.00575,43.163353 0,17.452622 -5.59186,30.857412 -18.00575,43.163352 -8.46004,8.38649 -19.60408,14.65541 -29.76972975,16.74656 -6.96256995,1.43225 -21.34778025,1.24761 -27.98379325,-0.3592 z"
       id="path3118"
       inkscape:connector-curvature="0" />
    <path
       style="fill:#8c8c8c;fill-opacity:1"
       d="m -23.364175,148.98294 c -4.978429,-0.83337 -12.634363,-3.62507 -19.02153,-6.93609 -18.725444,-9.70704 -30.680196,-28.68957 -31.723777,-50.373058 -1.205655,-25.051057 11.477895,-46.539217 33.857668,-57.360832 19.267239,-9.316568 37.6465288,-8.81389 57.113849,1.562079 17.89459,9.537723 30.77379,31.634623 30.77379,52.798753 0,22.754948 -13.19921,43.980048 -33.84588,54.426138 -10.4072399,5.2655 -26.04819,7.74209 -37.15412,5.88301 z m 24.4145598,-5.2873 c 10.8355302,-2.77126 16.9102302,-6.31872 25.6886802,-15.00149 11.55325,-11.42732 16.89676,-24.08354 16.89676,-40.020358 0,-15.936821 -5.34351,-28.593045 -16.89676,-40.020366 -8.77845,-8.682764 -14.85315,-12.230227 -25.6886802,-15.001487 -10.41634,-2.664051 -20.2071598,-2.55187 -30.2127868,0.346171 -10.429532,3.020821 -17.942131,7.634865 -25.549361,15.691758 -10.719666,11.353305 -15.652408,23.638804 -15.652408,38.983924 0,15.345118 4.932742,27.630608 15.652408,38.983918 14.623686,15.48809 34.998908,21.34828 55.7621478,16.03793 z m -25.9145598,-1.19213 c -19.154104,-3.62623 -37.365488,-21.43649 -41.994427,-41.06946 -4.461291,-18.921908 0.889847,-37.38752 14.883677,-51.360333 21.888176,-21.855301 55.3555301,-21.855301 77.21083,0 21.96529,21.965294 21.96529,55.234853 0,77.200143 -13.47851,13.47851 -31.0828702,18.82996 -50.10008,15.22965 z m 21.0663398,-3.90542 C 15.218365,135.15067 31.634975,119.50625 36.096045,100.58072 43.011405,71.243131 23.620385,42.802873 -6.2679952,38.446598 -27.097855,35.410616 -48.409814,46.031285 -58.082979,64.268237 -78.338242,102.45577 -46.313441,146.30567 -3.7978352,138.59809 z m -12.7546498,-28.49029 0.31169,-11.569908 -14.132093,0.21977 c -13.285622,0.2066 -14.260977,0.0909 -16.283909,-1.93205 l -2.151818,-2.15182 16.222222,0 c 13.273138,0 16.222218,-0.25567 16.222218,-1.40638 0,-0.88602 -0.69824,-1.22379 -1.88714,-0.91288 -2.0398,0.53342 -3.76399,-1.16028 -2.17862,-2.1401 0.85953,-0.53121 -0.81879,-3.74287 -5.17797,-9.90867 -1.23549,-1.74753 -1.50553,-1.601277 -4.186533,2.2674 -4.23286,6.10802 -10.534937,11.53543 -11.858079,10.21228 -0.767287,-0.76728 -0.125406,-2.25768 2.240006,-5.20112 3.607543,-4.48911 8.62877,-13.96078 10.075781,-19.006212 l 0.910039,-3.173121 -6.421403,0.515448 c -5.4265,0.435588 -6.685153,0.224008 -8.123728,-1.365599 -1.658823,-1.832979 -1.340608,-1.881047 12.452663,-1.881047 9.216444,0 14.154984,-0.366217 14.154984,-1.04966 0,-0.577313 -0.71329,-2.429019 -1.58509,-4.114902 -2.28833,-4.425126 -0.52996,-5.687696 4.01189,-2.880678 3.2949,2.036358 4.0766998,3.492705 3.64785,6.79524 -0.11588,0.892401 1.7655998,1.25 6.5767998,1.25 5.94521,0 7.0683903,-0.315463 9.5341503,-2.677813 l 2.79504,-2.677813 3.3995599,3.927813 3.39957,3.927813 -8.6002599,0.292001 -8.6002703,0.292002 2.9137,1.911362 c 2.3974403,1.572696 2.6225303,2.023097 1.27037,2.541967 -0.90382,0.346832 -2.34156003,1.696255 -3.19497003,2.998719 -1.51717997,2.315503 -1.42949997,2.449195 3.94643033,6.01753 5.82034,3.86332 7.4135299,6.84336 5.53508,10.35328 -1.70103,3.17841 -3.60241,2.53234 -6.3511803,-2.15808 -1.37026003,-2.33817 -3.47927,-5.14524 -4.68669,-6.23794 l -2.1953,-1.98672 -3.83456,4.48794 -3.8345598,4.48794 2.5117498,1.32675 c 2.40592,1.27085 2.43842,1.40779 0.77124,3.25 -1.7067098,1.88588 -1.5396298,1.92325 8.60001997,1.92325 9.10772033,0 10.60537023,-0.2488 12.56191023,-2.08688 l 2.22138,-2.08687 3.51798,3.83687 3.51799,3.83688 -15.9249199,0.27477 -15.9249101,0.27477 0,10.499978 c 0,10.35091 -0.0364,10.51382 -2.5651,11.47523 -1.4108,0.53638 -2.8733,0.97613 -3.25,0.97721 -0.37669,0.001 -0.54464,-5.2045 -0.37321,-11.56795 z m 7.0297798,-34.434009 c 5.55066,-10.41347 5.77662,-10.006049 -5.5240798,-9.959962 -9.36188,0.03818 -9.68717,0.110634 -7.01081,1.561579 l 2.80657,1.521541 -2.55657,2.011001 c -3.43904,2.705146 -3.22059,4.29234 0.9451,6.866878 3.53147,2.182574 5.28114,5.781494 3.98272,8.192124 -0.38714,0.71876 0.4502,-0.0432 1.86077,-1.69316 1.41056,-1.65 3.88389,-5.475001 5.4962998,-8.500001 z"
       id="path3116"
       inkscape:connector-curvature="0" />
    <path
       style="fill:#000000;fill-opacity:1"
       d="m -23.077764,148.93922 c -13.263677,-2.37563 -25.061997,-8.76977 -34.520829,-18.70868 -17.584257,-18.47674 -21.505209,-44.516329 -10.249598,-68.068997 7.110901,-14.87975 23.94885,-28.343616 40.407507,-32.310425 13.53489,-3.262131 31.5240803,-0.669103 43.8083,6.31469 7.27849,4.137948 16.76198,13.112047 21.37404,20.225958 12.34835,19.046825 12.34835,46.109994 0,65.156824 -4.61637,7.12057 -14.10364,16.09517 -21.37404,20.21904 -10.9580397,6.21555 -27.74396,9.26741 -39.44538,7.17159 z m 27.5272303,-5.62553 c 13.2290997,-4.33825 21.7352497,-10.70593 29.4842197,-22.07181 10.67138,-15.65236 12.97976,-33.884399 6.59803,-52.112623 -2.50384,-7.15174 -9.8749,-18.023051 -15.69186,-23.14334 -19.2511497,-16.945545 -48.5732,-19.038632 -69.976552,-4.995116 -11.09065,7.276977 -20.077294,19.480416 -23.917895,32.479376 -2.376826,8.044644 -2.376826,22.955354 0,31.000003 9.363404,31.69153 42.275877,49.08425 73.5040573,38.84351 z m -25.9395403,-0.37063 c -26.985545,-4.13745 -46.40285,-26.72244 -46.40285,-53.972879 0,-15.022476 5.487806,-28.347408 15.85603,-38.500004 21.691668,-21.240546 55.8554303,-21.240478 77.09606,1.53e-4 21.2744,21.274409 21.2744,55.72528 0,76.99969 -12.03445,12.03445 -30.0085497,18.00907 -46.54924,15.47304 z m 20.0215903,-4.05229 C 10.534686,136.12492 22.736136,127.3914 29.754206,116.54231 c 10.588,-16.36778 10.588,-38.776489 0,-55.144263 -9.73543,-15.049808 -25.1823897,-23.42787 -43.19489,-23.42787 -13.49546,0 -24.518211,4.171739 -34.349162,13 -18.392037,16.516175 -22.220533,44.896284 -8.845724,65.572133 6.824658,10.5501 17.841499,18.76412 29.299516,21.84535 6.34975,1.70754 19.5282703,1.96386 25.8675703,0.50311 z m -14.9722003,-28.47261 0,-11.447979 -14.377551,0 c -11.560099,0 -14.621507,-0.29395 -15.622445,-1.5 -1.097533,-1.32245 0.60432,-1.5 14.377555,-1.5 15.220201,0 15.622441,-0.0543 15.622441,-2.10699 0,-1.44161 -0.46358,-1.9291 -1.46797,-1.54368 -3.02907,1.16236 -2.28753,-1.16068 2.04925,-6.41977 4.46011,-5.40864 10.4187203,-16.040121 10.4187203,-18.589286 0,-1.035802 -2.32853,-1.331183 -10.2500003,-1.30024 -9.76785,0.03815 -10.11742,0.111903 -7.43147,1.56784 l 2.81852,1.527803 -2.56852,2.568523 c -1.41269,1.412688 -2.56853,2.860136 -2.56853,3.216552 0,0.356416 1.36027,1.451561 3.02283,2.433658 4.41672,2.60902 6.39557,5.99529 5.01306,8.57853 -1.69277,3.16297 -3.31017,2.49901 -5.92657,-2.43294 -1.31298,-2.475 -2.88721,-4.47893 -3.49828,-4.45316 -0.61107,0.0258 -2.686036,2.30167 -4.611036,5.05758 -3.886246,5.56371 -8.433504,9.36372 -10.026738,8.37905 -0.623434,-0.3853 0.222469,-2.08131 2.110712,-4.2319 3.210243,-3.65626 10.916026,-18.508525 10.916026,-21.039739 0,-1.082653 -1.445474,-1.319625 -6.472493,-1.061105 -5.126878,0.263655 -6.834607,-0.02926 -8.214286,-1.408937 -1.655723,-1.655724 -1.039406,-1.741793 12.472493,-1.741793 12.954502,0 14.214282,-0.157535 14.214282,-1.777494 0,-0.977621 -0.72707,-2.815543 -1.61573,-4.08427 -2.47525,-3.533923 -0.37329,-4.604037 3.68672,-1.876916 2.23912,1.504026 3.53882,3.246344 3.74544,5.020981 0.31119,2.672803 0.43402,2.717699 7.4355403,2.717699 5.9614,0 7.50046,-0.358241 9.46401,-2.202902 l 2.34489,-2.202903 3.7028997,3.702903 3.7029,3.702902 -8.9833297,0.05245 c -8.44382,0.0493 -8.84874,0.146361 -6.74214997,1.616119 L 2.5416863,69.202414 0.05050633,72.16302 c -1.37015003,1.628333 -2.49038003,3.263579 -2.48940003,3.63388 9.9e-4,0.370301 2.05451003,1.970141 4.56339,3.555201 2.50888,1.58506 5.25983,3.94756 6.11322,5.25 1.40823,2.14923 1.40024,2.59911 -0.0864,4.86807 -0.90093,1.375 -1.81319,2.5 -2.02723,2.5 -0.21404,0 -2.47641,-2.925 -5.02747,-6.5 -2.55107,-3.575 -4.81582,-6.5 -5.03278,-6.5 -0.21696,0 -2.41629,2.1375 -4.88739,4.75 l -4.4929103,4.75 3.18792,1.67097 c 2.6725903,1.40086 2.9050203,1.78186 1.4379003,2.35699 -0.9625,0.37731 -1.7500003,1.31288 -1.7500003,2.07903 0,1.0949 2.0748703,1.39302 9.69528033,1.39302 9.02753997,0 9.87843997,-0.17547 12.35451967,-2.54771 l 2.65924,-2.54772 3.33619,3.79772 3.3362,3.79771 -15.6907197,0.27539 -15.6907103,0.27539 0,10.376789 0,10.37678 -3,1.0458 -3,1.04581 0,-11.44798 z"
       id="path3114"
       inkscape:connector-curvature="0" />
  </g>
</svg>
