<?xml version="1.0" encoding="UTF-8" standalone="no"?>
<!-- Created with Inkscape (http://www.inkscape.org/) -->

<svg
   xmlns:dc="http://purl.org/dc/elements/1.1/"
   xmlns:cc="http://creativecommons.org/ns#"
   xmlns:rdf="http://www.w3.org/1999/02/22-rdf-syntax-ns#"
   xmlns:svg="http://www.w3.org/2000/svg"
   xmlns="http://www.w3.org/2000/svg"
   xmlns:sodipodi="http://sodipodi.sourceforge.net/DTD/sodipodi-0.dtd"
   xmlns:inkscape="http://www.inkscape.org/namespaces/inkscape"
   id="svg3076"
   version="1.1"
   inkscape:version="0.48.2 r9819"
   width="128.28036"
   height="128.00664"
   sodipodi:docname="WhiteElephant.svg">
  <metadata
     id="metadata3082">
    <rdf:RDF>
      <cc:Work
         rdf:about="">
        <dc:format>image/svg+xml</dc:format>
        <dc:type
           rdf:resource="http://purl.org/dc/dcmitype/StillImage" />
        <dc:title />
      </cc:Work>
    </rdf:RDF>
  </metadata>
  <defs
     id="defs3080" />
  <sodipodi:namedview
     pagecolor="#ffffff"
     bordercolor="#666666"
     borderopacity="1"
     objecttolerance="10"
     gridtolerance="10"
     guidetolerance="10"
     inkscape:pageopacity="0"
     inkscape:pageshadow="2"
     inkscape:window-width="1027"
     inkscape:window-height="709"
     id="namedview3078"
     showgrid="false"
     inkscape:zoom="2.9259416"
     inkscape:cx="80.486331"
     inkscape:cy="57.043811"
     inkscape:window-x="189"
     inkscape:window-y="75"
     inkscape:window-maximized="0"
     inkscape:current-layer="svg3076"
     fit-margin-top="3"
     fit-margin-right="3"
     fit-margin-bottom="3"
     fit-margin-left="3" />
  <g
     inkscape:groupmode="layer"
     id="layer2"
     inkscape:label="LAYER1"
     style="display:inline"
     transform="translate(2.9999995,3.0066323)" />
  <g
     id="g3111">
    <path
       style="fill:#ffeeaa;fill-opacity:1"
       d="M 49.716983,123.2092 C 33.811072,119.35784 17.144961,106.06342 10.164485,91.65849 5.322809,81.66719 3.5,74.00889 3.5,63.658486 3.5,46.598592 9.367637,32.551221 21.529485,20.495133 29.989538,12.108649 41.133569,5.8397269 51.299221,3.7485759 c 7.666593,-1.577077 21.450793,-1.338095 28.556433,0.495094 13.93484,3.59506 29.747536,15.2383551 37.073476,27.2981441 6.07794,10.005378 8.57087,19.346849 8.57087,32.116672 0,12.769824 -2.49293,22.111294 -8.57087,32.116674 -7.45235,12.26789 -23.658336,24.07552 -37.532246,27.34589 -7.67992,1.81032 -22.38706,1.854 -29.679901,0.0881 z"
       id="path3119"
       inkscape:connector-curvature="0" />
    <path
       style="fill:#ffaaaa;fill-opacity:1"
       d="M 50.213652,123.32117 C 27.441734,117.55796 9.7267077,99.156201 4.4751507,75.809591 c -1.300201,-5.78025 -1.300201,-18.219756 0,-24.000004 C 10.968418,22.942757 35.553401,2.8807476 64.504069,2.8243676 c 16.49596,-0.03213 31.4957,6.339849 43.530371,18.4919454 11.57219,11.685107 17.3796,25.884273 17.3796,42.493274 0,21.035164 -10.09311,39.573093 -27.861021,51.172103 -4.06582,2.6542 -10.37287,5.77949 -14.01569,6.94511 -8.58284,2.74631 -25.22955,3.44286 -33.323677,1.39437 z m 27.147497,-4.06074 c 10.77077,-2.53869 18.73184,-7.0565 27.156131,-15.41078 11.55718,-11.461149 16.89676,-24.114289 16.89676,-40.040063 0,-15.925774 -5.33958,-28.578916 -16.89676,-40.040059 C 96.092989,15.415243 88.131919,10.897433 77.361149,8.3587436 45.404677,0.82655158 12.864648,23.031764 8.1919447,55.559587 2.5194757,95.047021 38.704949,128.37176 77.361149,119.26043 z m -25.674962,-1.8877 C 31.932855,112.58625 14.597462,94.751031 10.51101,75.010361 3.5232697,41.25428 30.14884,8.7419746 64.713259,8.8243676 c 16.28697,0.03882 31.90567,7.5806764 42.745371,20.6405904 15.94184,19.207115 15.94184,49.482143 0,68.689253 C 93.716799,114.7107 71.827959,122.25333 51.686187,117.37273 z m 22.294192,-3.63884 c 23.47474,-4.2557 41.433661,-25.894779 41.433661,-49.924303 0,-34.722122 -34.624651,-59.3107794 -67.561615,-47.978803 -7.945535,2.733665 -14.391827,7.081077 -20.861512,14.069109 -17.8179953,19.245561 -17.8179953,48.573828 0,67.819388 12.767833,13.790789 28.909926,19.292219 46.989466,16.014609 z M 45.190428,82.292891 44.914035,67.894939 l -5,6.606022 c -5.608426,7.40987 -7.911399,9.29723 -9.457727,7.7509 -0.683698,-0.6837 0.153347,-2.74436 2.57612,-6.34197 4.00625,-5.94895 9.919486,-18.063739 10.978035,-22.491351 l 0.691189,-2.891048 -5.110413,0.491046 c -4.42601,0.425284 -5.406078,0.176326 -7.318123,-1.858952 l -2.207709,-2.349999 7.674314,0 7.674314,0 0,-9.452118 0,-9.452118 4.5,1.667818 c 4.890634,1.812596 5.271864,2.350942 3.000004,4.236418 -1.021996,0.848178 -1.500004,3.117902 -1.500004,7.122445 0,5.703211 0.07924,5.877555 2.671264,5.877555 1.46919,0 3.4989,-0.749012 4.51047,-1.66447 1.72592,-1.561929 1.99259,-1.520387 4.32874,0.674314 l 2.48953,2.338784 0,-7.789324 0,-7.789324 2.46481,1.61501 c 3.43975,2.253813 19.71246,2.311258 21.56745,0.07614 1.12779,-1.358905 1.609,-1.220936 4.11477,1.179739 2.60125,2.492157 2.70737,2.862529 1.27404,4.446343 -1.34593,1.487235 -1.53187,5.30838 -1.33584,27.451333 l 0.22772,25.723599 -2.40648,1.3335 c -3.53276,1.95759 -3.90647,1.75711 -3.90647,-2.09564 l 0,-3.5 -8,0 c -7.83622,0 -8,0.0505 -8,2.46481 0,2.31001 -2.42098,4.53519 -4.93426,4.53519 -0.72275,0 -1.06574,-7.24138 -1.06574,-22.5 l 0,-22.500004 -7,0 c -6.638333,0 -7.000004,0.118873 -7.000004,2.300734 0,1.734302 1.101624,2.835946 4.474584,4.474657 4.88927,2.37539 6.48575,5.561694 4.57526,9.131468 -1.54537,2.887555 -2.84906,2.623465 -4.84635,-0.981732 -4.252884,-7.676633 -4.322255,-7.487656 -4.003673,10.906617 l 0.300179,17.33175 -3.223607,1.35888 -3.223607,1.35888 -0.276393,-14.39795 z m 42.223611,-4.4833 0,-7 -8,0 -8,0 0,7 0,7 8,0 8,0 0,-7 z m 0,-16.000004 0,-6 -8,0 -8,0 0,6 0,6 8,0 8,0 0,-6 z m 0,-16 0,-6 -8,0 -8,0 0,6 0,6 8,0 8,0 0,-6 z"
       id="path3117"
       inkscape:connector-curvature="0" />
    <path
       style="fill:#be0006;fill-opacity:1"
       d="M 51.238092,123.16069 C 38.13872,120.33712 24.223917,111.42904 16.046906,100.63173 -13.386072,61.767079 11.987463,6.3738875 60.738096,3.0660035 c 15.03679,-1.020295 32.75467,5.048068 44.200664,15.1386965 6.98787,6.160418 14.38365,17.478505 17.35972,26.566329 3.49457,10.671179 3.49457,27.228288 0,37.899468 -9.57046,29.224753 -40.791724,47.014613 -71.060388,40.490193 z m 25.200774,-3.53001 c 19.91266,-4.09618 37.208834,-20.446953 43.202884,-40.841413 2.11031,-7.18023 2.11031,-22.956781 0,-30.137003 C 114.98371,32.803504 103.96604,19.511459 89.935806,12.814126 72.527086,4.5040655 55.555946,4.5343235 38.238092,12.906296 28.813643,17.462361 17.636331,28.886707 12.981827,38.720761 2.143764,61.619463 6.328542,86.040717 24.134852,103.80685 c 8.080708,8.06248 15.851742,12.62665 26.10324,15.33126 6.639454,1.75165 18.954544,1.98318 26.200774,0.49257 z m -23.20077,-2.46999 C 27.748543,111.66642 9.877307,89.641037 9.877307,63.720763 c 0,-26.610349 18.062833,-48.218977 44.860789,-53.667107 17.21382,-3.4996385 35.61014,2.37785 48.410814,15.466903 3.62406,3.705698 7.83652,9.058177 9.36104,11.894396 3.55164,6.607486 6.72815,19.027036 6.72815,26.305808 0,7.278774 -3.17651,19.698324 -6.72815,26.305804 -4.62352,8.60162 -14.503644,17.770603 -24.271854,22.524863 -12.32648,5.99938 -22.39771,7.32569 -35,4.60926 z m 23.86903,-3.89268 c 12.59605,-3.35256 23.293924,-11.10459 30.325864,-21.975113 10.588,-16.36778 10.588,-38.776486 0,-55.144264 C 91.865066,12.082507 59.576306,5.4416385 35.578783,21.370289 5.899089,41.070548 5.894729,86.368087 35.570583,106.06583 c 11.780228,7.81927 28.394414,10.70007 41.536494,7.20218 z M 45.575079,80.720767 c 0.357087,-8.25 0.432991,-15.000004 0.168676,-15.000004 -0.264316,0 -1.649271,1.851336 -3.077679,4.114084 -3.021171,4.78584 -10.284848,12.88592 -11.555344,12.88592 -1.643848,0 -0.862731,-2.50199 2.185391,-7 4.143181,-6.11396 7.841712,-13.3955 10.020249,-19.727528 l 1.813997,-5.272476 -5.746138,0 c -5.254654,0 -8.146139,-1.135845 -8.146139,-3.2 0,-0.44 3.439566,-0.8 7.64348,-0.8 l 7.643479,0 -0.67941,-9 c -0.397308,-5.263055 -0.299983,-9 0.234397,-9 0.502593,0 2.641668,0.721947 4.753498,1.604326 3.43655,1.435884 3.65936,1.736188 2.12212,2.860243 -1.300553,0.950991 -1.717564,2.746596 -1.717564,7.395674 0,6.097229 0.01993,6.139757 2.877554,6.139757 1.58266,0 3.43239,-0.668538 4.11053,-1.48564 1.07785,-1.298733 1.56504,-1.223865 3.87244,0.595096 l 2.63948,2.080735 0.29134,-7.555253 0.29135,-7.555252 3.20865,1.956419 c 4.68833,2.858621 17.62182,2.822314 20.22737,-0.05678 1.82734,-2.019191 1.83077,-2.018675 4.67024,0.701709 2.36923,2.269866 2.58969,2.863338 1.3263,3.570366 -1.29403,0.724177 -1.51525,4.70453 -1.51525,27.263106 0,25.092408 -0.0969,26.466968 -1.93426,27.450308 -3.12737,1.67372 -4.06574,1.22024 -4.06574,-1.96481 l 0,-3 -8,0 c -7.7203,0 -8,0.0818 -8,2.33948 0,1.97784 -3.19299,4.66052 -5.54706,4.66052 -0.24912,0 -0.45294,-10.125 -0.45294,-22.5 l 0,-22.500004 -7,0 c -6.784704,0 -7.000004,0.07627 -7.000004,2.479676 0,1.882697 0.954944,2.966853 3.966564,4.503266 4.83612,2.467204 6.54605,5.190714 5.03344,8.017058 -1.59766,2.985254 -3.79662,2.422536 -5.38455,-1.377923 -3.03973,-7.275089 -3.615454,-5.319021 -3.615454,12.283717 0,15.80751 -0.1382,17.0978 -1.934259,18.05902 -4.288881,2.29534 -4.412507,1.83234 -3.728754,-13.96481 z m 41.663017,-2.5 0,-7.5 -8,0 -8,0 0,7.5 0,7.5 8,0 8,0 0,-7.5 z m 0,-16.500004 0,-6 -8,0 -8,0 0,6 0,6 8,0 8,0 0,-6 z m 0,-15.5 0,-6.5 -8,0 -8,0 0,6.5 0,6.5 8,0 8,0 0,-6.5 z"
       id="path3115"
       inkscape:connector-curvature="0" />
    <path
       style="fill:#000000;fill-opacity:1"
       d="M 54.237712,123.94203 C 24.673097,118.64734 3.5,93.623829 3.5,63.977495 3.5,47.997453 8.704674,34.719666 19.568001,22.985976 43.082713,-2.4127189 82.437342,-3.2648059 106.68942,21.099666 c 25.65423,25.773134 23.62735,66.530683 -4.47479,89.981234 -5.475608,4.56927 -16.559318,10.11957 -23.539428,11.78765 -6.84856,1.63665 -18.44778,2.14618 -24.43749,1.07348 z m 27.67766,-5.5756 c 19.205298,-6.00261 34.276598,-22.793921 38.495598,-42.888931 1.8531,-8.826246 1.8531,-14.173762 0,-23.000004 C 115.88518,30.921257 98.229422,12.813447 76.982582,7.9371701 54.858752,2.8596191 30.508993,12.07622 17.358074,30.505581 -0.981419,56.206078 4.914282,92.458649 30.35575,110.42809 c 15.491109,10.94145 33.218512,13.67084 51.559622,7.93834 z"
       id="path3113"
       inkscape:connector-curvature="0" />
  </g>
</svg>
