<?xml version="1.0" encoding="UTF-8" standalone="no"?>
<!-- Created with Inkscape (http://www.inkscape.org/) -->

<svg
   xmlns:dc="http://purl.org/dc/elements/1.1/"
   xmlns:cc="http://creativecommons.org/ns#"
   xmlns:rdf="http://www.w3.org/1999/02/22-rdf-syntax-ns#"
   xmlns:svg="http://www.w3.org/2000/svg"
   xmlns="http://www.w3.org/2000/svg"
   xmlns:sodipodi="http://sodipodi.sourceforge.net/DTD/sodipodi-0.dtd"
   xmlns:inkscape="http://www.inkscape.org/namespaces/inkscape"
   id="svg3076"
   version="1.1"
   inkscape:version="0.48.2 r9819"
   width="128.28036"
   height="128.00664"
   sodipodi:docname="WhiteKnight.svg">
  <metadata
     id="metadata3082">
    <rdf:RDF>
      <cc:Work
         rdf:about="">
        <dc:format>image/svg+xml</dc:format>
        <dc:type
           rdf:resource="http://purl.org/dc/dcmitype/StillImage" />
        <dc:title />
      </cc:Work>
    </rdf:RDF>
  </metadata>
  <defs
     id="defs3080" />
  <sodipodi:namedview
     pagecolor="#ffffff"
     bordercolor="#666666"
     borderopacity="1"
     objecttolerance="10"
     gridtolerance="10"
     guidetolerance="10"
     inkscape:pageopacity="0"
     inkscape:pageshadow="2"
     inkscape:window-width="1027"
     inkscape:window-height="709"
     id="namedview3078"
     showgrid="false"
     inkscape:zoom="2.9259416"
     inkscape:cx="121.90322"
     inkscape:cy="57.043811"
     inkscape:window-x="145"
     inkscape:window-y="0"
     inkscape:window-maximized="0"
     inkscape:current-layer="svg3076"
     fit-margin-top="3"
     fit-margin-right="3"
     fit-margin-bottom="3"
     fit-margin-left="3" />
  <g
     inkscape:groupmode="layer"
     id="layer2"
     inkscape:label="LAYER1"
     style="display:inline"
     transform="translate(2.9999995,3.0066313)" />
  <g
     id="g3147">
    <path
       style="fill:#ffeeaa;fill-opacity:1"
       d="M 49.716988,123.2092 C 33.811072,119.35784 17.144961,106.06342 10.164486,91.65849 5.322809,81.66719 3.5,74.00889 3.5,63.658486 3.5,46.598592 9.367637,32.551221 21.529485,20.495133 29.989538,12.108649 41.133568,5.8397269 51.299218,3.7485759 c 7.6666,-1.577077 21.4508,-1.338095 28.55644,0.495094 13.93483,3.59506 29.747532,15.2383551 37.073472,27.2981441 6.07794,10.005378 8.57087,19.346849 8.57087,32.116672 0,12.769824 -2.49293,22.111294 -8.57087,32.116674 -7.45235,12.26789 -23.658332,24.07552 -37.532242,27.34589 -7.67992,1.81032 -22.38706,1.854 -29.67991,0.0881 z"
       id="path3155"
       inkscape:connector-curvature="0" />
    <path
       style="fill:#ffaaaa;fill-opacity:1"
       d="M 50.213653,123.32117 C 27.441734,117.55796 9.7267077,99.156201 4.4751507,75.809591 c -1.3002009,-5.78025 -1.3002009,-18.219756 0,-24.000004 C 10.968418,22.942757 35.553401,2.8807476 64.504073,2.8243676 c 16.49596,-0.03212 31.4957,6.339849 43.530357,18.4919454 11.57219,11.685107 17.3796,25.884273 17.3796,42.493274 0,21.035164 -10.09311,39.573093 -27.861007,51.172103 -4.06582,2.6542 -10.37288,5.77949 -14.01569,6.94511 -8.58284,2.74631 -25.22955,3.44286 -33.32368,1.39437 z m 27.14749,-4.06074 c 10.77078,-2.53869 18.73184,-7.0565 27.156127,-15.41078 11.55718,-11.461149 16.89676,-24.114289 16.89676,-40.040063 0,-15.925774 -5.33958,-28.578916 -16.89676,-40.040059 C 96.092983,15.415243 88.131923,10.897433 77.361143,8.3587436 45.404673,0.82655158 12.864648,23.031764 8.1919459,55.559587 2.5194757,95.047021 38.704953,128.37176 77.361143,119.26043 z m -25.67496,-1.8877 C 31.932855,112.58625 14.597462,94.751031 10.51101,75.010371 3.5232698,41.25428 30.14884,8.7419746 64.713253,8.8243676 c 16.28698,0.03882 31.90568,7.5806764 42.745367,20.6405904 15.94184,19.207115 15.94184,49.482143 0,68.689253 C 93.716793,114.7107 71.827953,122.25333 51.686183,117.37273 z m 22.29419,-3.63884 c 23.47475,-4.2557 41.433657,-25.894779 41.433657,-49.924303 0,-34.722122 -34.624647,-59.3107794 -67.561607,-47.978803 -7.94553,2.733665 -14.391825,7.081077 -20.86151,14.069109 -17.8179952,19.245561 -17.8179952,48.573828 0,67.819388 12.76783,13.790789 28.90993,19.292219 46.98946,16.014609 z m 5.93018,-16.935269 c -0.35104,-1.10603 -2.06886,-2.74804 -3.81739,-3.64891 -4.44289,-2.28906 -6.97319,-6.38377 -10.25175,-16.59012 -0.96439,-3.00218 2.49651,-2.02611 6.29916,1.77653 3.03962,3.03962 3.44984,3.99914 2.97108,6.94939 -0.54966,3.38714 -0.50999,3.42967 3.80247,4.07636 5.05527,0.75809 6.49991,0.14326 6.49991,-2.76629 0,-1.97867 -0.1039,-2.00194 -1.85662,-0.41575 -2.26248,2.04751 -2.8751,1.40291 -5.98809,-6.30068 -2.88824,-7.14741 -1.51722,-8.78194 3.38265,-4.03279 1.94801,1.88808 3.84007,4.56471 4.20458,5.94805 0.60091,2.28046 0.73179,2.1419 1.40249,-1.48482 1.68742,-9.12446 2.647,-8.5 -13.06168,-8.5 -7.65416,0 -14.06666,0.38038 -14.24999,0.84529 -0.18334,0.46491 -1.57084,1.14848 -3.08334,1.51905 l -2.75,0.67376 0,-20.027526 c 0,-19.654163 -0.0366,-20.004662 -1.9638,-18.801108 -1.0801,0.67453 -3.119,3.890052 -4.53089,7.145605 -2.34847,5.415123 -2.43304,6.067302 -0.99302,7.6585 1.41321,1.56158 1.41636,1.799826 0.0309,2.331485 -1.30559,0.500999 -1.54318,3.161229 -1.54318,17.278544 0,16.20916 0.0532,16.63819 1.86149,15.00174 1.02382,-0.92654 2.66717,-3.47128 3.65188,-5.65498 2.46778,-5.47257 4.48663,-5.2119 4.48663,0.5793 0,7.75289 -4.02282,12.69595 -8.35796,10.26988 -1.35586,-0.75877 -1.64204,-0.41539 -1.64204,1.97025 0,2.1256 -0.67315,3.19589 -2.54705,4.04969 -1.40088,0.63828 -2.75088,1.16052 -3,1.16052 -0.24912,0 -0.46638,-8.6625 -0.48279,-19.25 l -0.0298,-19.250004 -3.720159,4.246163 c -2.58571,2.951312 -4.125261,3.985843 -5.048598,3.392504 -1.044889,-0.671448 -0.671756,-1.920906 1.748128,-5.85372 3.962506,-6.439894 8.214799,-15.951327 11.080659,-24.784947 1.24904,-3.85 2.39993,-7.152504 2.55755,-7.338897 0.15761,-0.186393 2.00757,0.830561 4.11103,2.259898 2.10346,1.429337 3.97373,2.151025 4.15615,1.60375 0.19846,-0.595367 1.48526,-0.398508 3.20364,0.490102 2.06143,1.066006 6.18389,1.485147 14.60717,1.485147 10.72074,0 11.93801,-0.190516 14.0811,-2.203852 l 2.3459,-2.203852 4.20385,4.203852 4.20385,4.203852 -10.23529,0 -10.2353,0 0,3.5 c 0,3.267525 0.21159,3.5 3.18555,3.5 1.7993,0 4.10338,-0.862257 5.29469,-1.98143 l 2.10913,-1.98143 3.70532,3.054234 c 2.03792,1.679828 3.70531,3.471472 3.70531,3.98143 0,0.509958 -4.05,0.927196 -9,0.927196 l -9,0 0,3.5 c 0,3.267525 0.21159,3.5 3.18555,3.5 1.8047,0 4.10444,-0.863249 5.30538,-1.991475 l 2.11982,-1.991475 3.89758,3.991475 3.89757,3.991475 -9.20295,0 -9.20295,0 0,3.5 0,3.500004 6.17126,0 c 3.99043,0 6.73802,-0.512913 7.77506,-1.451422 1.41587,-1.281349 1.98873,-1.150162 4.88894,1.119589 3.21485,2.516003 3.24426,2.609093 1.37441,4.351123 -1.19451,1.11285 -2.14649,3.78562 -2.5397,7.13041 -0.34593,2.94266 -1.33054,7.7125 -2.18801,10.59964 -1.32119,4.44846 -2.15735,5.55457 -5.48066,7.25 -4.81004,2.45389 -4.72262,2.45406 -5.50478,-0.0103 z m -13.24652,-28.97538 c 2.47359,-0.0123 2.75,-0.365449 2.75,-3.513654 l 0,-3.5 -5,0 -5,0 0,4.116631 c 0,3.781093 0.1834,4.067483 2.25,3.513653 1.2375,-0.33163 3.4875,-0.60912 5,-0.61663 z m 2.75,-14.513654 0,-3.5 -5,0 -5,0 0,3.5 0,3.5 5,0 5,0 0,-3.5 z m 0,-11 0,-3.5 -5,0 -5,0 0,3.5 0,3.5 5,0 5,0 0,-3.5 z m -8.6492,48.657484 c -1.16092,-0.78866 -3.69925,-14.14236 -2.84972,-14.99189 1.11459,-1.11459 3.9252,1.49993 6.16441,5.73434 1.81328,3.42898 2.02988,4.67455 1.14905,6.60776 -1.19215,2.61648 -2.96424,3.66844 -4.46374,2.64979 z"
       id="path3153"
       inkscape:connector-curvature="0" />
    <path
       style="fill:#be0006;fill-opacity:1"
       d="m 51.238088,123.16069 c -13.09937,-2.82357 -27.01417,-11.73165 -35.19118,-22.52896 -29.43298,-38.864649 -4.05945,-94.2578407 44.69118,-97.5657247 15.0368,-1.020295 32.75468,5.048068 44.200662,15.1386967 6.98787,6.160418 14.38365,17.478505 17.35972,26.566329 3.49457,10.671179 3.49457,27.228288 0,37.899468 -9.57046,29.224751 -40.791712,47.014611 -71.060382,40.490191 z m 25.20078,-3.53001 c 19.91265,-4.09618 37.208822,-20.446951 43.202872,-40.841421 2.11031,-7.18022 2.11031,-22.956771 0,-30.136993 -4.65804,-15.84876 -15.67571,-29.140805 -29.705932,-35.838138 -17.40872,-8.3100607 -34.37987,-8.2798027 -51.69772,0.09217 -9.42445,4.556065 -20.60176,15.980411 -25.25626,25.814465 -10.8380596,22.898702 -6.6532896,47.319954 11.15302,65.086087 8.08071,8.06248 15.85174,12.62665 26.10324,15.33126 6.63945,1.75165 18.95454,1.98318 26.20078,0.49257 z m -23.20078,-2.46999 C 27.748538,111.66642 9.8773084,89.641039 9.8773084,63.720765 c 0,-26.610349 18.0628296,-48.218977 44.8607796,-53.667107 17.21383,-3.4996387 35.61014,2.37785 48.410812,15.466903 3.62406,3.705698 7.83652,9.058177 9.36104,11.894396 3.55164,6.607486 6.72815,19.027036 6.72815,26.305808 0,7.278774 -3.17651,19.698324 -6.72815,26.305804 -4.62352,8.60162 -14.503632,17.770601 -24.271852,22.524861 -12.32647,5.99938 -22.3977,7.32569 -35,4.60926 z m 23.86904,-3.89268 c 12.59605,-3.35256 23.293922,-11.10459 30.325852,-21.975111 10.588,-16.36778 10.588,-38.776486 0,-55.144264 C 91.865058,12.082509 59.576308,5.4416403 35.578778,21.370291 5.8990884,41.07055 5.8947284,86.368089 35.570778,106.06583 c 11.78023,7.81927 28.39441,10.70007 41.5365,7.20218 z m -38.86904,-35.175851 0,-19.628611 -3.9003,4.378608 c -4.53088,5.086513 -6.49753,4.542932 -3.22143,-0.890411 3.73454,-6.19367 8.71098,-17.313731 11.18277,-24.988388 1.28294,-3.983426 2.70989,-7.242592 3.17098,-7.242592 0.46109,0 2.03993,0.7875 3.50852,1.75 3.30377,2.165252 4.5129,2.329506 21.30893,2.894698 12.75068,0.429065 13.66017,0.333626 15.42714,-1.618854 l 1.87767,-2.074798 3.32286,3.220644 c 1.82757,1.771354 3.32286,3.582369 3.32286,4.024477 0,0.442108 -4.275,0.803833 -9.5,0.803833 l -9.5,0 0,3.5 c 0,3.364432 0.1422,3.5 3.67126,3.5 2.04431,0 4.49931,-0.749378 5.53978,-1.690989 1.77198,-1.603614 2.0334,-1.526109 5.05951,1.5 l 3.19099,3.190989 -8.73077,0 -8.73077,0 0,4 c 0,3.825781 0.13812,4 3.17126,4 1.74419,0 3.96611,-0.719325 4.93758,-1.5985 1.63248,-1.477367 2.04982,-1.382643 5.50734,1.25 l 3.74101,2.8485 -8.67859,0.288933 -8.6786,0.288933 0,4.599956 0,4.599952 6.07388,-0.55076 c 3.43334,-0.31132 6.83309,-1.237837 7.82026,-2.131211 1.60808,-1.455296 1.95786,-1.359721 4.41682,1.206881 2.27503,2.37461 2.46859,3.00279 1.30723,4.24233 -0.74977,0.80024 -2.08351,5.49399 -2.96387,10.43056 -1.69165,9.48587 -3.77397,13.45947 -7.80674,14.89723 -2.03334,0.72492 -2.97722,0.34371 -5.57093,-2.25 -1.71754,-1.71754 -3.83242,-3.1228 -4.69973,-3.1228 -0.8673,0 -1.57692,-0.675 -1.57692,-1.5 0,-0.825 -0.44143,-1.5 -0.98095,-1.5 -0.53952,0 -1.27837,-1.2375 -1.6419,-2.75 -0.36352,-1.5125 -1.49375,-4.41301 -2.51161,-6.44558 -2.54162,-5.07536 -0.6248,-5.93266 3.76075,-1.68202 3.88169,3.76228 5.16196,7.22289 3.43982,9.29795 -0.95085,1.14569 -0.24247,1.59056 3.9719,2.49438 2.82102,0.605 5.48952,0.87727 5.92999,0.60504 0.44047,-0.27222 1.32929,-3.53804 1.97514,-7.25736 0.64586,-3.71933 1.38144,-7.77491 1.63463,-9.01241 l 0.46034,-2.25 -14.46004,0 c -8.56133,0 -14.71215,0.40793 -15.07807,1 -0.33992,0.55 -1.74065,1 -3.11273,1 l -2.49471,0 0.68567,-10.835929 c 0.37711,-5.959758 0.35867,-14.761353 -0.041,-19.559099 -0.694,-8.331365 -0.81309,-8.664374 -2.65129,-7.414075 -1.05855,0.720004 -3.24247,4.112374 -4.85314,7.538598 -2.69098,5.724225 -2.7908,6.31698 -1.23067,7.308041 1.22708,0.77949 1.35125,1.224191 0.44784,1.603834 -0.93227,0.391774 -1.25,4.967252 -1.25,18.00098 0,11.82252 0.33579,17.26815 1.03802,16.83415 0.57091,-0.35284 2.43084,-3.10947 4.13317,-6.12585 3.68151,-6.52326 5.3739,-5.94937 4.35265,1.47599 -0.80589,5.85952 -3.26159,8.6478 -6.9888,7.9353 -2.10485,-0.40237 -2.53504,-0.10341 -2.53504,1.76172 0,1.89472 -3.57407,5.47634 -5.46481,5.47634 -0.29436,0 -0.53519,-8.83288 -0.53519,-19.62861 z m 31,-13.871394 0,-4.5 -5,0 -5,0 0,4.5 0,4.500004 5,0 5,0 0,-4.500004 z m 0,-11.5 0,-4 -5,0 -5,0 0,4 0,4 5,0 5,0 0,-4 z m 0,-10.5 0,-3.5 -5,0 -5,0 0,3.5 0,3.5 5,0 5,0 0,-3.5 z m -9.45673,47.250004 c -0.3946,-1.25201 -1.90067,-10.44256 -1.99377,-12.16667 -0.0272,-0.50417 0.47875,-1.09275 1.12438,-1.30796 1.4092,-0.46973 6.32612,7.58441 6.32612,10.36248 0,3.50263 -4.521,6.0811 -5.45673,3.11215 z m 18.19003,-8.94717 c -3.04176,-6.88223 -2.46039,-8.94921 1.61536,-5.74322 3.92927,3.09076 5.97397,7.46902 4.64651,9.94942 -1.79145,3.34734 -3.40137,2.26593 -6.26187,-4.2062 z"
       id="path3151"
       inkscape:connector-curvature="0" />
    <path
       style="fill:#000000;fill-opacity:1"
       d="M 54.237706,123.94203 C 24.673097,118.64734 3.5,93.623829 3.5,63.977495 3.5,47.997453 8.704674,34.719666 19.568001,22.985976 43.082716,-2.4127189 82.437346,-3.2648059 106.68942,21.099666 c 25.65423,25.773134 23.62735,66.530683 -4.47478,89.981234 -5.475614,4.56927 -16.559334,10.11957 -23.539444,11.78765 -6.84855,1.63665 -18.44777,2.14618 -24.43749,1.07348 z m 27.67766,-5.5756 c 19.205314,-6.00261 34.276604,-22.793921 38.495604,-42.888931 1.8531,-8.826246 1.8531,-14.173762 0,-23.000004 C 115.88518,30.921257 98.229426,12.813447 76.982576,7.9371701 54.858746,2.8596191 30.508993,12.07622 17.358074,30.505581 -0.981419,56.206078 4.914282,92.458649 30.35575,110.42809 c 15.491106,10.94145 33.218506,13.67084 51.559616,7.93834 z"
       id="path3149"
       inkscape:connector-curvature="0" />
  </g>
</svg>
