<?xml version="1.0" encoding="UTF-8" standalone="no"?>
<!-- Created with Inkscape (http://www.inkscape.org/) -->

<svg
   xmlns:dc="http://purl.org/dc/elements/1.1/"
   xmlns:cc="http://creativecommons.org/ns#"
   xmlns:rdf="http://www.w3.org/1999/02/22-rdf-syntax-ns#"
   xmlns:svg="http://www.w3.org/2000/svg"
   xmlns="http://www.w3.org/2000/svg"
   xmlns:sodipodi="http://sodipodi.sourceforge.net/DTD/sodipodi-0.dtd"
   xmlns:inkscape="http://www.inkscape.org/namespaces/inkscape"
   id="svg3076"
   version="1.1"
   inkscape:version="0.48.2 r9819"
   width="128.28036"
   height="128.00664"
   sodipodi:docname="WhitePawn.svg">
  <metadata
     id="metadata3082">
    <rdf:RDF>
      <cc:Work
         rdf:about="">
        <dc:format>image/svg+xml</dc:format>
        <dc:type
           rdf:resource="http://purl.org/dc/dcmitype/StillImage" />
        <dc:title />
      </cc:Work>
    </rdf:RDF>
  </metadata>
  <defs
     id="defs3080" />
  <sodipodi:namedview
     pagecolor="#ffffff"
     bordercolor="#666666"
     borderopacity="1"
     objecttolerance="10"
     gridtolerance="10"
     guidetolerance="10"
     inkscape:pageopacity="0"
     inkscape:pageshadow="2"
     inkscape:window-width="1027"
     inkscape:window-height="709"
     id="namedview3078"
     showgrid="false"
     inkscape:zoom="3.6006072"
     inkscape:cx="134.80412"
     inkscape:cy="80.352127"
     inkscape:window-x="251"
     inkscape:window-y="122"
     inkscape:window-maximized="0"
     inkscape:current-layer="svg3076"
     fit-margin-top="3"
     fit-margin-right="3"
     fit-margin-bottom="3"
     fit-margin-left="3" />
  <g
     inkscape:groupmode="layer"
     id="layer2"
     inkscape:label="LAYER1"
     style="display:inline"
     transform="translate(3.0000004,3.0066323)" />
  <g
     id="g3116">
    <path
       style="fill:#ffeeaa;fill-opacity:1"
       d="M 49.71698,123.2092 C 33.81107,119.35784 17.14496,106.06342 10.16449,91.65849 5.32281,81.667194 3.5,74.00889 3.5,63.65849 3.5,46.598596 9.36764,32.551225 21.52948,20.495137 29.98954,12.108653 41.13357,5.8397309 51.29922,3.7485799 c 7.6666,-1.577077 21.4508,-1.338095 28.55643,0.495095 13.93484,3.59506 29.74754,15.2383541 37.07348,27.2981431 6.07794,10.005378 8.57087,19.346849 8.57087,32.116672 0,12.769823 -2.49293,22.111294 -8.57087,32.116672 -7.45235,12.267888 -23.65834,24.075518 -37.53224,27.345888 -7.67992,1.81032 -22.38706,1.854 -29.67991,0.0881 z"
       id="path3124"
       inkscape:connector-curvature="0" />
    <path
       style="fill:#ffaaaa;fill-opacity:1"
       d="M 50.213658,123.32117 C 27.441738,117.55796 9.7267075,99.156208 4.4751575,75.809591 c -1.30021,-5.780248 -1.30021,-18.219752 0,-24 C 10.968417,22.942761 35.553407,2.8807516 64.504077,2.8243716 c 16.49596,-0.03213 31.4957,6.339849 43.530363,18.4919454 11.57219,11.685107 17.3796,25.884273 17.3796,42.493274 0,21.03516 -10.09311,39.573089 -27.861023,51.172099 -4.06581,2.6542 -10.37287,5.77949 -14.01568,6.94511 -8.58285,2.74631 -25.22956,3.44286 -33.32368,1.39437 z m 27.14749,-4.06074 c 10.77078,-2.53869 18.73184,-7.0565 27.156132,-15.41078 11.55718,-11.461143 16.89676,-24.114285 16.89676,-40.040059 0,-15.925774 -5.33958,-28.578916 -16.89676,-40.040059 C 96.092988,15.415247 88.131928,10.897437 77.361148,8.3587476 45.404678,0.82655658 12.864648,23.031768 8.1919475,55.559591 2.5194775,95.04703 38.704948,128.37176 77.361147,119.26043 z m -25.67496,-1.8877 C 31.932858,112.58625 14.597468,94.751037 10.511008,75.01037 3.5232775,41.254284 30.148838,8.7419786 64.713257,8.8243716 c 16.28698,0.03882 31.90568,7.5806764 42.745373,20.6405904 15.94184,19.207115 15.94184,49.482143 0,68.689258 -13.741832,16.55648 -35.630673,24.09911 -55.772443,19.21851 z m 22.29419,-3.63884 c 23.47475,-4.2557 41.433662,-25.894777 41.433662,-49.924299 0,-34.722122 -34.624653,-59.3107794 -67.561613,-47.978803 -7.94554,2.733665 -14.39183,7.081077 -20.86151,14.069109 -17.8179995,19.245561 -17.8179995,48.573827 0,67.819388 12.76783,13.790785 28.90992,19.292215 46.98946,16.014605 z M 30.414038,92.984128 c 0,-1.175199 2.58258,-3.468864 7.25,-6.438925 3.9875,-2.537404 9.39785,-6.74419 12.023,-9.348412 l 4.772999,-4.73495 3.477001,3.370042 c 4.10282,3.976612 4.31987,4.977708 1.079199,4.977708 -1.31878,0 -5.25763,1.737412 -8.75299,3.860916 -6.34458,3.854465 -18.32033,10.139084 -19.32069,10.139084 -0.29069,0 -0.528519,-0.821458 -0.528519,-1.825463 z m 54.115829,-4.180027 c -1.7704,-2.203019 -6.08355,-6.174086 -9.58479,-8.824593 -4.574999,-3.463366 -6.12969,-5.201285 -5.526289,-6.177605 0.68016,-1.100526 2.09114,-0.826591 7.430219,1.442551 12.29056,5.223557 18.053651,10.915101 15.632731,15.438644 -1.714221,3.203047 -4.37264,2.574871 -7.951871,-1.878997 z M 30.841538,70.73085 c -0.78512,-0.868307 -1.4275,-1.880807 -1.4275,-2.25 0,-0.369192 3.599999,-0.671259 8,-0.671259 l 8,0 0,-18 c 0,-9.9 0.240829,-18 0.53518,-18 0.29435,0 1.63774,0.722419 2.985299,1.605375 2.142231,1.403642 3.49722,1.456739 10.782881,0.422539 4.58302,-0.650561 11.300129,-2.181448 14.926919,-3.401972 l 6.594151,-2.219135 2.68546,3.365585 c 1.47701,1.851071 2.47566,3.575387 2.21924,3.831812 -0.32721,0.327204 -27.78562,3.102188 -33.47913,3.383446 -0.1375,0.0068 -0.25,2.26235 -0.25,5.01235 l 0,5 15.84501,0 c 14.63888,0 15.98448,-0.154105 17.67714,-2.024477 1.82852,-2.020489 1.83867,-2.018133 5.15499,1.196167 1.82757,1.771354 3.32286,3.582369 3.32286,4.024477 0,0.442108 -3.825,0.803833 -8.5,0.803833 l -8.5,0 0,7.5 0,7.5 5.68555,0 c 4.30429,0 6.2014,-0.484616 7.80889,-1.994779 l 2.12335,-1.994779 3.37275,3.479799 c 1.85501,1.913889 3.16428,3.68827 2.90948,3.943069 -0.2548,0.254799 -15.44416,0.59904 -33.75414,0.76498 -29.31133,0.265644 -33.46152,0.112989 -34.71838,-1.277031 z m 39.5725,-10.421259 0,-7.5 -9,0 -9,0 0,7.5 0,7.5 9,0 9,0 0,-7.5 z"
       id="path3122"
       inkscape:connector-curvature="0" />
    <path
       style="fill:#be0006;fill-opacity:1"
       d="M 51.238087,123.16069 C 38.138722,120.33712 24.223912,111.42904 16.046902,100.63174 -13.386068,61.767085 11.987462,6.3738927 60.738087,3.0660087 c 15.03679,-1.020295 32.75468,5.048068 44.200663,15.1386973 6.98787,6.160418 14.38365,17.478505 17.35972,26.566329 3.49457,10.671179 3.49457,27.228289 0,37.899468 -9.57046,29.224747 -40.791713,47.014597 -71.060383,40.490187 z m 25.20078,-3.53001 c 19.91265,-4.09618 37.208823,-20.446949 43.202873,-40.841412 2.11031,-7.180222 2.11031,-22.956776 0,-30.136998 C 114.9837,32.80351 103.96603,19.511465 89.935807,12.814132 72.527077,4.5040717 55.555937,4.5343287 38.238092,12.906302 c -9.42445,4.556065 -20.60176,15.980411 -25.25627,25.814465 -10.8380599,22.898702 -6.6532799,47.319952 11.15303,65.086083 8.08071,8.06248 15.851735,12.62665 26.103235,15.33126 6.63945,1.75165 18.95454,1.98318 26.20078,0.49257 z m -23.20078,-2.46999 C 27.748542,111.66642 9.8773021,89.64104 9.8773021,63.720769 c 0,-26.610349 18.0628399,-48.218977 44.8607849,-53.667107 17.21382,-3.4996393 35.61014,2.37785 48.410813,15.466903 3.62406,3.705698 7.83652,9.058177 9.36104,11.894396 3.55164,6.607486 6.72815,19.027036 6.72815,26.305808 0,7.278772 -3.17651,19.698322 -6.72815,26.305808 -4.62352,8.601617 -14.503633,17.770593 -24.271853,22.524853 -12.32648,5.99938 -22.3977,7.32569 -35,4.60926 z m 23.86904,-3.89268 c 12.59604,-3.35256 23.293913,-11.10459 30.325853,-21.975111 10.588,-16.367778 10.588,-38.776482 0,-55.14426 C 91.865057,12.082513 59.576307,5.4416437 35.578782,21.370295 5.8990921,41.070554 5.8947321,86.368091 35.570782,106.06583 c 11.780225,7.81927 28.394405,10.70007 41.536495,7.20218 z M 30.278902,92.470769 c 0.0224,-0.6875 3.1854,-3.207481 7.02878,-5.599959 3.843385,-2.392477 9.380005,-6.53614 12.303595,-9.208139 l 5.31562,-4.85818 3.35176,3.458139 c 2.73395,2.820715 3.01115,3.458139 1.50386,3.458139 -1.01635,0 -5.26712,1.966135 -9.44617,4.369188 -9.62901,5.53692 -17.733215,9.630812 -19.065015,9.630812 -0.56828,0 -1.01488,-0.5625 -0.99243,-1.25 z m 51.459185,-6.561622 c -3.85,-3.727928 -8.35,-7.740183 -10,-8.916123 -2.05059,-1.461436 -2.6774,-2.466087 -1.98062,-3.174548 2.00077,-2.034312 20.28487,7.982405 22.18551,12.15405 1.18585,2.602802 -5.8e-4,6.75662 -1.92267,6.731457 -0.70522,-0.0092 -4.43222,-3.066909 -8.28222,-6.794836 z M 31.274292,70.264386 c -1.03792,-1.250621 -0.10156,-1.497867 6.62755,-1.75 l 7.836245,-0.293617 -0.34133,-18.370672 -0.34132,-18.370672 2.31383,1.620672 c 1.27261,0.89137 3.97412,1.620672 6.00336,1.620672 4.81179,0 17.15861,-2.421719 22.86546,-4.484855 l 4.5,-1.626838 2.79242,3.305846 2.79241,3.305847 -2.79241,0.300284 c -1.53583,0.165156 -9.31742,0.840156 -17.29242,1.5 l -14.5,1.199716 0,5.5 0,5.5 14.96653,0.277973 c 13.97077,0.259479 15.15949,0.135304 17.86694,-1.866394 l 2.90041,-2.144367 3.61639,3.616394 3.6164,3.616394 -9.2754,0 -9.2754,0 0.29207,7.75 0.29206,7.75 5.3753,0.306605 c 4.45962,0.254376 5.785,-0.0783 7.78043,-1.952903 l 2.40513,-2.259507 3.7029,3.702903 3.70291,3.702902 -33.61089,0 c -28.209015,0 -33.805145,-0.234067 -34.819575,-1.456383 z m 39.755855,-9.793617 0.29207,-7.75 -10.04207,0 -10.04206,0 0,7.333333 c 0,4.033334 0.31569,7.64902 0.70153,8.034859 0.38583,0.385839 4.77333,0.573339 9.75,0.416667 l 9.04847,-0.284859 0.29206,-7.75 z"
       id="path3120"
       inkscape:connector-curvature="0" />
    <path
       style="fill:#000000;fill-opacity:1"
       d="M 54.23771,123.94203 C 24.6731,118.64734 3.5,93.623837 3.5,63.977499 3.5,47.997457 8.70468,34.71967 19.568,22.98598 43.08271,-2.4127149 82.43735,-3.2648019 106.68942,21.09967 c 25.65423,25.773134 23.62735,66.53068 -4.47478,89.98123 -5.47562,4.56927 -16.55933,10.11957 -23.53944,11.78765 -6.84855,1.63665 -18.44778,2.14618 -24.43749,1.07348 z m 27.67766,-5.5756 c 19.20531,-6.00261 34.2766,-22.793918 38.4956,-42.888931 1.8531,-8.826242 1.8531,-14.173758 0,-23 C 115.88518,30.921261 98.22943,12.813451 76.98258,7.9371741 54.85875,2.8596231 30.50899,12.076224 17.35808,30.505585 -0.98142,56.206082 4.91428,92.458657 30.35575,110.42809 c 15.49111,10.94145 33.21851,13.67084 51.55962,7.93834 z"
       id="path3118"
       inkscape:connector-curvature="0" />
  </g>
</svg>
