<?xml version="1.0" encoding="UTF-8" standalone="no"?>
<!-- Created with Inkscape (http://www.inkscape.org/) -->

<svg
   xmlns:dc="http://purl.org/dc/elements/1.1/"
   xmlns:cc="http://creativecommons.org/ns#"
   xmlns:rdf="http://www.w3.org/1999/02/22-rdf-syntax-ns#"
   xmlns:svg="http://www.w3.org/2000/svg"
   xmlns="http://www.w3.org/2000/svg"
   xmlns:sodipodi="http://sodipodi.sourceforge.net/DTD/sodipodi-0.dtd"
   xmlns:inkscape="http://www.inkscape.org/namespaces/inkscape"
   id="svg3076"
   version="1.1"
   inkscape:version="0.48.2 r9819"
   width="128.28036"
   height="128.00662"
   sodipodi:docname="WhiteCanon.svg">
  <metadata
     id="metadata3082">
    <rdf:RDF>
      <cc:Work
         rdf:about="">
        <dc:format>image/svg+xml</dc:format>
        <dc:type
           rdf:resource="http://purl.org/dc/dcmitype/StillImage" />
        <dc:title />
      </cc:Work>
    </rdf:RDF>
  </metadata>
  <defs
     id="defs3080" />
  <sodipodi:namedview
     pagecolor="#ffffff"
     bordercolor="#666666"
     borderopacity="1"
     objecttolerance="10"
     gridtolerance="10"
     guidetolerance="10"
     inkscape:pageopacity="0"
     inkscape:pageshadow="2"
     inkscape:window-width="1027"
     inkscape:window-height="709"
     id="namedview3078"
     showgrid="false"
     inkscape:zoom="2.9259416"
     inkscape:cx="80.486331"
     inkscape:cy="57.043811"
     inkscape:window-x="161"
     inkscape:window-y="43"
     inkscape:window-maximized="0"
     inkscape:current-layer="g3199"
     fit-margin-top="3"
     fit-margin-right="3"
     fit-margin-bottom="3"
     fit-margin-left="3" />
  <g
     inkscape:groupmode="layer"
     id="layer2"
     inkscape:label="LAYER1"
     style="display:inline"
     transform="translate(2.9999995,3.0066293)" />
  <g
     id="g3199">
    <path
       style="fill:#ffeeaa;fill-opacity:1"
       d="M 49.716983,123.20918 C 33.811072,119.35782 17.144961,106.0634 10.164485,91.658475 5.322809,81.667177 3.5,74.008873 3.5,63.658473 3.5,46.598579 9.367636,32.551208 21.529485,20.49512 29.989538,12.108636 41.133569,5.8397136 51.299221,3.7485626 58.965819,2.1714856 72.750017,2.4104676 79.855655,4.2436566 93.79049,7.8387166 109.60319,19.482012 116.92913,31.541801 123.00707,41.547179 125.5,50.88865 125.5,63.658473 c 0,12.769823 -2.49293,22.111292 -8.57087,32.116672 -7.45235,12.267885 -23.65834,24.075515 -37.532243,27.345885 -7.67992,1.81032 -22.38706,1.854 -29.679904,0.0881 z"
       id="path3207"
       inkscape:connector-curvature="0" />
    <path
       style="fill:#ffaaaa;fill-opacity:1"
       d="M 50.213652,123.32116 C 27.441734,117.55795 9.7267077,99.156185 4.4751507,75.809573 c -1.300201,-5.780248 -1.300201,-18.219752 0,-24 C 10.968417,22.942743 35.553401,2.8807343 64.504072,2.8243543 c 16.49596,-0.03213 31.495703,6.339849 43.530358,18.4919447 11.57219,11.685107 17.3796,25.884273 17.3796,42.493274 0,21.035162 -10.09311,39.573097 -27.861015,51.172107 -4.06581,2.6542 -10.372871,5.77949 -14.015684,6.94511 -8.582841,2.74631 -25.229552,3.44286 -33.323679,1.39437 z m 27.147495,-4.06074 c 10.770776,-2.53869 18.731838,-7.0565 27.156123,-15.41078 11.55718,-11.461155 16.89676,-24.114293 16.89676,-40.040067 0,-15.925774 -5.33958,-28.578916 -16.89676,-40.040059 C 96.092985,15.415229 88.131923,10.897419 77.361147,8.3587303 45.404677,0.82653833 12.864648,23.03175 8.1919447,55.559573 2.5194757,95.047015 38.704949,128.37175 77.361147,119.26042 z m -25.67496,-1.8877 C 31.932855,112.58624 14.597462,94.751015 10.51101,75.010352 3.5232697,41.254266 30.14884,8.7419613 64.713256,8.8243543 c 16.286976,0.03882 31.905679,7.5806757 42.745364,20.6405897 15.94184,19.207115 15.94184,49.482143 0,68.689261 C 93.716795,114.71069 71.827954,122.25332 51.686187,117.37272 z m 22.294189,-3.63884 c 23.474749,-4.2557 41.433654,-25.894785 41.433654,-49.924307 0,-34.722122 -34.624645,-59.3107787 -67.561605,-47.978803 -7.945535,2.733665 -14.391827,7.081077 -20.861512,14.069109 -17.8179953,19.245561 -17.8179953,48.573827 0,67.819386 12.767833,13.790795 28.909925,19.292225 46.989463,16.014615 z M 30.904303,95.793825 c -0.347109,-0.56163 1.19661,-3.75818 3.430487,-7.10344 6.636869,-9.93879 7.336578,-13.395083 7.834707,-38.700422 0.398788,-20.258774 0.591943,-22.257572 2.091946,-21.647717 0.908926,0.369541 2.890092,1.119887 4.402592,1.667435 2.845967,1.030284 3.481934,2.229498 1.75,3.299892 -0.55,0.339919 -0.980112,3.853976 -0.955804,7.809017 l 0.0442,7.190983 2.081313,-4 c 2.822045,-5.423585 2.682695,-5.369172 5.46665,-2.134616 1.356416,1.575961 2.681881,2.649713 2.945477,2.386117 0.263597,-0.263597 1.432491,-4.340499 2.597542,-9.059783 l 2.118275,-8.580516 4.101176,2.067319 c 2.255646,1.137025 4.251175,2.199505 4.434508,2.361065 0.183334,0.161561 -0.604166,1.231247 -1.75,2.377081 -4.097798,4.097794 -2.8745,5.083333 6.309674,5.083333 6.537964,0 8.520233,-0.331534 8.968615,-1.5 0.773702,-2.016234 1.615274,-1.855683 5.068154,0.966879 2.18942,1.789742 2.66558,2.728289 1.88427,3.714037 -0.57503,0.725496 -1.35117,8.066464 -1.72476,16.313261 -0.74001,16.33544 -1.321525,18.15611 -6.87828,21.535374 -3.157034,1.919907 -3.185761,1.919368 -3.922993,-0.07356 -0.408469,-1.104195 -2.777873,-2.880018 -5.265344,-3.946272 -4.42003,-1.894647 -6.01445,-4.009719 -3.022673,-4.009719 0.825,0 1.5,-0.45 1.5,-1 0,-0.55 -1.8,-1 -4,-1 l -4,0 0,9 0,9.000002 11.893011,0 c 13.227729,0 13.106989,0.0652 13.106989,-7.081789 0,-3.251546 0.34029,-3.918213 2,-3.918213 1.66339,0 2,0.666667 2,3.961045 0,2.744767 0.64927,4.565937 2.11448,5.930977 l 2.11447,1.96993 -2.56902,2.56903 c -2.53733,2.53733 -2.75989,2.56902 -18.043047,2.56902 -12.733963,0 -15.752287,-0.27826 -17.045454,-1.57143 -1.301036,-1.30104 -1.571429,-4.39827 -1.571429,-18.000001 0,-9.035714 -0.246585,-16.428571 -0.547966,-16.428571 -0.301381,0 -1.620077,1.2375 -2.930436,2.75 -1.772922,2.046421 -2.675392,2.462084 -3.52738,1.624654 -0.857268,-0.842619 -0.243496,-2.915316 2.443007,-8.25 1.973355,-3.91856 3.337983,-7.124654 3.032506,-7.124654 -0.305477,0 -2.786135,2.086579 -5.512572,4.636842 l -4.957159,4.636842 0,6.670657 0,6.670658 4.51775,3.184404 c 5.544752,3.908302 7.272126,7.171592 5.664204,10.700599 -0.626492,1.375 -1.584896,2.5 -2.129787,2.5 -0.54489,0 -2.631306,-2.56467 -4.636479,-5.699256 l -3.645769,-5.699255 -2.949609,5.92516 C 40.392916,90.061655 32.574131,98.495665 30.904303,95.793825 z M 84.807046,70.227786 c 0.333844,-0.869984 0.606989,-7.394984 0.606989,-14.5 l 0,-12.918213 -8.97432,0 c -8.926485,0 -8.982452,0.01573 -10.5,2.95034 -2.339799,4.524673 -1.964063,5.04966 3.614077,5.04966 3.73071,0 5.497871,-0.479757 6.446039,-1.75 1.210165,-1.621235 1.549387,-1.507179 4.610243,1.550083 2.98495,2.981448 3.134992,3.3966 1.553961,4.29969 -1.418182,0.810071 -1.75,2.398362 -1.75,8.376593 0,6.184816 -0.282812,7.450892 -1.75,7.834308 -0.9625,0.251528 -0.110645,0.509524 1.893011,0.573325 2.47743,0.07889 3.837217,-0.390092 4.25,-1.465786 z m -10.393011,-9.918213 0,-5.5 -4,0 -4,0 0,5.5 0,5.5 4,0 4,0 0,-5.5 z m -42.745894,1.354106 c -0.861192,-0.861192 -0.69275,-2.041349 0.677963,-4.75 1.003121,-1.982258 2.14503,-5.091657 2.537576,-6.909774 0.504591,-2.337068 1.199626,-3.213161 2.372037,-2.989957 2.415897,0.45994 2.924855,11.886231 0.631592,14.179493 -1.889869,1.88987 -4.594999,2.094407 -6.219168,0.470238 z"
       id="path3205"
       inkscape:connector-curvature="0" />
    <path
       style="fill:#be0006;fill-opacity:1"
       d="M 51.238089,123.16067 C 38.138719,120.3371 24.223919,111.42902 16.046909,100.63172 -13.386072,61.767069 11.987459,6.3738772 60.738089,3.0659932 c 15.0368,-1.020295 32.75468,5.048068 44.200661,15.1386968 6.98787,6.160418 14.38365,17.478505 17.35972,26.566329 3.49457,10.671179 3.49457,27.228289 0,37.899468 -9.57046,29.224743 -40.791711,47.014603 -71.060381,40.490183 z m 25.20078,-3.53001 c 19.91265,-4.09618 37.208821,-20.446948 43.202871,-40.841408 2.11031,-7.180222 2.11031,-22.956776 0,-30.136998 -4.65804,-15.84876 -15.67571,-29.140805 -29.705931,-35.838138 -17.40872,-8.3100608 -34.37987,-8.2798028 -51.69772,0.09217 -9.42445,4.556065 -20.60176,15.980411 -25.25626,25.814465 -10.8380601,22.898702 -6.6532901,47.319952 11.15302,65.086079 8.08071,8.06248 15.85175,12.62665 26.10324,15.33126 6.63945,1.75165 18.95454,1.98318 26.20078,0.49257 z m -23.20078,-2.46999 C 27.748539,111.6664 9.8773089,89.641025 9.8773089,63.720753 c 0,-26.610349 18.0628301,-48.218977 44.8607801,-53.667107 17.21383,-3.4996388 35.61014,2.37785 48.410811,15.466903 3.62406,3.705698 7.83652,9.058177 9.36104,11.894396 3.55164,6.607486 6.72815,19.027036 6.72815,26.305808 0,7.278772 -3.17651,19.698322 -6.72815,26.305812 -4.62352,8.601607 -14.503631,17.770585 -24.271851,22.524845 -12.32647,5.99938 -22.3977,7.32569 -35,4.60926 z m 23.86904,-3.89268 c 12.59605,-3.35256 23.293911,-11.10459 30.325851,-21.975108 10.588,-16.367777 10.588,-38.776481 0,-55.144259 C 91.865059,12.082497 59.576309,5.4416282 35.578779,21.370279 5.8990889,41.070538 5.8947289,86.368075 35.570779,106.06581 c 11.78023,7.81927 28.39442,10.70007 41.5365,7.20218 z M 31.024469,95.579892 c -0.24408,-0.73225 0.99527,-3.36262 2.75412,-5.845257 7.57242,-10.688566 8.54986,-15.437331 8.4964,-41.278568 l -0.043,-20.764685 3.70167,1.546654 c 4.69941,1.96354 4.67163,1.928001 3.38541,4.331329 -1.39948,2.614962 -1.45822,15.502543 -0.0667,14.642556 0.55786,-0.344776 1.91599,-2.394337 3.01806,-4.55458 l 2.00377,-3.927715 2.79643,3.12975 2.79643,3.129749 2.18868,-7.384186 c 1.20377,-4.061302 2.18725,-8.219831 2.18551,-9.241175 -0.002,-1.372536 0.45337,-1.671953 1.74683,-1.147717 0.9625,0.390099 3.01544,1.167004 4.56208,1.726455 2.8058,1.01491 2.80773,1.021947 0.86494,3.147718 -1.07093,1.171793 -2.25419,3.143033 -2.62947,4.380533 -0.67035,2.210533 -0.53304,2.25 7.82836,2.25 7.33431,0 8.70144,-0.272343 9.89074,-1.970301 1.35222,-1.930566 1.44649,-1.914838 4.67435,0.779909 2.96418,2.474601 3.1322,2.88475 1.67666,4.092746 -1.34304,1.114625 -1.61766,3.618973 -1.61766,14.752209 0,14.753294 -0.99712,18.803084 -5.32838,21.641033 -3.36277,2.203371 -4.39584,2.148653 -5.16462,-0.273548 -0.3785,-1.192536 -2.19214,-2.446645 -4.56739,-3.158287 -2.16678,-0.649185 -3.93961,-1.784107 -3.93961,-2.522049 0,-0.737941 0.45,-1.341712 1,-1.341712 0.55,0 1,-0.45 1,-1 0,-0.55 -2.025,-1 -4.5,-1 l -4.5,0 0,8.377555 c 0,5.941137 0.40516,8.713807 1.39313,9.533747 0.92214,0.76531 5.23271,1.06027 12.75,0.87245 l 11.35687,-0.28375 0.86351,-5.750002 c 1.05731,-7.040484 3.63649,-8.160205 3.63649,-1.578741 0,2.333793 0.67138,4.913123 1.52411,5.855383 0.83826,0.92627 1.26351,2.36325 0.94499,3.19329 -1.12927,2.942817 -5.45193,3.780067 -19.51615,3.780067 -18.91435,0 -17.94052,1.12302 -17.99359,-20.749999 l -0.0406,-16.75 -2.70936,3.108223 c -4.7151,5.409244 -5.53473,2.987962 -1.62001,-4.785651 1.94646,-3.865148 3.28587,-7.280693 2.97646,-7.590101 -0.30941,-0.309408 -2.70079,1.247782 -5.31418,3.460422 l -4.75163,4.022983 -0.28915,8.062248 c -0.26197,7.304263 -0.10222,8.121576 1.69908,8.693289 1.09354,0.347073 3.36115,1.913534 5.03916,3.481024 3.31213,3.093996 4.13101,7.906271 1.69009,9.932055 -1.08051,0.89675 -2.05896,0.0593 -4.75,-4.065587 -4.01668,-6.156828 -5.41179,-6.857113 -6.33474,-3.179784 -1.64507,6.554471 -13.69929,21.426318 -14.76806,18.220018 z m 53.66363,-25.109139 c 0.21298,-0.6875 0.61608,-7.2125 0.89579,-14.5 l 0.50855,-13.25 -9.74196,0 -9.74196,0 -1.74306,3.655232 c -1.40585,2.948105 -1.49005,3.815695 -0.43521,4.484687 2.22066,1.408376 9.04681,0.953792 10.90305,-0.726082 1.60972,-1.456776 2.00287,-1.401198 4.81964,0.681324 2.75795,2.039048 2.91674,2.433458 1.57604,3.914904 -1.00522,1.110756 -1.49089,3.804451 -1.49089,8.268986 0,5.251292 -0.36214,6.8325 -1.75,7.64085 -1.41341,0.823239 -1.02271,1.02513 2.03139,1.04969 2.17527,0.01749 3.94586,-0.500517 4.16862,-1.219591 z m -10.45001,-9.75 0,-6 -4.5,0 -4.5,0 0,6 0,6 4.5,0 4.5,0 0,-6 z m -42.6892,0.367534 c -0.34454,-0.897856 -0.0276,-2.585356 0.70424,-3.75 0.73188,-1.164644 1.85821,-3.894304 2.50296,-6.065912 0.64475,-2.171608 1.6322,-4.101686 2.19433,-4.289063 1.10326,-0.367756 2.28767,4.22063 2.28767,8.862441 0,4.95985 -6.18062,9.173828 -7.6892,5.242534 z"
       id="path3203"
       inkscape:connector-curvature="0" />
    <path
       style="fill:#000000;fill-opacity:1"
       d="M 54.237708,123.94201 C 24.673097,118.64732 3.5,93.623824 3.5,63.977482 3.5,47.99744 8.704674,34.719653 19.568001,22.985963 43.082713,-2.4127322 82.437347,-3.2648192 106.68942,21.099653 c 25.65423,25.773134 23.62735,66.530681 -4.47478,89.981227 -5.475622,4.56927 -16.559329,10.11957 -23.539442,11.78765 -6.848554,1.63665 -18.447776,2.14618 -24.43749,1.07348 z m 27.67766,-5.5756 c 19.205312,-6.00261 34.276602,-22.793916 38.495602,-42.888928 1.8531,-8.826242 1.8531,-14.173758 0,-23 C 115.88518,30.921244 98.229428,12.813434 76.982579,7.9371568 54.858747,2.8596058 30.508993,12.076207 17.358074,30.505568 -0.9814189,56.206065 4.914282,92.458644 30.35575,110.42807 c 15.491109,10.94145 33.218508,13.67084 51.559618,7.93834 z"
       id="path3201"
       inkscape:connector-curvature="0" />
  </g>
</svg>
