<?xml version="1.0" encoding="UTF-8" standalone="no"?>
<!-- Created with Inkscape (http://www.inkscape.org/) -->

<svg
   xmlns:dc="http://purl.org/dc/elements/1.1/"
   xmlns:cc="http://creativecommons.org/ns#"
   xmlns:rdf="http://www.w3.org/1999/02/22-rdf-syntax-ns#"
   xmlns:svg="http://www.w3.org/2000/svg"
   xmlns="http://www.w3.org/2000/svg"
   xmlns:sodipodi="http://sodipodi.sourceforge.net/DTD/sodipodi-0.dtd"
   xmlns:inkscape="http://www.inkscape.org/namespaces/inkscape"
   id="svg3076"
   version="1.1"
   inkscape:version="0.48.2 r9819"
   width="128.20163"
   height="128.2204"
   sodipodi:docname="BlackRook.svg">
  <metadata
     id="metadata3082">
    <rdf:RDF>
      <cc:Work
         rdf:about="">
        <dc:format>image/svg+xml</dc:format>
        <dc:type
           rdf:resource="http://purl.org/dc/dcmitype/StillImage" />
        <dc:title />
      </cc:Work>
    </rdf:RDF>
  </metadata>
  <defs
     id="defs3080" />
  <sodipodi:namedview
     pagecolor="#ffffff"
     bordercolor="#666666"
     borderopacity="1"
     objecttolerance="10"
     gridtolerance="10"
     guidetolerance="10"
     inkscape:pageopacity="0"
     inkscape:pageshadow="2"
     inkscape:window-width="1027"
     inkscape:window-height="709"
     id="namedview3078"
     showgrid="false"
     inkscape:zoom="3.8688525"
     inkscape:cx="80.500953"
     inkscape:cy="57.054009"
     inkscape:window-x="147"
     inkscape:window-y="82"
     inkscape:window-maximized="0"
     inkscape:current-layer="g3116"
     fit-margin-top="3"
     fit-margin-right="3"
     fit-margin-bottom="3"
     fit-margin-left="3" />
  <g
     inkscape:groupmode="layer"
     id="layer2"
     inkscape:label="LAYER1"
     style="display:inline"
     transform="translate(2.9999999,3.2204049)" />
  <g
     id="g3116">
    <path
       style="fill:#ffeeaa;fill-opacity:1"
       d="M 49.662159,123.39204 C 28.848397,118.35233 10.456785,100.11133 5.0149003,79.110414 c -2.019867,-7.794921 -2.019867,-22.743229 0,-30.538147 C 9.3817243,31.720143 21.887153,16.488872 37.445176,9.073078 47.497814,4.281448 53.737314,2.841339 64.445174,2.841339 c 17.06239,0 30.67918,5.6522 42.970506,17.836647 12.41389,12.305935 18.00575,25.710733 18.00575,43.163353 0,17.452615 -5.59186,30.857415 -18.00575,43.163341 -8.460046,8.38649 -19.604076,14.65541 -29.769726,16.74656 -6.96257,1.43225 -21.347782,1.24761 -27.983795,-0.3592 z"
       id="path3122"
       inkscape:connector-curvature="0" />
    <path
       style="fill:#8c8c8c;fill-opacity:1"
       d="M 54.32415,124.10634 C 49.345717,123.27297 41.689783,120.48127 35.302616,117.17025 16.577172,107.46322 4.6224201,88.480694 3.5788391,66.797199 2.3731841,41.746143 15.056734,20.257983 37.436507,9.436368 56.70375,0.11979998 75.083038,0.62247798 94.550348,10.998447 112.44495,20.53617 125.32415,42.63307 125.32415,63.797199 c 0,22.754955 -13.19921,43.980051 -33.845882,54.426131 -10.40724,5.26551 -26.04819,7.74209 -37.154118,5.88301 z m 24.414558,-5.2873 c 10.83553,-2.77126 16.91023,-6.31872 25.688682,-15.00149 11.55325,-11.427306 16.89676,-24.083536 16.89676,-40.020351 0,-15.93682 -5.34351,-28.593044 -16.89676,-40.020365 C 95.648938,15.09407 89.574238,11.546607 78.738708,8.775347 68.322368,6.111296 58.531548,6.223477 48.525919,9.121518 38.096387,12.142339 30.583788,16.756383 22.976558,24.813276 12.256892,36.166581 7.3241501,48.45208 7.3241501,63.797199 c 0,15.345115 4.9327419,27.630615 15.6524079,38.983921 14.623686,15.48808 34.99891,21.34828 55.76215,16.03792 z M 52.82415,117.62691 C 33.670042,114.00068 15.458658,96.190434 10.829719,76.557464 6.3684281,57.635552 11.719566,39.169938 25.713396,25.197125 c 21.888176,-21.855301 55.355532,-21.855301 77.210834,0 21.96529,21.965294 21.96529,55.234859 0,77.200145 -13.478512,13.4785 -31.082872,18.82995 -50.10008,15.22964 z m 21.066338,-3.90542 C 92.906688,110.27407 109.3233,94.629664 113.78437,75.704131 120.69973,46.366539 101.30871,17.926281 71.420328,13.570006 50.590469,10.534024 29.278507,21.154693 19.605342,39.391645 -0.64992093,77.579174 31.37488,121.42907 73.890488,113.72149 z m -13.56634,-22.491286 0,-7.56699 -14.070401,0.21881 c -13.2219,0.20562 -14.200167,0.0891 -16.222223,-1.93301 l -2.151818,-2.15182 16.222222,0 16.22222,0 0,-3.5 0,-3.499995 -6.999998,0 c -5.182741,0 -7,0.347742 -7,1.339485 0,1.102376 -3.87654,3.66051 -5.547053,3.66051 -0.249121,0 -0.452947,-7.199995 -0.452947,-15.999995 0,-8.8 0.3375,-15.984054 0.75,-15.964565 0.4125,0.01949 1.875,0.678544 3.25,1.464565 1.464998,0.837469 5.294504,1.443799 9.25,1.464565 6.542778,0.03435 6.749998,-0.04131 6.749998,-2.464565 l 0,-2.5 -12.34501,0 c -11.075021,0 -12.531214,-0.20575 -14.154988,-2 -1.801876,-1.99105 -1.746633,-2 12.345012,-2 l 14.154986,0 0,-5.5 c 0,-3.025 0.14484,-5.5 0.32186,-5.5 0.17703,0 2.504,0.743528 5.17105,1.652284 4.84055,1.64934 4.84532,1.655418 2.67814,3.410293 -1.19408,0.966904 -2.17105,2.698377 -2.17105,3.847716 0,1.967943 0.53523,2.089707 9.18555,2.089707 8.06858,0 9.46838,-0.265706 11.51145,-2.18507 l 2.3259,-2.18507 3.44964,3.343522 c 1.8973,1.838937 3.21559,3.722219 2.92953,4.18507 -0.28606,0.462851 -7.01854,0.841548 -14.96108,0.841548 l -14.44099,0 0,2.5 c 0,2.417373 0.22096,2.5 6.68555,2.5 5.3084,0 7.12391,-0.411821 8.81364,-1.999237 l 2.12809,-1.999238 2.83881,2.963082 c 2.37743,2.481497 2.63126,3.213173 1.56176,4.501841 -0.88247,1.063308 -1.22235,4.725301 -1.1,11.851739 0.17527,10.208487 0.15073,10.324981 -2.42244,11.497396 -3.62179,1.650192 -4.50541,1.490242 -4.50541,-0.815583 0,-1.809524 -0.66667,-2 -7,-2 l -7,0 0,3.499995 0,3.5 10.68555,0 c 9.63871,0 10.91537,-0.2159 13.03144,-2.20385 l 2.3459,-2.203849 4.20385,4.203849 4.203852,4.20385 -17.235292,0 -17.2353,0 0,6.52476 c 0,6.08375 -0.17337,6.59066 -2.5651,7.5 -1.4108,0.53638 -2.7608,0.97524 -3,0.97524 -0.23919,0 -0.4349,-3.40514 -0.4349,-7.56699 z m 0,-25.433005 0,-3 -6.999998,0 -7,0 0,3 0,3 7,0 6.999998,0 0,-3 z m 20,0 0,-3 -7,0 -7,0 0,3 0,3 7,0 7,0 0,-3 z m -20,-10.5 0,-3.5 -6.999998,0 -7,0 0,3.5 0,3.5 7,0 6.999998,0 0,-3.5 z m 20,0 0,-3.5 -7,0 -7,0 0,3.5 0,3.5 7,0 7,0 0,-3.5 z"
       id="path3120"
       inkscape:connector-curvature="0" />
    <path
       style="fill:#000000;fill-opacity:1"
       d="M 54.61056,124.06263 C 41.34688,121.687 29.54856,115.29286 20.089728,105.35394 2.5054712,86.877204 -1.4154808,60.837622 9.8401302,37.284955 16.951031,22.405205 33.78898,8.9413388 50.247641,4.9745298 63.782529,1.7123988 81.771719,4.3054268 94.055939,11.28922 c 7.278491,4.137948 16.761981,13.112047 21.374041,20.225958 12.34835,19.046825 12.34835,46.109996 0,65.156826 -4.61637,7.120566 -14.10364,16.095156 -21.374041,20.219026 -10.95805,6.21555 -27.74397,9.26741 -39.445379,7.17159 z m 27.527229,-5.62554 c 13.2291,-4.33825 21.735251,-10.70593 29.484221,-22.071806 10.67138,-15.65235 12.97976,-33.884392 6.59803,-52.112615 -2.50384,-7.15174 -9.8749,-18.023051 -15.69186,-23.14334 C 83.277029,4.1637838 53.954981,2.0706968 32.551625,16.114213 21.460975,23.39119 12.474331,35.594629 8.6337302,48.593589 c -2.376826,8.044645 -2.376826,22.955355 0,30.999995 C 17.997134,111.28512 50.909604,128.67783 82.137789,118.43709 z M 56.198245,118.06646 C 29.212702,113.92901 9.7953972,91.344034 9.7953972,64.093589 c 0,-15.022472 5.4878058,-28.347404 15.8560298,-38.5 21.691668,-21.2405462 55.855432,-21.2404782 77.096063,1.53e-4 21.2744,21.274409 21.2744,55.725282 0,76.999688 -12.034451,12.03444 -30.008551,18.00906 -46.549245,15.47303 z m 20.021594,-4.05228 c 12.00316,-2.76585 24.204621,-11.49937 31.222691,-22.348456 10.588,-16.367783 10.588,-38.776487 0,-55.144265 -9.735431,-15.049808 -25.182401,-23.42787 -43.194891,-23.42787 -13.495463,0 -24.518213,4.171739 -34.349164,13 -18.392037,16.516175 -22.2205328,44.896287 -8.845724,65.572135 6.824658,10.550086 17.841499,18.764116 29.299521,21.845336 6.349747,1.70754 19.528267,1.96386 25.867567,0.50312 z m -15.9722,-23.567466 0,-7.64688 -14.465046,0.54145 c -11.648022,0.43601 -14.690447,0.26987 -15.622444,-0.85312 -0.981512,-1.18265 1.216686,-1.39458 14.465047,-1.39458 l 15.622443,0 0,-4 0,-3.999995 -6.999998,0 c -3.877001,0 -7,0.434686 -7,0.97432 0,0.535876 -1.35,1.672432 -3,2.525675 l -3,1.55137 0,-16.051365 0,-16.05136 2.95034,1.52568 c 1.826053,0.944289 5.636756,1.52568 10,1.52568 l 7.049658,0 0,-3.089237 0,-3.089237 -12.501165,0.302356 C 37.015206,43.47702 35.002766,43.277291 33.532188,41.806708 31.914697,40.189216 32.612517,40.093589 46.033355,40.093589 l 14.214284,0 0,-5 c 0,-5.474802 0.22099,-5.613288 6.13154,-3.842443 3.67546,1.101192 3.76632,1.225686 1.86602,2.556704 -1.09865,0.769531 -1.99756,2.49863 -1.99756,3.842443 0,2.413732 0.11115,2.443296 9.18555,2.443296 7.80123,0 9.50555,-0.300625 11.30889,-1.994779 l 2.12335,-1.994779 3.38727,3.494779 3.38728,3.494779 -14.69617,0 -14.69617,0 0,3 0,3 7.17126,0 c 5.32833,0 7.65098,-0.434138 9.03795,-1.689328 1.76642,-1.598589 2.01235,-1.542113 4.57874,1.05147 2.48332,2.509643 2.56446,2.824984 0.96205,3.739017 -1.49686,0.853829 -1.75,2.558962 -1.75,11.788016 0,10.538694 -0.0582,10.816304 -2.5,11.928871 -2.20811,1.006079 -2.5,0.908069 -2.5,-0.839485 0,-1.795543 -0.69375,-1.978561 -7.5,-1.978561 l -7.5,0 0,3.999995 0,4 10.32569,0 c 9.68655,0 10.46926,-0.15282 12.64521,-2.46902 l 2.31952,-2.469016 3.90091,3.089576 c 2.14549,1.69926 3.66838,3.32209 3.38419,3.60628 -0.28419,0.28419 -7.72994,0.42712 -16.54611,0.31762 l -16.02941,-0.19909 0,6.94519 c 0,6.35711 -0.19052,6.99626 -2.25,7.54818 -1.2375,0.33164 -2.5875,0.60912 -3,0.61663 -0.4125,0.008 -0.75,-3.42744 -0.75,-7.63322 z m 0,-23.853125 0,-3.5 -6.999998,0 -7,0 0,3.5 0,3.5 7,0 6.999998,0 0,-3.5 z m 20.81336,-0.25 0.31336,-3.25 -7.56336,0 -7.56336,0 0,3.54381 0,3.543809 7.25,-0.293809 7.25,-0.29381 0.31336,-3.25 z m -20.81336,-10.25 0,-4 -6.999998,0 -7,0 0,4 0,4 7,0 6.999998,0 0,-4 z m 21,0 0,-4 -7.5,0 -7.5,0 0,4 0,4 7.5,0 7.5,0 0,-4 z"
       id="path3118"
       inkscape:connector-curvature="0" />
  </g>
</svg>
