<?xml version="1.0" encoding="UTF-8" standalone="no"?>
<!-- Created with Inkscape (http://www.inkscape.org/) -->

<svg
   xmlns:dc="http://purl.org/dc/elements/1.1/"
   xmlns:cc="http://creativecommons.org/ns#"
   xmlns:rdf="http://www.w3.org/1999/02/22-rdf-syntax-ns#"
   xmlns:svg="http://www.w3.org/2000/svg"
   xmlns="http://www.w3.org/2000/svg"
   xmlns:sodipodi="http://sodipodi.sourceforge.net/DTD/sodipodi-0.dtd"
   xmlns:inkscape="http://www.inkscape.org/namespaces/inkscape"
   id="svg3076"
   version="1.1"
   inkscape:version="0.48.2 r9819"
   width="128.36652"
   height="128.51732"
   sodipodi:docname="BlackAdvisor.svg">
  <metadata
     id="metadata3082">
    <rdf:RDF>
      <cc:Work
         rdf:about="">
        <dc:format>image/svg+xml</dc:format>
        <dc:type
           rdf:resource="http://purl.org/dc/dcmitype/StillImage" />
        <dc:title />
      </cc:Work>
    </rdf:RDF>
  </metadata>
  <defs
     id="defs3080" />
  <sodipodi:namedview
     pagecolor="#ffffff"
     bordercolor="#666666"
     borderopacity="1"
     objecttolerance="10"
     gridtolerance="10"
     guidetolerance="10"
     inkscape:pageopacity="0"
     inkscape:pageshadow="2"
     inkscape:window-width="1027"
     inkscape:window-height="709"
     id="namedview3078"
     showgrid="false"
     inkscape:zoom="3.8688525"
     inkscape:cx="120.52961"
     inkscape:cy="87.755529"
     inkscape:window-x="40"
     inkscape:window-y="37"
     inkscape:window-maximized="0"
     inkscape:current-layer="g3184"
     inkscape:snap-page="false"
     borderlayer="false"
     fit-margin-top="3"
     fit-margin-left="3"
     fit-margin-right="3"
     fit-margin-bottom="3" />
  <g
     id="g3269"
     transform="translate(3.1777898,3.1736296)" />
  <g
     inkscape:groupmode="layer"
     id="layer2"
     inkscape:label="LAYER1"
     style="display:inline"
     transform="translate(3,3.5173231)" />
  <g
     id="g3184"
     transform="translate(-42.38983,2.0677966)">
    <path
       style="fill:#ffeeaa;fill-opacity:1"
       d="m 98.398746,122.78721 c -3.51808,-0.35291 -5.77824,-0.76286 -8.46883,-1.53609 -16.19139,-4.65314 -30.84645,-17.15535 -38.52237,-32.863373 -3.045953,-6.233265 -4.609303,-11.570118 -5.217493,-17.811121 -0.56839,-5.832564 -0.29669,-16.300125 0.53671,-20.677966 2.543103,-13.358775 11.470073,-27.360737 22.963913,-36.018927 4.40771,-3.320282 8.08048,-5.4268714 13.59618,-7.7983694 7.95784,-3.421504 13.59489,-4.517449 23.235704,-4.517449 17.35804,0 30.81588,5.611758 43.2445,18.0324444 12.13362,12.125875 17.64287,25.43279 17.64409,42.617076 0.001,13.193558 -2.7857,23.03275 -9.30995,32.872094 -9.25488,13.957451 -24.79651,24.605551 -39.92914,27.356821 -2.45223,0.44583 -16.35035,0.68823 -19.773314,0.34486 l 0,0 z"
       id="path3194"
       inkscape:connector-curvature="0" />
    <path
       style="fill:#8c8c8c;fill-opacity:1"
       d="M 96.713985,122.33547 C 91.735548,121.5021 84.079618,118.7104 77.692448,115.39937 58.966998,105.69233 47.01225,86.709802 45.968669,65.026311 44.763014,39.975255 57.446568,18.487095 79.826338,7.6654802 c 19.267247,-9.3165684 37.646542,-8.8138904 57.113852,1.562079 17.8946,9.5377228 30.7738,31.6346228 30.7738,52.7987518 0,22.754951 -13.19921,43.980049 -33.84589,54.426149 -10.40723,5.2655 -26.04819,7.74209 -37.154115,5.88301 z m 24.414565,-5.2873 c 10.83552,-2.77127 16.91023,-6.31873 25.68868,-15.0015 11.55325,-11.427318 16.89676,-24.083539 16.89676,-40.020359 0,-15.93682 -5.34351,-28.593044 -16.89676,-40.020365 C 138.03878,13.323182 131.96407,9.7757192 121.12855,7.0044592 110.71221,4.3404078 100.92138,4.4525888 90.915748,7.3506302 80.486218,10.371451 72.973618,14.985495 65.366388,23.042388 c -10.71967,11.353305 -15.65241,23.638804 -15.65241,38.983923 0,15.345119 4.93274,27.630621 15.65241,38.983919 14.62369,15.4881 34.998912,21.34829 55.762162,16.03794 z M 95.213985,115.85604 C 76.059868,112.2298 57.848488,94.419552 53.219548,74.786579 c -4.46129,-18.921915 0.88985,-37.387529 14.88368,-51.360342 21.88817,-21.8553012 55.355532,-21.8553012 77.210832,0 21.9653,21.965294 21.9653,55.234854 0,77.200143 -13.47851,13.47851 -31.08287,18.82997 -50.100075,15.22966 z m 21.066345,-3.90543 C 135.29652,108.50319 151.71314,92.858772 156.17421,73.933243 163.08957,44.595651 143.69854,16.155393 113.81016,11.799118 92.980308,8.7631362 71.668338,19.383805 61.995168,37.620757 41.739909,75.808289 73.764708,119.6582 116.28033,111.95061 z m -36.974022,-23.822278 -1.9023,-2.10202 12.65498,0 12.655002,0 0,-14.086028 0,-14.086028 -13.406232,0.286301 c -13.13008,0.280403 -16.59378,-0.395207 -16.59378,-3.236691 0,-0.482655 6.75,-0.877555 15,-0.877555 l 15.000012,0 0,-13 c 0,-7.15 0.24292,-13 0.53983,-13 0.29692,0 2.32192,0.909146 4.5,2.020324 3.69177,1.883398 5.25102,3.979676 2.96017,3.979676 -0.6,0 -1,4 -1,10 l 0,10 9.68554,0 c 8.5827,0 9.95039,-0.248805 12.01145,-2.18507 l 2.3259,-2.18507 3.48855,3.381237 c 1.91871,1.85968 3.48856,3.742962 3.48856,4.18507 0,0.442108 -6.975,0.803833 -15.5,0.803833 l -15.5,0 0,14 0,14.000001 7.41659,0 c 6.78589,0 7.57362,-0.21556 9.26307,-2.5348 l 1.84647,-2.534806 3.93988,4.034806 3.93988,4.0348 -23.06338,0 c -12.68485,0 -25.039892,0.27091 -27.455632,0.60202 -3.65706,0.50126 -4.71066,0.25018 -6.29456,-1.5 z"
       id="path3188"
       inkscape:connector-curvature="0" />
    <path
       style="fill:#000000;fill-opacity:1"
       d="M 97.000391,122.29175 C 83.73671,119.91612 71.93839,113.52198 62.479558,103.58307 44.895301,85.106329 40.974349,59.066741 52.22996,35.514074 59.340861,20.634324 76.17881,7.170458 92.637475,3.203649 c 13.534875,-3.26213101 31.524065,-0.669103 43.808285,6.31469 7.27849,4.137948 16.76199,13.112047 21.37405,20.225958 12.34835,19.046825 12.34835,46.109997 0,65.156821 -4.61637,7.120572 -14.10365,16.095172 -21.37405,20.219042 -10.95804,6.21555 -27.74396,9.26741 -39.445379,7.17159 z m 27.527219,-5.62553 c 13.22911,-4.33825 21.73526,-10.70593 29.48423,-22.071812 10.67138,-15.652355 12.97976,-33.884397 6.59803,-52.11262 -2.50384,-7.15174 -9.8749,-18.023051 -15.69186,-23.14334 C 125.66685,2.392903 96.344815,0.29981599 74.941455,14.343332 63.850805,21.620309 54.864161,33.823748 51.02356,46.822708 c -2.376826,8.044645 -2.376826,22.955355 0,31 9.363404,31.691532 42.275875,49.084252 73.50406,38.843512 z M 98.588071,116.29559 C 71.602532,112.15814 52.185227,89.573148 52.185227,62.322708 c 0,-15.022472 5.487806,-28.347404 15.85603,-38.5 21.691668,-21.240546 55.855423,-21.240478 77.096053,1.53e-4 21.27441,21.274409 21.27441,55.725285 0,76.999699 -12.03445,12.03444 -30.00854,18.00906 -46.549239,15.47303 z m 20.021589,-4.05229 c 12.00317,-2.76585 24.20462,-11.49937 31.2227,-22.348462 10.588,-16.367778 10.588,-38.776482 0,-55.14426 -9.73544,-15.049808 -25.1824,-23.42787 -43.19489,-23.42787 -13.495465,0 -24.518214,4.171739 -34.349165,13 -18.392037,16.516175 -22.220533,44.896287 -8.845724,65.57213 6.824658,10.550102 17.841499,18.764122 29.299524,21.845352 6.349736,1.70754 19.528255,1.96386 25.867555,0.50311 z m -39.416498,-23.859051 -1.865666,-2.06154 13.154987,0 13.154987,0 0,-14.04699 0,-14.046989 -14.024057,0.149468 c -10.49323,0.111836 -14.435435,-0.191045 -15.658003,-1.203011 -1.392578,-1.15269 0.642135,-1.426339 13.774058,-1.852479 l 15.408002,-0.5 -0.0957,-13.202606 c -0.0896,-12.359845 0.0178,-13.141852 1.68268,-12.250842 0.97811,0.523469 2.99307,1.413584 4.47768,1.978032 2.55125,0.969986 2.60764,1.127544 1.02809,2.872919 -1.3616,1.50456 -1.61761,3.583901 -1.38197,11.224574 l 0.28922,9.377923 9.45002,0.290173 c 8.37549,0.257178 9.7817,0.04496 12.36694,-1.866394 l 2.91691,-2.156567 3.6164,3.616394 3.61639,3.616394 -16.23333,0 -16.23333,0 0,14 0,14.000001 7.68554,0 c 6.54522,0 8.03347,-0.32685 10.03044,-2.2029 l 2.34488,-2.202906 3.7029,3.702906 3.7029,3.702899 -25.48333,0.0136 c -14.015829,0.008 -26.401024,0.26021 -27.522651,0.56154 -1.309514,0.35182 -2.706983,-0.18987 -3.904987,-1.513649 z"
       id="path3186"
       inkscape:connector-curvature="0" />
  </g>
</svg>
