<?xml version="1.0" encoding="UTF-8" standalone="no"?>
<!-- Created with Inkscape (http://www.inkscape.org/) -->

<svg
   xmlns:dc="http://purl.org/dc/elements/1.1/"
   xmlns:cc="http://creativecommons.org/ns#"
   xmlns:rdf="http://www.w3.org/1999/02/22-rdf-syntax-ns#"
   xmlns:svg="http://www.w3.org/2000/svg"
   xmlns="http://www.w3.org/2000/svg"
   xmlns:sodipodi="http://sodipodi.sourceforge.net/DTD/sodipodi-0.dtd"
   xmlns:inkscape="http://www.inkscape.org/namespaces/inkscape"
   id="svg3076"
   version="1.1"
   inkscape:version="0.48.2 r9819"
   width="128.28036"
   height="128.00662"
   sodipodi:docname="WhiteAdvisor.svg">
  <metadata
     id="metadata3082">
    <rdf:RDF>
      <cc:Work
         rdf:about="">
        <dc:format>image/svg+xml</dc:format>
        <dc:type
           rdf:resource="http://purl.org/dc/dcmitype/StillImage" />
        <dc:title />
      </cc:Work>
    </rdf:RDF>
  </metadata>
  <defs
     id="defs3080" />
  <sodipodi:namedview
     pagecolor="#ffffff"
     bordercolor="#666666"
     borderopacity="1"
     objecttolerance="10"
     gridtolerance="10"
     guidetolerance="10"
     inkscape:pageopacity="0"
     inkscape:pageshadow="2"
     inkscape:window-width="1027"
     inkscape:window-height="709"
     id="namedview3078"
     showgrid="false"
     inkscape:zoom="2.9259416"
     inkscape:cx="70.944653"
     inkscape:cy="57.043811"
     inkscape:window-x="233"
     inkscape:window-y="138"
     inkscape:window-maximized="0"
     inkscape:current-layer="g3116"
     fit-margin-top="3"
     fit-margin-right="3"
     fit-margin-bottom="3"
     fit-margin-left="3" />
  <g
     inkscape:groupmode="layer"
     id="layer2"
     inkscape:label="LAYER1"
     style="display:inline"
     transform="translate(3.0000004,3.0066283)" />
  <g
     id="g3116"
     transform="translate(-76.309372,0)">
    <g
       id="g3054"
       transform="translate(-157.55612,-28.708707)">
      <path
         style="fill:#ffeeaa;fill-opacity:1"
         d="m 283.58247,151.91789 c -15.90591,-3.85136 -32.57202,-17.14578 -39.55249,-31.55071 -4.84168,-9.99129 -6.66449,-17.6496 -6.66449,-27.999996 0,-17.059894 5.86764,-31.107265 18.02948,-43.163353 8.46006,-8.386484 19.60409,-14.655406 29.76974,-16.746557 7.6666,-1.577077 21.4508,-1.338095 28.55643,0.495094 13.93484,3.595061 29.74754,15.238355 37.07348,27.298144 6.07794,10.005378 8.57087,19.346849 8.57087,32.116672 0,12.769826 -2.49293,22.111296 -8.57087,32.116666 -7.45235,12.26789 -23.65834,24.07552 -37.53224,27.34589 -7.67992,1.81032 -22.38706,1.854 -29.67991,0.0881 z"
         id="path3062"
         inkscape:connector-curvature="0" />
      <path
         style="fill:#ffaaaa;fill-opacity:1"
         d="m 284.07915,152.02986 c -22.77192,-5.76321 -40.48695,-24.16496 -45.7385,-47.51158 -1.30021,-5.780248 -1.30021,-18.219748 0,-23.999996 6.49326,-28.86683 31.07825,-48.928839 60.02892,-48.985219 16.49596,-0.03213 31.4957,6.339849 43.53036,18.491945 11.57219,11.685107 17.3796,25.884273 17.3796,42.493274 0,21.035156 -10.09311,39.573086 -27.86102,51.172096 -4.06581,2.6542 -10.37287,5.77949 -14.01568,6.94511 -8.58285,2.74631 -25.22956,3.44286 -33.32368,1.39437 z m 27.14749,-4.06074 c 10.77078,-2.53869 18.73184,-7.0565 27.15613,-15.41078 11.55718,-11.46114 16.89676,-24.11428 16.89676,-40.040056 0,-15.925774 -5.33958,-28.578916 -16.89676,-40.040059 -8.42429,-8.354285 -16.38535,-12.872095 -27.15613,-15.410784 -31.95647,-7.532192 -64.4965,14.67302 -69.1692,47.200843 -5.67247,39.487436 30.513,72.812166 69.1692,63.700836 z m -25.67496,-1.8877 c -19.75333,-4.78648 -37.08872,-22.62169 -41.17518,-42.36236 -6.98773,-33.756083 19.63783,-66.268388 54.20225,-66.185995 16.28698,0.03882 31.90568,7.580676 42.74537,20.64059 15.94184,19.207115 15.94184,49.482145 0,68.689255 -13.74183,16.55648 -35.63067,24.09911 -55.77244,19.21851 z m 22.29419,-3.63884 c 23.47475,-4.2557 41.43366,-25.89478 41.43366,-49.924296 0,-34.722122 -34.62465,-59.310779 -67.56161,-47.978803 -7.94554,2.733665 -14.39183,7.081077 -20.86151,14.069109 -17.818,19.245561 -17.818,48.57382 0,67.81939 12.76783,13.79078 28.90992,19.29221 46.98946,16.0146 z m -30.8794,-34.36608 c 0.37079,-11.526238 0.25626,-19.534967 -0.27888,-19.501603 -0.49943,0.03114 -2.85541,2.731138 -5.23549,6 -2.38009,3.268865 -4.75672,5.943383 -5.28139,5.943383 -2.30003,0 -1.82134,-3.241148 1.10737,-7.497883 4.80636,-6.985807 10.57133,-19.127977 13.05771,-27.502113 1.22475,-4.125 2.35281,-7.652173 2.50678,-7.838161 0.15397,-0.185989 2.36155,0.88174 4.90574,2.372731 4.48563,2.628754 4.56309,2.754809 2.55649,4.160283 -1.94871,1.364928 -8.02527,12.123862 -8.02527,14.209243 0,0.528621 0.90653,1.248851 2.01452,1.600513 1.10799,0.351661 1.75643,1.056985 1.44098,1.567387 -0.33765,0.546333 3.41963,0.928004 9.13552,0.928004 l 9.70906,0 -0.67817,-12 c -0.373,-6.6 -0.32802,-11.979666 0.1,-11.954813 0.42797,0.02485 2.72664,1.064869 5.10815,2.311147 3.80054,1.988874 4.13681,2.426305 2.75,3.577257 -1.20994,1.004161 -1.58002,3.273524 -1.58002,9.688854 l 0,8.377555 5.15561,0 c 3.93192,0 5.91875,-0.582079 8.37088,-2.452408 l 3.21527,-2.452408 3.12912,3.89377 c 1.72102,2.141573 3.12912,4.145157 3.12912,4.452408 0,0.307251 -5.175,0.558638 -11.5,0.558638 l -11.5,0 0,14.999996 0,15 4.18555,0 c 2.92741,0 4.88469,-0.65681 6.51145,-2.18507 l 2.3259,-2.18507 3.48855,3.38124 c 1.9187,1.85968 3.48855,3.74296 3.48855,4.18507 0,0.44211 -9.15526,0.80383 -20.34501,0.80383 -19.07502,0 -20.458,-0.12484 -22.15499,-2 -1.79745,-1.98616 -1.74663,-2 7.34501,-2 l 9.15499,0 0,-15 0,-14.999996 -8.67126,0 c -6.73513,0 -9.0879,-0.377058 -10.53727,-1.688712 -1.81599,-1.643454 -1.86292,-1.129774 -1.75114,19.166818 0.12176,22.10957 0.26428,21.42236 -4.76145,22.95915 l -2.22112,0.67918 0.62918,-19.55822 z"
         id="path3060"
         inkscape:connector-curvature="0" />
      <path
         style="fill:#be0006;fill-opacity:1"
         d="m 285.10358,151.86938 c -13.09937,-2.82357 -27.01418,-11.73165 -35.19119,-22.52895 -29.43297,-38.864653 -4.05944,-94.257845 44.69119,-97.565729 15.03679,-1.020295 32.75468,5.048068 44.20066,15.138697 6.98787,6.160418 14.38365,17.478505 17.35972,26.566329 3.49457,10.671179 3.49457,27.228293 0,37.899473 -9.57046,29.22474 -40.79171,47.0146 -71.06038,40.49018 z m 25.20078,-3.53001 c 19.91265,-4.09618 37.20882,-20.44695 43.20287,-40.84141 2.11031,-7.18022 2.11031,-22.956776 0,-30.136998 -4.65804,-15.84876 -15.67571,-29.140805 -29.70593,-35.838138 -17.40873,-8.310061 -34.37987,-8.279803 -51.69772,0.09217 -9.42445,4.556065 -20.60176,15.980411 -25.25627,25.814465 -10.83806,22.898702 -6.65328,47.319951 11.15303,65.086081 8.08071,8.06248 15.85174,12.62665 26.10324,15.33126 6.63945,1.75165 18.95454,1.98318 26.20078,0.49257 z m -23.20078,-2.46999 c -25.48955,-5.49427 -43.36079,-27.51965 -43.36079,-53.439919 0,-26.610349 18.06284,-48.218977 44.86079,-53.667107 17.21382,-3.499639 35.61014,2.37785 48.41081,15.466903 3.62406,3.705698 7.83652,9.058177 9.36104,11.894396 3.55164,6.607486 6.72815,19.027036 6.72815,26.305808 0,7.278768 -3.17651,19.698319 -6.72815,26.305809 -4.62352,8.60162 -14.50363,17.77059 -24.27185,22.52485 -12.32648,5.99938 -22.3977,7.32569 -35,4.60926 z m 23.86904,-3.89268 c 12.59604,-3.35256 23.29391,-11.10458 30.32585,-21.97511 10.588,-16.36778 10.588,-38.776481 0,-55.144259 -15.56792,-24.066126 -47.85667,-30.706995 -71.8542,-14.778344 -29.67969,19.700259 -29.68405,64.997793 -0.008,84.695533 11.78023,7.81927 28.39441,10.70007 41.5365,7.20218 z m -33.90231,-35.29724 -0.0333,-19.749999 -2.02244,2.5 c -7.89813,9.763108 -9.21573,11.095289 -10.09964,10.211378 -0.60304,-0.60304 0.3763,-3.02919 2.67039,-6.615425 5.33368,-8.337893 11.01073,-20.541597 13.0356,-28.022066 0.97871,-3.615638 2.22207,-6.573887 2.76302,-6.573887 0.54095,0 2.52649,0.953592 4.41231,2.119093 l 3.42876,2.119093 -2.07068,1.92913 c -1.70827,1.591496 -8.05078,12.768623 -8.05078,14.187536 0,0.226537 0.94528,0.659081 2.10062,0.961209 1.15668,0.302479 1.8042,1.028928 1.44098,1.616631 -0.45079,0.729392 2.52511,1.067308 9.39938,1.067308 l 10.05902,0 0,-11.5 c 0,-6.325 0.17004,-11.5 0.37788,-11.5 0.20783,0 2.06705,0.705782 4.13159,1.568404 2.7935,1.167199 3.46425,1.857873 2.62213,2.7 -0.67068,0.670674 -1.1316,4.716015 -1.1316,9.931596 l 0,8.8 5.68555,0 c 4.48381,0 6.18118,-0.465622 8.03043,-2.202902 l 2.34488,-2.202903 3.7029,3.702903 3.70291,3.702902 -11.73334,0 -11.73333,0 0,15.499999 0,15.5 4.67126,0 c 2.9609,0 5.34715,-0.61167 6.51723,-1.67058 1.74003,-1.57471 2.02117,-1.50297 4.89875,1.25 l 3.05278,2.92058 -19.82001,0.53386 c -18.06434,0.48658 -19.99471,0.37585 -21.79223,-1.25 -1.90763,-1.72543 -1.67015,-1.78386 7.25,-1.78386 l 9.22222,0 0,-15.60032 0,-15.600328 -8.84573,0.350324 c -6.45243,0.255541 -9.29331,-0.021 -10.5,-1.02212 -1.5299,-1.269263 -1.65427,0.175328 -1.65427,19.214814 0,19.33057 -0.11807,20.65045 -1.93426,21.62245 -3.96011,2.11939 -4.06472,1.64177 -4.09901,-18.71482 z"
         id="path3058"
         inkscape:connector-curvature="0" />
      <path
         style="fill:#000000;fill-opacity:1"
         d="m 288.1032,152.65072 c -29.56461,-5.29469 -50.73771,-30.31819 -50.73771,-59.964527 0,-15.980042 5.20468,-29.257829 16.068,-40.991519 23.51471,-25.398695 62.86935,-26.250782 87.12142,-1.88631 25.65423,25.773134 23.62735,66.530676 -4.47478,89.981226 -5.47562,4.56927 -16.55933,10.11957 -23.53944,11.78765 -6.84855,1.63665 -18.44778,2.14618 -24.43749,1.07348 z m 27.67766,-5.5756 c 19.20531,-6.00261 34.2766,-22.79392 38.4956,-42.88893 1.8531,-8.826239 1.8531,-14.173755 0,-22.999997 -4.52579,-21.556238 -22.18154,-39.664048 -43.42839,-44.540325 -22.12383,-5.077551 -46.47359,4.13905 -59.6245,22.568411 -18.3395,25.700497 -12.4438,61.953071 12.99767,79.922501 15.49111,10.94145 33.21851,13.67084 51.55962,7.93834 z"
         id="path3056"
         inkscape:connector-curvature="0" />
    </g>
  </g>
</svg>
