<?xml version="1.0" encoding="UTF-8" standalone="no"?>
<!-- Created with Inkscape (http://www.inkscape.org/) -->

<svg
   xmlns:dc="http://purl.org/dc/elements/1.1/"
   xmlns:cc="http://creativecommons.org/ns#"
   xmlns:rdf="http://www.w3.org/1999/02/22-rdf-syntax-ns#"
   xmlns:svg="http://www.w3.org/2000/svg"
   xmlns="http://www.w3.org/2000/svg"
   xmlns:sodipodi="http://sodipodi.sourceforge.net/DTD/sodipodi-0.dtd"
   xmlns:inkscape="http://www.inkscape.org/namespaces/inkscape"
   id="svg3076"
   version="1.1"
   inkscape:version="0.48.2 r9819"
   width="128.28036"
   height="128.00664"
   sodipodi:docname="WhiteGold.svg">
  <metadata
     id="metadata3082">
    <rdf:RDF>
      <cc:Work
         rdf:about="">
        <dc:format>image/svg+xml</dc:format>
        <dc:type
           rdf:resource="http://purl.org/dc/dcmitype/StillImage" />
        <dc:title />
      </cc:Work>
    </rdf:RDF>
  </metadata>
  <defs
     id="defs3080" />
  <sodipodi:namedview
     pagecolor="#ffffff"
     bordercolor="#666666"
     borderopacity="1"
     objecttolerance="10"
     gridtolerance="10"
     guidetolerance="10"
     inkscape:pageopacity="0"
     inkscape:pageshadow="2"
     inkscape:window-width="1027"
     inkscape:window-height="709"
     id="namedview3078"
     showgrid="false"
     inkscape:zoom="2.9259416"
     inkscape:cx="80.486331"
     inkscape:cy="57.043811"
     inkscape:window-x="208"
     inkscape:window-y="63"
     inkscape:window-maximized="0"
     inkscape:current-layer="g3112"
     fit-margin-top="3"
     fit-margin-right="3"
     fit-margin-bottom="3"
     fit-margin-left="3" />
  <g
     inkscape:groupmode="layer"
     id="layer2"
     inkscape:label="LAYER1"
     style="display:inline"
     transform="translate(2.9999995,3.0066323)" />
  <g
     id="g3112">
    <path
       style="fill:#ffeeaa;fill-opacity:1"
       d="M 49.716986,123.2092 C 33.811072,119.35784 17.144961,106.06342 10.164485,91.65849 5.322809,81.66719 3.5,74.00889 3.5,63.658486 3.5,46.598592 9.367637,32.551221 21.529485,20.495133 29.989538,12.108649 41.133569,5.8397269 51.299226,3.7485759 c 7.66659,-1.577077 21.45079,-1.338095 28.55643,0.495094 13.93484,3.59506 29.747534,15.2383551 37.073474,27.2981441 6.07794,10.005378 8.57087,19.346849 8.57087,32.116672 0,12.769824 -2.49293,22.111294 -8.57087,32.116674 -7.45235,12.26789 -23.658334,24.07552 -37.532244,27.34589 -7.67992,1.81032 -22.38706,1.854 -29.6799,0.0881 z"
       id="path3120"
       inkscape:connector-curvature="0" />
    <path
       style="fill:#ffaaaa;fill-opacity:1"
       d="M 50.213651,123.32117 C 27.441734,117.55796 9.7267078,99.156201 4.4751507,75.809591 c -1.300201,-5.78025 -1.300201,-18.219756 0,-24.000004 C 10.968418,22.942757 35.553401,2.8807476 64.504071,2.8243676 c 16.49596,-0.03213 31.4957,6.339849 43.530359,18.4919454 11.57219,11.685107 17.3796,25.884273 17.3796,42.493274 0,21.035164 -10.09311,39.573093 -27.861009,51.172103 -4.06582,2.6542 -10.37288,5.77949 -14.01569,6.94511 -8.58284,2.74631 -25.22955,3.44286 -33.32368,1.39437 z m 27.1475,-4.06074 c 10.77077,-2.53869 18.73184,-7.0565 27.156119,-15.41078 11.55718,-11.461149 16.89676,-24.114289 16.89676,-40.040063 0,-15.925774 -5.33958,-28.578916 -16.89676,-40.040059 C 96.092981,15.415243 88.131921,10.897433 77.361151,8.3587436 45.404681,0.82655158 12.864648,23.031764 8.1919457,55.559587 2.5194757,95.047021 38.704949,128.37176 77.361151,119.26043 z m -25.67496,-1.8877 C 31.932855,112.58625 14.597462,94.751031 10.51101,75.010361 3.5232697,41.25428 30.14884,8.7419746 64.713261,8.8243676 c 16.28697,0.03882 31.90567,7.5806764 42.745359,20.6405904 15.94184,19.207115 15.94184,49.482143 0,68.689253 C 93.716801,114.7107 71.827951,122.25333 51.686191,117.37273 z m 22.29418,-3.63884 c 23.47475,-4.2557 41.433659,-25.894779 41.433659,-49.924303 0,-34.722122 -34.624649,-59.3107794 -67.561609,-47.978803 -7.945531,2.733665 -14.391823,7.081077 -20.861508,14.069109 -17.8179952,19.245561 -17.8179952,48.573828 0,67.819388 12.767833,13.790789 28.909928,19.292219 46.989458,16.014609 z m 2.20399,-39.424299 0.52029,-24.500004 -4.14531,0 -4.14531,0 0,16.38499 c 0,16.311474 -0.0111,16.392234 -2.46481,18.000004 -1.35565,0.88825 -2.81815,1.61501 -3.25,1.61501 -0.43185,1e-5 -0.78519,-9.67496 -0.78519,-21.499934 0,-11.824968 0.225,-21.484026 0.5,-21.464571 0.275,0.01945 1.625,0.67848 3,1.464501 1.375,0.786021 4.46573,1.445075 6.86828,1.464565 l 4.36828,0.03543 -0.71625,-8.598483 -0.71625,-8.598483 2.34797,0.725168 c 1.29139,0.398843 3.66261,1.394604 5.26939,2.212804 2.52455,1.285547 2.69435,1.614702 1.25,2.423005 -1.24303,0.695634 -1.67142,2.332285 -1.67142,6.385679 l 0,5.45031 3.67126,0 c 2.0192,0 4.45997,-0.713774 5.42395,-1.586163 1.60972,-1.456776 2.00287,-1.401198 4.81964,0.681324 2.75795,2.039048 2.91674,2.433458 1.57604,3.914904 -1.18806,1.312801 -1.49089,4.839719 -1.49089,17.36413 0,15.353554 -0.0567,15.773434 -2.45454,18.171264 -2.82788,2.82788 -4.36111,3.09853 -5.19802,0.91756 -0.32439,-0.84534 -1.88527,-2.2069 -3.46862,-3.02568 l -2.87882,-1.48869 0,7.92785 0,7.92786 -3.14922,1.09782 c -1.73207,0.6038 -3.25081,1.09783 -3.37498,1.09783 -0.12417,0 0.008,-11.025 0.29453,-24.5 z m 14.22967,-10.559021 0,-13.940983 -4,0 -4,0 0,13.936642 0,13.936642 3.25,0.33736 c 1.7875,0.18554 3.5875,0.1875 4,0.004 0.4125,-0.18312 0.75,-6.60642 0.75,-14.273961 z M 34.349407,95.585271 c -0.03555,-0.15163 -0.148046,-12.76818 -0.25,-28.036796 -0.162531,-24.340486 -5.47e-4,-27.682289 1.314628,-27.121404 4.753595,2.027275 5.824646,1.676622 6.919201,-2.265286 0.588305,-2.118709 1.072155,-5.089698 1.075222,-6.602198 0.0067,-3.314405 0.27701,-3.346277 4.887543,-0.576344 4.89604,2.941459 4.82004,2.837559 3.04132,4.158105 -0.86546,0.642531 -2.37901,2.405739 -3.36343,3.918239 l -1.78988,2.75 3.41501,0 c 1.87826,0 3.94905,-0.53404 4.60177,-1.186756 0.91567,-0.915675 1.76386,-0.644593 3.71324,1.186756 1.70635,1.603024 2.19757,2.702431 1.51325,3.386756 -0.55729,0.557284 -1.01325,4.451012 -1.01325,8.652729 0,7.215998 -0.14119,7.703817 -2.54705,8.8 -3.25595,1.483511 -3.45295,1.464142 -3.45295,-0.339485 0,-1.166667 -1.33333,-1.5 -6,-1.5 l -5.999996,0 0,3.5 0,3.5 6.171256,0 c 4.40733,0 6.70872,-0.486395 8.05161,-1.701694 1.78764,-1.617784 1.9974,-1.556147 4.25411,1.25 1.46709,1.824298 2.0203,3.314548 1.44839,3.901698 -0.50895,0.5225 -0.92537,5.28776 -0.92537,10.58948 0,9.35918 -0.0741,9.67323 -2.54705,10.8 -3.40615,1.55195 -3.45295,1.53379 -3.45295,-1.33948 0,-2.41026 -0.23333,-2.5 -6.5,-2.5 -5.805147,0 -6.499996,0.21105 -6.499996,1.97432 0,1.18227 -1.20352,2.59668 -3,3.52568 -1.65,0.85324 -3.029083,1.4273 -3.064628,1.27568 z m 19.064624,-16.77568 0,-7 -6.5,0 -6.499996,0 0,7 0,7 6.499996,0 6.5,0 0,-7 z m -1,-27.500004 0,-5.5 -6,0 -5.999996,0 0,5.5 0,5.5 5.999996,0 6,0 0,-5.5 z"
       id="path3118"
       inkscape:connector-curvature="0" />
    <path
       style="fill:#be0006;fill-opacity:1"
       d="m 51.238088,123.16069 c -13.09937,-2.82357 -27.01417,-11.73165 -35.19118,-22.52896 -29.43298,-38.864648 -4.05945,-94.2578395 44.69118,-97.5657235 15.0368,-1.020295 32.75468,5.048068 44.200662,15.1386965 6.98787,6.160418 14.38365,17.478505 17.35972,26.566329 3.49457,10.671179 3.49457,27.228288 0,37.899468 -9.57046,29.22475 -40.791712,47.01461 -71.060382,40.49019 z m 25.20078,-3.53001 c 19.91265,-4.09618 37.208822,-20.446953 43.202872,-40.84141 2.11031,-7.18023 2.11031,-22.956781 0,-30.137003 -4.65804,-15.84876 -15.67571,-29.140805 -29.705932,-35.838138 -17.40872,-8.3100605 -34.37987,-8.2798025 -51.69772,0.09217 -9.42445,4.556065 -20.60176,15.980411 -25.25626,25.814465 -10.8380696,22.898702 -6.6532896,47.319954 11.15302,65.086086 8.08071,8.06248 15.85174,12.62665 26.10324,15.33126 6.63945,1.75165 18.95454,1.98318 26.20078,0.49257 z m -23.20078,-2.46999 C 27.748538,111.66642 9.8773084,89.64104 9.8773084,63.720766 c 0,-26.610349 18.0628296,-48.218977 44.8607796,-53.667107 17.21383,-3.4996385 35.61014,2.37785 48.410812,15.466903 3.62406,3.705698 7.83652,9.058177 9.36104,11.894396 3.55164,6.607486 6.72815,19.027036 6.72815,26.305808 0,7.278774 -3.17651,19.698324 -6.72815,26.305804 -4.62352,8.601617 -14.503632,17.7706 -24.271852,22.52486 -12.32647,5.99938 -22.3977,7.32569 -35,4.60926 z m 23.86904,-3.89268 c 12.59605,-3.35256 23.293922,-11.10459 30.325852,-21.97511 10.588,-16.36778 10.588,-38.776486 0,-55.144264 C 91.865058,12.08251 59.576308,5.4416415 35.578778,21.370292 5.8990884,41.070551 5.8947284,86.36809 35.570778,106.06583 c 11.78023,7.81927 28.39442,10.70007 41.5365,7.20218 z m -0.86904,-40.10474 0,-24.5575 -4.25,0.307498 -4.25,0.307498 -0.5,16.88024 c -0.47757,16.123264 -0.60089,16.947134 -2.75,18.371974 l -2.25,1.49173 0,-21.228961 c 0,-19.852659 0.11346,-21.17769 1.75,-20.438133 0.9625,0.434956 4.1125,0.974748 7,1.199539 l 5.25,0.40871 0,-8.092549 c 0,-4.983608 0.40326,-8.09255 1.04966,-8.09255 0.57732,0 2.4177,0.707441 4.08975,1.57209 2.81794,1.457214 2.92392,1.700452 1.45034,3.328741 -0.97541,1.077815 -1.58975,3.5618 -1.58975,6.42791 l 0,4.671259 4.95031,0 c 3.66764,0 5.20896,-0.453441 5.94853,-1.75 0.90962,-1.594662 1.2469,-1.495667 3.79969,1.11526 1.87073,1.913322 2.38618,3.02077 1.55147,3.333333 -0.92796,0.347486 -1.25,4.564558 -1.25,16.368964 l 0,15.900887 -2.91343,3.2607 -2.91342,3.26069 -2.11266,-2.68581 c -1.16196,-1.47719 -3.00092,-2.96773 -4.08657,-3.3123 -1.08565,-0.34458 -1.97392,-1.27649 -1.97392,-2.07093 0,-1.12211 0.88162,-1.30345 3.95085,-0.81266 3.56941,0.57077 4.00763,0.40296 4.53902,-1.73819 0.32351,-1.30347 0.45813,-7.99494 0.29916,-14.869944 l -0.28903,-12.5 -4.5,0 -4.5,0 -0.0996,23.348004 c -0.0804,18.8468 -0.36954,23.51894 -1.5,24.23469 -3.78187,2.394467 -3.90045,1.675817 -3.90045,-23.64019 z m -42,-5.509892 0,-27.067387 2.25,0.704615 c 1.2375,0.387538 2.78402,0.905077 3.4367,1.150086 1.09555,0.411252 4.3133,-8.094304 4.3133,-11.401427 0,-2.040461 1.80286,-1.444174 6.82366,2.256892 0.17801,0.131219 -1.09633,2.192936 -2.83186,4.581594 l -3.15551,4.343015 3.1754,0.320335 c 1.98415,0.200161 3.89453,-0.330477 5.09233,-1.41447 1.82845,-1.654724 2.03179,-1.626909 4.40497,0.602575 2.32606,2.185221 2.381,2.455644 0.84394,4.154071 -1.3227,1.461566 -1.52534,3.08817 -1.03668,8.321153 0.60152,6.441587 0.57876,6.519268 -2.35443,8.03608 -2.82256,1.459607 -2.96182,1.434134 -2.96182,-0.541781 0,-1.908458 -0.49719,-2.049714 -6.25,-1.77568 l -6.25,0.297717 -0.31036,3.75 -0.31037,3.75 7.36037,0 c 4.30926,0 7.84801,-0.487643 8.53674,-1.176371 1.59967,-1.599674 5.55939,1.892955 4.66335,4.113275 -0.34694,0.8597 -0.5658,5.70266 -0.48635,10.76212 l 0.14446,9.19902 -3.04892,1.57666 c -3.00994,1.5565 -3.04892,1.54437 -3.04892,-0.94902 0,-2.46037 -0.18102,-2.52568 -7,-2.52568 -6.29155,0 -7,0.19885 -7,1.96481 0,1.67656 -2.59189,4.03519 -4.43426,4.03519 -0.31115,0 -0.56574,-12.18033 -0.56574,-27.067392 z m 19,10.521702 0,-7.54569 -6.75,0.29569 -6.75,0.29569 -0.30402,5.88802 c -0.43583,8.44068 -0.29117,8.61198 7.27264,8.61198 l 6.53138,0 0,-7.54569 z m -1,-26.954314 0,-5.5 -6.5,0 -6.5,0 0,5.5 0,5.5 6.5,0 6.5,0 0,-5.5 z"
       id="path3116"
       inkscape:connector-curvature="0" />
    <path
       style="fill:#000000;fill-opacity:1"
       d="M 54.237704,123.94203 C 24.673097,118.64734 3.5,93.623829 3.5,63.977495 3.5,47.997453 8.704674,34.719666 19.568001,22.985976 43.082713,-2.4127189 82.437344,-3.2648059 106.68941,21.099666 c 25.65423,25.773134 23.62735,66.530683 -4.47478,89.981234 -5.475606,4.56927 -16.559316,10.11957 -23.539436,11.78765 -6.84855,1.63665 -18.44777,2.14618 -24.43749,1.07348 z m 27.67766,-5.5756 c 19.205306,-6.00261 34.276596,-22.793921 38.495596,-42.888931 1.8531,-8.826246 1.8531,-14.173762 0,-23.000004 C 115.88517,30.921257 98.229424,12.813447 76.982574,7.9371701 54.858744,2.8596191 30.508993,12.07622 17.358074,30.505581 -0.981419,56.206078 4.914282,92.458649 30.35575,110.42809 c 15.491104,10.94145 33.218504,13.67084 51.559614,7.93834 z"
       id="path3114"
       inkscape:connector-curvature="0" />
  </g>
</svg>
