<?xml version="1.0" encoding="UTF-8" standalone="no"?>
<!-- Created with Inkscape (http://www.inkscape.org/) -->

<svg
   xmlns:dc="http://purl.org/dc/elements/1.1/"
   xmlns:cc="http://creativecommons.org/ns#"
   xmlns:rdf="http://www.w3.org/1999/02/22-rdf-syntax-ns#"
   xmlns:svg="http://www.w3.org/2000/svg"
   xmlns="http://www.w3.org/2000/svg"
   xmlns:sodipodi="http://sodipodi.sourceforge.net/DTD/sodipodi-0.dtd"
   xmlns:inkscape="http://www.inkscape.org/namespaces/inkscape"
   id="svg3076"
   version="1.1"
   inkscape:version="0.48.2 r9819"
   width="128.28036"
   height="128.00662"
   sodipodi:docname="WhiteRook.svg">
  <metadata
     id="metadata3082">
    <rdf:RDF>
      <cc:Work
         rdf:about="">
        <dc:format>image/svg+xml</dc:format>
        <dc:type
           rdf:resource="http://purl.org/dc/dcmitype/StillImage" />
        <dc:title />
      </cc:Work>
    </rdf:RDF>
  </metadata>
  <defs
     id="defs3080" />
  <sodipodi:namedview
     pagecolor="#ffffff"
     bordercolor="#666666"
     borderopacity="1"
     objecttolerance="10"
     gridtolerance="10"
     guidetolerance="10"
     inkscape:pageopacity="0"
     inkscape:pageshadow="2"
     inkscape:window-width="1027"
     inkscape:window-height="709"
     id="namedview3078"
     showgrid="false"
     inkscape:zoom="4.1438207"
     inkscape:cx="80.49886"
     inkscape:cy="80.353671"
     inkscape:window-x="165"
     inkscape:window-y="0"
     inkscape:window-maximized="0"
     inkscape:current-layer="svg3076"
     fit-margin-top="3"
     fit-margin-left="3"
     fit-margin-right="3"
     fit-margin-bottom="3" />
  <g
     inkscape:groupmode="layer"
     id="layer2"
     inkscape:label="LAYER1"
     style="display:inline"
     transform="translate(2.9999995,3.0066283)" />
  <g
     id="g3115"
     transform="translate(-99.666475,11.583513)">
    <path
       style="fill:#ffeeaa;fill-opacity:1"
       d="m 149.38346,112.12567 c -15.90591,-3.85136 -32.57202,-17.145778 -39.5525,-31.550708 -4.84168,-9.9913 -6.66448,-17.6496 -6.66448,-28 0,-17.059894 5.86763,-31.107265 18.02948,-43.1633534 8.46005,-8.386484 19.60408,-14.655405 29.76973,-16.746557 7.6666,-1.577077 21.4508,-1.338095 28.55644,0.495094 13.93483,3.595061 29.74753,15.238355 37.07347,27.2981444 6.07794,10.005378 8.57087,19.346849 8.57087,32.116672 0,12.76982 -2.49293,22.11129 -8.57087,32.11667 -7.45235,12.26789 -23.65833,24.075518 -37.53224,27.345888 -7.67992,1.81032 -22.38706,1.854 -29.6799,0.0881 z"
       id="path3123"
       inkscape:connector-curvature="0" />
    <path
       style="fill:#ffaaaa;fill-opacity:1"
       d="m 149.88013,112.23764 c -22.77192,-5.76321 -40.48695,-24.164958 -45.7385,-47.511578 -1.30021,-5.78025 -1.30021,-18.219752 0,-24 6.49326,-28.86683 31.07825,-48.9288387 60.02892,-48.9852187 16.49596,-0.03213 31.4957,6.33985 43.53036,18.4919447 11.57219,11.685107 17.3796,25.884273 17.3796,42.493274 0,21.03516 -10.09311,39.57309 -27.86101,51.172098 -4.06582,2.6542 -10.37288,5.77949 -14.01569,6.94511 -8.58284,2.74631 -25.22955,3.44286 -33.32368,1.39437 z m 27.1475,-4.06074 c 10.77077,-2.53869 18.73183,-7.0565 27.15612,-15.410778 11.55718,-11.46114 16.89676,-24.11429 16.89676,-40.04006 0,-15.925774 -5.33958,-28.578916 -16.89676,-40.040059 C 195.75946,4.3317183 187.7984,-0.18609167 177.02763,-2.7247807 145.07115,-10.256973 112.53112,11.948239 107.85842,44.476062 c -5.67247,39.48744 30.513,72.812168 69.16921,63.700838 z m -25.67496,-1.8877 c -19.75334,-4.78648 -37.08873,-22.621688 -41.17519,-42.362358 -6.98774,-33.756087 19.63783,-66.2683917 54.20225,-66.1859987 16.28698,0.03882 31.90568,7.580676 42.74537,20.6405897 15.94184,19.207115 15.94184,49.482139 0,68.689259 -13.74183,16.556478 -35.63067,24.099108 -55.77243,19.218508 z m 22.29418,-3.63884 c 23.47475,-4.255698 41.43366,-25.894778 41.43366,-49.924298 0,-34.722122 -34.62465,-59.3107787 -67.56161,-47.9788027 -7.94554,2.733665 -14.39183,7.0810767 -20.86151,14.0691087 -17.818,19.245561 -17.818,48.573824 0,67.819384 12.76783,13.790788 28.90993,19.292218 46.98946,16.014608 z M 139.80111,67.726062 c 0.32426,-11 0.38724,-20 0.13996,-20 -0.24727,0 -2.16546,2.25 -4.26264,5 -3.6025,4.72391 -5.82987,6.05175 -6.99341,4.1691 -0.28244,-0.457 1.09517,-3.21967 3.06135,-6.13929 4.05057,-6.014755 9.17631,-16.882459 11.80526,-25.02981 0.9761,-3.025 2.15123,-5.909326 2.61141,-6.409613 0.48892,-0.531529 2.54247,0.219213 4.94053,1.806174 l 4.10383,2.715787 -2.56344,2.016406 c -1.4099,1.109024 -2.56345,2.433745 -2.56345,2.943826 0,0.510081 4.0431,0.92742 8.98467,0.92742 l 8.98467,0 -0.62713,-6 c -0.34491,-3.3 -0.37532,-6 -0.0676,-6 0.30776,0 2.73436,0.933992 5.39246,2.075538 4.3344,1.861451 4.6524,2.208053 3.08291,3.360243 -0.96251,0.706587 -1.75001,2.472595 -1.75001,3.924462 0,2.477421 0.28815,2.639757 4.68555,2.639757 3.30256,0 5.31124,-0.587804 6.80538,-1.991475 l 2.11983,-1.991475 3.89757,3.991475 3.89757,3.991475 -10.70295,0 -10.70295,0 0,2.5 c 0,2.342397 0.32402,2.5 5.13976,2.5 3.4639,0 5.50529,-0.499891 6.26081,-1.533133 0.98459,-1.346501 1.51699,-1.241021 4.37357,0.866496 2.82073,2.081072 3.05162,2.56636 1.73919,3.655578 -1.17041,0.971349 -1.51333,3.571142 -1.51333,11.472989 0,9.97809 -0.0596,10.24418 -2.54705,11.37756 -3.25595,1.48351 -3.45295,1.46414 -3.45295,-0.33949 0,-1.13333 -1.22222,-1.5 -5,-1.5 l -5,0 0,3.5 0,3.5 5.54775,0 c 4.61176,0 5.9331,-0.41579 7.83175,-2.46447 l 2.28399,-2.46447 3.8712,3.96447 3.87121,3.96447 -11.70295,0 -11.70295,0 0,6.40217 c 0,6.28188 -0.0592,6.42281 -3.14922,7.5 -1.73207,0.60381 -3.35355,1.09783 -3.60329,1.09783 -0.24973,0 -0.29508,-3.2625 -0.10077,-7.25 l 0.35328,-7.25 -9.5,0 c -5.225,0 -10.0625,-0.36406 -10.75,-0.80902 -0.955,-0.61809 -1.25,0.73284 -1.25,5.72432 0,6.22342 -0.13996,6.60571 -2.95034,8.05902 -1.62269,0.83912 -3.1682,1.52568 -3.43448,1.52568 -0.26627,0 -0.21883,-9 0.10542,-20 z m 28.09276,-1.75 0.31336,-3.25 -5.06336,0 c -2.78485,0 -5.06336,0.37777 -5.06336,0.83949 0,0.71116 -4.26004,3.16051 -5.49694,3.16051 -0.22156,0 -0.53789,-6.77378 -0.70295,-15.05285 -0.2927,-14.681511 -0.25077,-15.035615 1.69989,-14.354395 1.1,0.384147 4.8125,0.896326 8.25,1.138175 6.1684,0.433983 6.25,0.405969 6.25,-2.145603 0,-2.576248 -0.0296,-2.585327 -8.44098,-2.585327 -4.64254,0 -8.7191,-0.45 -9.05902,-1 -1.07818,-1.744532 -2.08309,-1.097485 -3.76136,2.421894 -1.44139,3.022611 -1.45805,3.566084 -0.14283,4.657618 1.03299,0.857312 1.16975,1.554931 0.44657,2.278106 -0.61894,0.618942 -1.04238,6.458904 -1.04238,14.376212 l 0,13.33383 10.75,-0.28383 10.75,-0.28383 0.31336,-3.25 z m 0.18664,-10.25 c 0,-2.93333 -0.11111,-3 -5,-3 -4.88889,0 -5,0.0667 -5,3 0,2.93333 0.11111,3 5,3 4.88889,0 5,-0.0667 5,-3 z m 16,0 c 0,-2.93333 -0.11111,-3 -5,-3 -4.88889,0 -5,0.0667 -5,3 0,2.93333 0.11111,3 5,3 4.88889,0 5,-0.0667 5,-3 z m -16,-10 c 0,-2.933333 -0.11111,-3 -5,-3 -4.88889,0 -5,0.06667 -5,3 0,2.933333 0.11111,3 5,3 4.88889,0 5,-0.06667 5,-3 z m 16,0 c 0,-2.933333 -0.11111,-3 -5,-3 -4.88889,0 -5,0.06667 -5,3 0,2.933333 0.11111,3 5,3 4.88889,0 5,-0.06667 5,-3 z"
       id="path3121"
       inkscape:connector-curvature="0" />
    <path
       style="fill:#bf0008;fill-opacity:1"
       d="M 150.90456,111.57716 C 137.8052,108.75359 123.89039,99.845509 115.71338,89.048209 86.280403,50.183559 111.65394,-5.2096368 160.40456,-8.5175208 c 15.0368,-1.020295 32.75468,5.048068 44.20066,15.138697 6.98787,6.1604178 14.38365,17.4785048 17.35972,26.5663288 3.49457,10.671179 3.49457,27.228294 0,37.899464 -9.57046,29.224751 -40.79171,47.014611 -71.06038,40.490191 z m 25.20078,-3.53001 c 19.91265,-4.09618 37.20882,-20.446951 43.20287,-40.841411 2.11031,-7.18022 2.11031,-22.956777 0,-30.136999 C 214.65017,21.21998 203.6325,7.9279352 189.60228,1.2306022 c -17.40872,-8.310061 -34.37987,-8.279803 -51.69771,0.09217 -9.42445,4.556065 -20.60176,15.9804108 -25.25627,25.8144648 -10.83806,22.898702 -6.65328,47.319952 11.15303,65.086082 8.08071,8.062481 15.85174,12.626651 26.10323,15.331261 6.63945,1.75165 18.95454,1.98318 26.20078,0.49257 z m -23.20078,-2.46999 c -25.48954,-5.49427 -43.36078,-27.519651 -43.36078,-53.439921 0,-26.610349 18.06284,-48.2189768 44.86078,-53.6671068 17.21383,-3.499639 35.61014,2.37785002 48.41081,15.4669028 3.62406,3.705698 7.83652,9.058177 9.36104,11.894396 3.55164,6.607486 6.72815,19.027036 6.72815,26.305808 0,7.27877 -3.17651,19.69832 -6.72815,26.30581 -4.62352,8.60162 -14.50363,17.77059 -24.27185,22.524851 -12.32647,5.99938 -22.3977,7.32569 -35,4.60926 z m 23.86904,-3.89268 c 12.59605,-3.352561 23.29392,-11.104581 30.32585,-21.975111 10.588,-16.36778 10.588,-38.776482 0,-55.14426 C 191.53153,0.49898322 159.24278,-6.1418858 135.24526,9.7867652 c -29.6797,19.7002588 -29.68406,64.9977938 -0.008,84.6955338 11.78023,7.819271 28.3944,10.700071 41.53649,7.202181 z m -9.13759,-22.179371 0.57275,-7.5731 -10.00922,0.34364 c -7.78054,0.26713 -10.4089,0.0119 -11.80425,-1.14611 -1.7051,-1.41511 -1.76941,-1.13138 -1.28331,5.66244 0.48761,6.81506 0.39829,7.20388 -1.89489,8.24873 -1.32365,0.60309 -2.61045,1.09653 -2.85958,1.09653 -0.24912,0 -0.45791,-8.8875 -0.46397,-19.75 l -0.011,-19.75 -4.81389,5.4378 c -6.31049,7.12837 -7.36081,5.23031 -1.98603,-3.588981 4.04984,-6.645218 10.80223,-21.952154 12.2014,-27.659233 l 0.68901,-2.810413 3.71578,2.23407 c 5.0057,3.009616 4.93001,2.907551 2.96972,4.004587 -0.95118,0.532303 -2.20076,1.848552 -2.77686,2.924997 -1.00576,1.879292 -0.66801,1.957173 8.48774,1.957173 l 9.53518,0 0,-5.5 c 0,-3.025 0.23946,-5.5 0.53212,-5.5 0.29267,0 2.15835,0.679484 4.14597,1.509964 3.40971,1.424665 3.52087,1.612707 1.96788,3.32874 -0.90528,1.000328 -1.64597,2.795844 -1.64597,3.990037 0,1.957531 0.52614,2.171259 5.34501,2.171259 4.09657,0 5.77295,-0.472863 7.17714,-2.024477 1.82823,-2.020163 1.83934,-2.0175 5.21673,1.25 l 3.3846,3.274477 -10.31174,0.5 -10.31174,0.5 -0.31642,2.75 c -0.31337,2.723446 -0.25978,2.75 5.55,2.75 3.22653,0 6.35832,-0.491894 6.95952,-1.093098 0.7908,-0.790797 1.81405,-0.620714 3.7,0.61501 2.76806,1.813704 3.23571,2.971428 1.6069,3.978088 -0.55839,0.345105 -1,5.017531 -1,10.58046 0,9.82585 -0.0366,9.9791 -2.67058,11.17922 -2.10959,0.96119 -2.7573,0.95668 -3.08334,-0.0214 -0.26037,-0.78112 -2.4124,-1.23824 -5.82941,-1.23824 l -5.41667,0 0,3.5 0,3.5 6.18555,0 c 5.03811,0 6.62998,-0.41738 8.58136,-2.25 l 2.39581,-2.25 3.13073,3.5 3.13072,3.5 -11.7815,0.28234 -11.7815,0.28233 0.25189,6.17195 c 0.24712,6.05493 0.19306,6.19595 -2.85123,7.43815 l -3.10313,1.26621 0.57275,-7.57311 z m 0.26855,-13.86787 c 0,-3.47481 -0.032,-3.5 -4.44284,-3.5 -2.71595,0 -5.82547,0.81577 -8,2.09878 l -3.55716,2.09877 0,-15.13396 c 0,-14.652623 0.0615,-15.101034 1.93426,-14.098774 1.06384,0.569351 4.66384,1.035184 8,1.035184 l 6.06574,0 0,-3.140957 0,-3.140957 -8.40246,0.524211 c -6.48204,0.4044 -8.72844,0.198231 -9.82873,-0.902058 -1.23502,-1.235024 -1.67203,-0.881258 -3.25914,2.638333 -1.74355,3.866507 -1.7475,4.127033 -0.081,5.345627 1.59408,1.165622 1.60864,1.399928 0.16161,2.600859 -1.30308,1.081457 -1.5903,3.64564 -1.5903,14.197392 l 0,12.87755 11.49999,0 11.5,0 0,-3.5 z m 0,-10 0,-3.5 -5,0 -5,0 0,3.5 0,3.5 5,0 5,0 0,-3.5 z m 16,0 0,-3.5 -5.5,0 c -5.37255,0 -5.5,0.0657 -5.5,2.83333 0,3.8016 0.54031,4.16667 6.16667,4.16667 l 4.83333,0 0,-3.5 z m -16,-10.5 c 0,-2.933333 -0.11111,-3 -5,-3 -4.88889,0 -5,0.06667 -5,3 0,2.933333 0.11111,3 5,3 4.88889,0 5,-0.06667 5,-3 z m 16,0 c 0,-2.969697 -0.0556,-3 -5.5,-3 -5.44444,0 -5.5,0.0303 -5.5,3 0,2.969697 0.0556,3 5.5,3 5.44445,0 5.5,-0.0303 5.5,-3 z"
       id="path3119"
       inkscape:connector-curvature="0" />
    <path
       style="fill:#000000;fill-opacity:1"
       d="m 153.90418,112.3585 c -29.56461,-5.29469 -50.7377,-30.318189 -50.7377,-59.964529 0,-15.980042 5.20467,-29.257829 16.068,-40.991519 23.51471,-25.398695 62.86934,-26.250782 87.12141,-1.8863102 25.65423,25.7731342 23.62735,66.5306792 -4.47478,89.9812292 -5.47561,4.569269 -16.55932,10.119569 -23.53944,11.787649 -6.84855,1.63665 -18.44777,2.14618 -24.43749,1.07348 z m 27.67766,-5.5756 c 19.20531,-6.00261 34.2766,-22.793919 38.4956,-42.888929 1.8531,-8.82624 1.8531,-14.17376 0,-23 -4.52579,-21.556238 -22.18154,-39.6640482 -43.42839,-44.5403252 -22.12383,-5.077551 -46.47358,4.13905001 -59.6245,22.5684112 -18.339494,25.700497 -12.44379,61.953074 12.99767,79.922504 15.49111,10.941449 33.21851,13.670839 51.55962,7.938339 z"
       id="path3117"
       inkscape:connector-curvature="0" />
  </g>
</svg>
